{"glyphs":{"0":{"ha":666,"x_min":69,"x_max":597,"o":"m 326 -11 q 203 18 253 -11 q 123 94 153 46 q 82 207 94 142 q 69 341 69 271 q 88 501 69 432 q 143 615 108 570 q 228 684 178 661 q 341 707 279 707 q 464 679 415 707 q 543 602 514 650 q 585 489 572 554 q 597 355 597 425 q 578 194 597 263 q 524 80 559 125 q 438 12 489 34 q 326 -11 388 -11 m 328 647 q 221 575 251 647 q 191 366 191 502 q 198 237 191 296 q 221 137 205 179 q 266 72 238 95 q 338 49 295 49 q 445 122 415 49 q 476 330 476 195 q 469 460 476 401 q 445 560 462 518 q 400 624 429 602 q 328 647 371 647 z "},"1":{"ha":475,"x_min":58,"x_max":452,"o":"m 320 697 l 320 98 q 327 77 320 84 q 348 68 334 70 l 452 51 l 452 0 l 66 0 l 66 51 l 182 68 q 205 77 195 70 q 214 98 214 84 l 214 588 q 185 579 203 584 q 147 568 167 573 q 106 560 126 564 q 69 555 85 556 l 58 610 q 167 649 112 622 q 260 709 223 677 l 320 697 z "},"2":{"ha":606,"x_min":46,"x_max":542,"o":"m 523 0 l 71 0 l 46 66 q 210 217 143 154 q 316 328 276 280 q 372 413 356 375 q 389 488 389 451 q 351 584 389 551 q 261 616 313 616 q 178 591 214 616 q 113 520 141 566 l 72 550 q 100 608 81 579 q 148 658 119 636 q 215 693 177 680 q 299 707 253 707 q 383 694 344 707 q 449 655 421 680 q 494 593 478 630 q 510 510 510 556 q 487 407 510 456 q 419 307 464 358 q 308 202 375 257 q 153 79 240 146 l 289 79 q 361 81 330 79 q 410 87 392 83 q 438 98 430 91 q 450 116 445 105 l 484 203 l 542 195 q 537 99 542 151 q 523 0 532 47 z "},"3":{"ha":585,"x_min":46,"x_max":524,"o":"m 524 199 q 503 115 524 154 q 448 47 483 76 q 365 3 413 19 q 264 -13 318 -13 q 138 11 195 -13 q 46 67 80 34 l 75 109 q 152 74 110 87 q 241 60 194 60 q 302 67 273 60 q 352 91 330 75 q 387 133 374 107 q 402 195 401 159 q 367 294 403 257 q 271 337 330 330 q 233 328 253 332 q 194 321 213 323 l 179 377 q 256 400 221 386 q 317 433 291 414 q 357 478 342 453 q 371 535 371 504 q 342 602 371 575 q 262 630 312 630 q 179 607 217 630 q 112 556 140 585 l 78 589 q 164 674 106 641 q 295 707 222 707 q 369 696 334 707 q 430 666 404 686 q 471 617 456 646 q 486 553 486 588 q 473 489 486 518 q 439 436 460 459 q 391 396 418 413 q 338 371 365 379 q 402 361 369 371 q 461 331 434 352 q 506 277 488 310 q 524 199 524 244 z "},"4":{"ha":613,"x_min":22,"x_max":576,"o":"m 576 133 l 465 133 l 465 0 l 359 0 l 359 133 l 55 133 l 22 194 q 168 443 96 315 q 305 704 239 571 l 408 704 l 422 675 q 251 380 321 494 q 114 194 181 265 l 361 204 l 371 371 l 465 377 l 465 208 l 576 212 l 576 133 z "},"5":{"ha":592,"x_min":49,"x_max":531,"o":"m 80 120 q 152 78 111 95 q 242 60 193 60 q 362 103 315 60 q 409 221 409 145 q 370 331 409 288 q 261 373 332 373 q 202 365 233 373 q 139 340 170 357 l 97 370 l 118 694 l 496 694 l 485 608 l 191 608 l 173 408 q 240 439 205 430 q 309 447 275 447 q 471 389 412 447 q 531 234 531 331 q 511 133 531 179 q 457 55 492 87 q 374 5 423 23 q 266 -13 325 -13 q 138 13 194 -13 q 49 76 81 39 l 80 120 z "},"6":{"ha":635,"x_min":66,"x_max":577,"o":"m 577 233 q 559 135 577 181 q 508 57 540 90 q 428 6 475 25 q 325 -13 381 -13 q 218 8 266 -13 q 136 70 170 29 q 84 170 103 110 q 66 307 66 230 q 88 467 66 393 q 153 594 111 541 q 256 677 195 647 q 391 707 316 707 q 473 697 435 707 q 541 668 511 687 l 523 616 q 468 634 494 628 q 418 639 441 639 q 330 620 369 639 q 261 568 290 602 q 214 487 232 534 q 189 384 195 440 q 267 433 219 417 q 364 448 315 448 q 453 432 413 448 q 519 388 492 416 q 562 320 547 360 q 577 233 577 280 m 332 47 q 389 60 364 47 q 430 95 414 73 q 455 148 446 118 q 463 214 463 179 q 426 332 463 288 q 326 376 389 376 q 253 365 293 376 q 185 332 213 354 q 185 327 185 329 q 185 321 185 324 l 185 286 q 194 190 185 234 q 222 114 204 146 q 268 65 240 83 q 332 47 295 47 z "},"7":{"ha":569,"x_min":50,"x_max":542,"o":"m 461 615 l 307 615 q 234 612 266 615 q 183 606 203 610 q 159 597 168 603 q 145 577 150 591 l 112 468 l 52 466 q 54 586 50 526 q 68 694 59 645 l 513 694 l 542 628 q 456 504 496 571 q 385 358 416 436 q 333 191 354 281 q 304 0 312 101 l 201 0 l 183 23 q 217 190 192 107 q 279 350 242 274 q 362 494 316 426 q 461 615 409 562 z "},"8":{"ha":642,"x_min":62,"x_max":579,"o":"m 317 -13 q 216 0 263 -13 q 135 36 169 12 q 81 94 101 60 q 62 173 62 129 q 102 286 62 236 q 211 358 142 335 q 131 427 165 386 q 98 527 98 468 q 115 600 98 567 q 162 657 132 634 q 235 694 192 681 q 328 707 277 707 q 417 695 376 707 q 487 662 458 683 q 533 611 516 640 q 549 545 549 581 q 511 442 549 488 q 414 374 472 395 q 478 339 447 357 q 531 297 508 320 q 566 246 553 275 q 579 181 579 218 q 560 101 579 137 q 506 40 540 65 q 423 1 471 15 q 317 -13 374 -13 m 201 551 q 213 502 201 523 q 246 464 225 481 q 296 431 268 446 q 358 401 325 416 q 425 460 403 426 q 446 535 446 494 q 412 620 446 589 q 321 651 378 651 q 232 622 263 651 q 201 551 201 593 m 326 45 q 427 77 389 45 q 464 160 464 109 q 450 213 464 190 q 415 252 437 235 q 363 283 392 269 q 303 311 334 296 q 282 320 292 315 q 261 330 271 325 q 192 266 214 305 q 169 183 169 227 q 182 122 169 148 q 216 79 194 96 q 266 54 237 62 q 326 45 294 45 z "},"9":{"ha":634,"x_min":57,"x_max":568,"o":"m 310 318 q 383 330 344 318 q 449 362 422 342 q 449 364 449 363 q 449 367 449 366 l 449 408 q 440 499 449 456 q 413 576 431 543 q 366 628 394 608 q 300 647 338 647 q 244 634 268 647 q 204 598 220 621 q 179 544 187 575 q 171 479 171 514 q 208 362 171 407 q 310 318 244 318 m 260 -13 q 163 2 209 -13 q 90 40 117 16 l 113 89 q 167 66 135 77 q 238 56 199 56 q 380 124 325 56 q 446 310 435 191 q 370 263 418 280 q 272 246 323 246 q 182 262 222 246 q 114 307 142 278 q 72 374 87 335 q 57 460 57 414 q 75 559 57 513 q 126 637 93 604 q 205 688 158 670 q 310 707 252 707 q 416 686 368 707 q 498 624 465 665 q 550 522 531 583 q 568 383 568 462 q 546 219 568 293 q 484 95 524 146 q 387 15 444 43 q 260 -13 329 -13 z "},"\u0000":{"ha":0,"x_min":0,"x_max":0,"o":""},"\r":{"ha":0,"x_min":0,"x_max":0,"o":""}," ":{"ha":299,"x_min":0,"x_max":0,"o":""}," ":{"ha":299,"x_min":0,"x_max":0,"o":""}," ":{"ha":588,"x_min":0,"x_max":0,"o":""}," ":{"ha":963,"x_min":0,"x_max":0,"o":""}," ":{"ha":174,"x_min":0,"x_max":0,"o":""},"A":{"ha":781,"x_min":1,"x_max":781,"o":"m 502 303 l 367 689 l 240 303 l 502 303 m 264 52 l 264 0 l 1 0 l 1 52 l 63 66 q 82 75 74 69 q 93 93 89 82 l 334 791 l 442 791 l 693 93 q 705 76 697 82 q 723 66 712 69 l 781 52 l 781 0 l 482 0 l 482 52 l 582 70 l 523 241 l 220 241 l 164 70 l 264 52 z "},"B":{"ha":760,"x_min":55,"x_max":704,"o":"m 383 -6 q 344 -5 362 -6 q 306 -3 325 -4 q 266 -1 287 -2 q 216 0 244 0 l 55 0 l 55 52 l 139 67 q 156 76 149 69 q 162 94 162 84 l 162 692 q 156 710 162 703 q 140 720 150 718 l 55 736 l 55 789 l 218 789 q 305 793 265 789 q 389 796 344 796 q 590 749 531 796 q 649 612 649 701 q 613 488 649 540 q 508 420 576 437 q 651 367 597 418 q 704 232 704 317 q 688 138 704 182 q 636 63 673 94 q 537 12 598 31 q 383 -6 475 -6 m 274 737 l 274 439 q 339 438 307 438 q 388 438 371 438 q 499 478 461 438 q 538 598 538 517 q 500 708 538 672 q 371 743 463 743 q 314 740 341 743 q 274 737 287 737 m 380 49 q 535 92 488 49 q 582 220 582 135 q 539 341 582 305 q 406 378 496 378 q 346 378 383 378 q 274 377 309 377 l 274 57 q 325 52 294 54 q 380 49 356 49 z "},"C":{"ha":726,"x_min":63,"x_max":666,"o":"m 423 -14 q 264 13 332 -14 q 152 90 196 40 q 85 215 107 141 q 63 380 63 288 q 90 564 63 485 q 166 696 117 643 q 286 775 215 748 q 442 802 356 802 q 552 792 491 802 q 664 764 612 783 q 663 669 666 720 q 653 570 660 619 l 587 570 l 563 683 q 555 704 561 695 q 537 719 548 712 q 488 736 521 728 q 418 744 455 744 q 252 662 313 744 q 190 399 190 580 q 203 255 190 321 q 243 142 216 189 q 314 69 271 95 q 419 43 358 43 q 485 52 453 43 q 539 74 518 60 q 555 89 549 80 q 565 110 561 97 l 599 214 l 665 208 q 663 118 666 166 q 652 26 660 71 q 546 -3 608 8 q 423 -14 484 -14 z "},"D":{"ha":843,"x_min":55,"x_max":781,"o":"m 217 789 q 310 793 266 789 q 401 796 354 796 q 688 699 596 796 q 781 417 781 602 q 753 232 781 312 q 674 97 725 151 q 550 17 623 44 q 387 -8 477 -10 q 307 -4 354 -7 q 219 0 260 0 l 55 0 l 55 52 l 136 66 q 156 76 149 68 q 162 96 162 84 l 162 692 q 156 710 162 703 q 140 720 150 718 l 55 736 l 55 789 l 217 789 m 275 59 q 333 52 296 54 q 397 50 369 49 q 591 135 522 54 q 660 398 660 217 q 590 657 660 574 q 377 740 520 740 q 318 737 344 740 q 275 733 291 734 l 275 59 z "},"E":{"ha":709,"x_min":55,"x_max":663,"o":"m 615 595 l 559 595 l 535 690 q 525 709 532 702 q 506 720 518 716 q 461 730 489 727 q 401 732 434 732 l 275 732 l 275 435 l 521 444 l 521 366 l 275 373 l 275 62 l 430 62 q 493 64 463 62 q 541 73 524 67 q 559 85 553 78 q 569 103 565 92 l 607 213 l 663 205 q 657 104 662 156 q 641 0 651 52 l 55 0 l 55 52 l 136 66 q 156 77 149 69 q 162 98 162 85 l 162 689 q 155 710 162 702 q 136 721 148 718 l 55 736 l 55 789 l 616 789 q 619 694 620 742 q 615 595 619 646 z "},"F":{"ha":654,"x_min":55,"x_max":620,"o":"m 521 356 l 275 362 l 275 96 q 282 77 275 85 q 299 68 288 69 l 428 52 l 428 0 l 55 0 l 55 52 l 136 66 q 156 77 149 69 q 162 97 162 85 l 162 689 q 155 710 162 702 q 136 721 148 718 l 55 736 l 55 789 l 616 789 q 619 694 620 742 q 615 595 619 646 l 559 595 l 535 690 q 525 709 532 702 q 506 720 518 716 q 461 730 489 727 q 401 732 434 732 l 275 732 l 275 425 l 521 433 l 521 356 z "},"G":{"ha":805,"x_min":63,"x_max":760,"o":"m 673 -5 l 607 62 q 518 7 570 26 q 402 -13 467 -13 q 255 16 319 -13 q 149 97 191 45 q 84 223 106 149 q 63 386 63 297 q 91 568 63 489 q 170 698 119 646 q 294 776 222 749 q 455 802 367 802 q 578 790 517 802 q 690 752 639 778 q 689 664 692 708 q 680 575 686 620 l 613 575 l 590 677 q 581 700 586 691 q 564 716 575 709 q 510 737 544 728 q 435 745 476 745 q 337 724 382 745 q 259 661 291 704 q 209 552 227 618 q 191 397 191 486 q 204 263 191 325 q 247 156 218 201 q 323 85 276 111 q 436 59 370 59 q 519 71 479 59 q 589 109 558 82 l 589 328 l 449 339 l 449 399 l 760 399 l 760 339 l 699 329 l 699 7 l 673 -5 z "},"H":{"ha":921,"x_min":55,"x_max":866,"o":"m 866 789 l 866 736 l 785 721 q 766 710 773 718 q 759 688 759 701 l 759 98 q 766 77 759 85 q 785 67 772 69 l 866 52 l 866 0 l 551 0 l 551 52 l 620 66 q 640 77 633 69 q 646 98 646 85 l 646 372 l 275 372 l 275 98 q 281 77 275 85 q 301 66 288 69 l 375 52 l 375 0 l 55 0 l 55 52 l 136 67 q 156 77 149 69 q 162 98 162 85 l 162 688 q 155 710 162 702 q 136 721 148 718 l 55 736 l 55 789 l 375 789 l 375 736 l 300 721 q 281 710 287 718 q 275 689 275 702 l 275 436 l 646 436 l 646 689 q 640 710 646 702 q 621 721 633 718 l 551 736 l 551 789 l 866 789 z "},"I":{"ha":437,"x_min":55,"x_max":381,"o":"m 381 789 l 381 736 l 301 721 q 282 710 288 718 q 275 689 275 702 l 275 98 q 281 77 275 85 q 301 66 288 69 l 381 52 l 381 0 l 55 0 l 55 52 l 136 66 q 156 77 149 69 q 162 98 162 85 l 162 689 q 155 710 162 702 q 136 721 148 718 l 55 736 l 55 789 l 381 789 z "},"J":{"ha":409,"x_min":-4,"x_max":360,"o":"m 289 721 q 270 710 277 718 q 263 689 263 702 l 263 215 q 255 65 263 127 q 222 -42 247 3 q 149 -122 197 -87 q 22 -191 101 -157 l -4 -141 q 74 -76 44 -107 q 121 -8 104 -45 q 145 77 138 29 q 151 194 151 126 l 151 689 q 144 710 151 702 q 125 721 137 718 l 44 736 l 44 789 l 360 789 l 360 736 l 289 721 z "},"K":{"ha":802,"x_min":55,"x_max":795,"o":"m 387 52 l 387 0 l 55 0 l 55 52 l 135 67 q 155 77 147 69 q 162 97 162 84 l 162 689 q 155 710 162 703 q 135 721 148 718 l 55 736 l 55 789 l 381 789 l 381 736 l 301 721 q 281 710 288 718 q 274 689 274 702 l 274 357 l 589 718 l 498 736 l 497 789 l 772 789 l 772 737 l 701 721 q 682 714 690 718 q 666 702 674 710 l 456 471 q 506 404 481 441 q 563 313 530 367 l 690 105 q 712 78 702 86 q 739 65 721 69 l 795 52 l 795 0 l 634 0 q 595 30 617 0 q 543 112 572 60 l 456 268 q 418 336 435 306 q 383 390 400 365 l 274 270 l 274 97 q 281 76 274 83 q 302 67 288 69 l 387 52 z "},"L":{"ha":690,"x_min":55,"x_max":660,"o":"m 559 104 l 602 241 l 660 233 q 654 117 659 179 q 638 0 649 55 l 55 0 l 55 52 l 136 66 q 156 76 149 68 q 162 97 162 84 l 162 689 q 156 711 162 703 q 136 721 149 719 l 55 736 l 55 789 l 406 789 l 406 736 l 301 720 q 281 710 288 718 q 274 689 274 702 l 274 62 l 418 62 q 483 65 454 62 q 529 74 512 68 q 548 85 541 78 q 559 104 555 92 z "},"M":{"ha":1102,"x_min":32,"x_max":1079,"o":"m 313 52 l 313 0 l 32 0 l 32 52 l 108 66 q 127 76 120 68 q 135 96 134 84 l 207 687 q 202 710 209 701 q 182 721 196 719 l 91 736 l 91 789 l 365 789 l 556 198 l 723 789 l 998 789 l 998 736 l 906 721 q 886 709 892 718 q 882 686 880 701 l 976 96 q 985 76 978 84 q 1004 66 992 68 l 1079 52 l 1079 0 l 772 0 l 772 52 l 867 68 l 769 689 l 581 33 l 501 33 l 281 689 l 209 68 l 313 52 z "},"N":{"ha":898,"x_min":55,"x_max":849,"o":"m 353 52 l 353 0 l 55 0 l 55 52 l 136 66 q 156 77 149 69 q 162 98 162 85 l 162 689 q 155 710 162 702 q 136 721 148 718 l 55 736 l 55 789 l 275 789 l 678 173 l 678 689 q 671 710 678 702 q 652 721 665 718 l 566 736 l 566 789 l 849 789 l 849 736 l 778 721 q 758 710 765 718 q 752 689 752 702 l 752 0 l 658 0 l 235 644 l 235 98 q 242 76 235 84 q 262 66 248 68 l 353 52 z "},"O":{"ha":809,"x_min":63,"x_max":746,"o":"m 391 -13 q 248 14 310 -13 q 145 93 186 42 q 84 217 105 144 q 63 382 63 291 q 89 561 63 483 q 160 693 114 640 q 272 774 207 746 q 418 802 338 802 q 561 774 499 802 q 664 696 623 746 q 725 572 705 645 q 746 408 746 498 q 721 229 746 308 q 650 97 696 151 q 538 15 604 43 q 391 -13 472 -13 m 406 742 q 245 656 303 742 q 187 393 187 570 q 241 135 187 224 q 403 47 295 47 q 563 134 506 47 q 621 397 621 221 q 567 654 621 567 q 406 742 514 742 z "},"P":{"ha":713,"x_min":55,"x_max":673,"o":"m 373 359 q 442 369 409 359 q 500 404 475 380 q 540 469 525 428 q 555 572 555 511 q 510 702 555 663 q 374 740 465 740 q 316 738 339 740 q 275 734 293 735 l 275 363 q 321 360 299 361 q 373 359 343 359 m 423 52 l 423 0 l 55 0 l 55 52 l 137 66 q 156 76 149 68 q 162 96 162 84 l 162 691 q 156 709 162 701 q 140 720 150 718 l 55 736 l 55 789 l 219 789 q 261 790 242 789 q 300 792 280 791 q 343 795 319 794 q 399 796 366 796 q 530 781 477 796 q 614 737 583 766 q 659 667 646 709 q 673 573 673 625 q 651 458 673 509 q 589 373 628 408 q 494 320 549 338 q 373 302 438 302 q 324 303 348 302 q 275 306 299 305 l 275 96 q 282 77 275 85 q 299 68 288 69 l 423 52 z "},"Q":{"ha":809,"x_min":63,"x_max":824,"o":"m 698 -210 q 605 -186 644 -210 q 532 -130 565 -162 q 465 -64 498 -97 q 389 -13 431 -31 q 247 15 309 -13 q 145 94 186 43 q 84 218 105 145 q 63 382 63 291 q 89 561 63 482 q 160 692 114 639 q 272 773 207 745 q 418 802 338 802 q 561 774 499 802 q 664 695 623 746 q 725 571 705 644 q 746 408 746 498 q 681 142 746 246 q 505 3 616 38 q 556 -23 532 -8 q 602 -55 579 -38 q 678 -103 640 -82 q 765 -124 716 -124 q 790 -123 778 -124 q 812 -121 803 -123 l 824 -169 q 774 -196 809 -182 q 698 -210 739 -210 m 406 742 q 244 657 302 742 q 186 393 186 572 q 240 134 186 222 q 403 47 294 47 q 564 133 506 47 q 622 397 622 219 q 568 655 622 569 q 406 742 514 742 z "},"R":{"ha":787,"x_min":55,"x_max":771,"o":"m 274 734 l 274 405 q 311 403 291 404 q 348 403 330 403 q 382 403 367 403 q 406 403 397 403 q 510 446 470 403 q 551 580 551 489 q 513 698 551 657 q 372 740 475 740 q 315 738 342 740 q 274 734 288 735 m 387 52 l 387 0 l 55 0 l 55 52 l 135 67 q 155 77 147 69 q 162 97 162 84 l 162 689 q 155 710 162 703 q 135 721 148 718 l 55 736 l 55 789 l 218 789 q 301 793 262 789 q 390 796 340 796 q 607 745 542 796 q 671 587 671 693 q 654 489 671 529 q 612 423 637 448 q 557 384 587 397 q 501 364 527 370 q 551 317 529 345 q 594 246 572 288 l 670 101 q 688 75 679 82 q 715 64 697 68 l 771 52 l 771 0 l 615 0 q 571 33 591 0 q 525 122 552 67 l 475 230 q 439 298 457 267 q 404 347 422 329 q 332 347 366 347 q 274 347 298 347 l 274 97 q 281 76 274 83 q 302 67 288 69 l 387 52 z "},"S":{"ha":647,"x_min":66,"x_max":590,"o":"m 590 210 q 574 127 590 168 q 524 55 558 86 q 439 3 491 23 q 316 -17 387 -17 q 172 4 236 -17 q 68 49 108 25 q 69 148 66 97 q 78 246 71 198 l 145 246 l 164 128 q 169 111 165 120 q 182 93 173 102 q 239 56 202 73 q 324 39 277 39 q 437 76 398 39 q 475 175 475 113 q 462 237 475 211 q 426 284 449 264 q 369 321 403 304 q 296 357 336 338 q 221 394 260 374 q 152 441 183 414 q 101 506 121 469 q 81 595 81 544 q 98 678 81 640 q 147 744 115 716 q 228 787 179 771 q 340 803 276 803 q 451 791 395 803 q 547 761 508 780 q 548 664 551 711 q 539 573 546 617 l 475 573 l 455 677 q 448 696 453 686 q 433 713 443 705 q 387 737 418 727 q 322 747 357 747 q 222 716 256 747 q 187 629 187 685 q 200 570 187 595 q 236 526 212 546 q 294 488 260 506 q 373 448 329 470 q 453 407 414 429 q 522 358 492 385 q 571 294 553 330 q 590 210 590 258 z "},"T":{"ha":765,"x_min":37,"x_max":726,"o":"m 584 0 l 181 0 l 181 52 l 299 70 q 319 79 313 72 q 326 100 326 87 l 326 732 l 267 732 q 206 729 233 732 q 164 721 178 726 q 145 710 152 717 q 136 691 139 703 l 103 548 l 42 548 q 39 671 37 613 q 48 789 41 729 l 719 789 q 726 670 725 729 q 721 548 726 612 l 661 548 l 628 691 q 619 710 626 703 q 602 721 613 717 q 560 729 586 726 q 499 732 534 732 l 438 732 l 438 100 q 445 79 438 87 q 466 70 453 72 l 584 52 l 584 0 z "},"U":{"ha":854,"x_min":51,"x_max":805,"o":"m 526 789 l 805 789 l 805 736 l 743 722 q 724 710 731 719 q 718 689 718 702 l 718 291 q 640 61 718 132 q 423 -11 562 -11 q 204 67 274 -11 q 134 303 134 145 l 134 689 q 128 710 134 702 q 109 722 122 718 l 51 736 l 51 789 l 365 789 l 365 736 l 276 720 q 257 710 264 718 q 250 688 250 701 l 250 291 q 302 101 250 156 q 443 46 355 46 q 593 108 547 46 q 639 285 639 170 l 639 689 q 633 710 639 702 q 614 721 626 719 l 526 736 l 526 789 z "},"V":{"ha":780,"x_min":-5,"x_max":776,"o":"m 448 -3 l 346 -3 l 83 694 q 72 711 79 705 q 54 721 65 717 l -5 736 l -5 789 l 299 789 l 299 736 l 195 716 l 416 111 l 613 716 l 510 736 l 510 789 l 776 789 l 776 736 l 715 721 q 696 711 704 717 q 684 694 688 705 l 448 -3 z "},"W":{"ha":1132,"x_min":-1,"x_max":1127,"o":"m 726 -5 l 568 525 l 415 -5 l 309 -5 l 88 693 q 78 711 85 704 q 59 721 70 718 l -1 736 l -1 789 l 302 789 l 302 736 l 201 716 l 380 113 l 533 634 l 513 693 q 502 711 509 704 q 483 721 494 717 l 432 736 l 432 789 l 726 789 l 726 736 l 623 716 l 797 115 l 967 716 l 865 736 l 865 789 l 1127 789 l 1127 736 l 1065 721 q 1046 712 1054 718 q 1035 692 1039 706 l 832 -5 l 726 -5 z "},"X":{"ha":759,"x_min":13,"x_max":747,"o":"m 290 52 l 290 0 l 13 0 l 13 52 l 82 66 q 100 73 93 69 q 114 88 108 78 l 323 387 l 119 697 q 106 712 113 707 q 88 721 98 718 l 30 736 l 30 789 l 339 789 l 339 736 l 241 718 l 398 466 l 563 718 l 471 736 l 471 789 l 727 789 l 727 736 l 664 721 q 646 713 654 718 q 632 698 639 708 l 436 417 l 655 88 q 669 74 662 79 q 687 66 677 69 l 747 52 l 747 0 l 437 0 l 437 52 l 533 69 l 363 336 l 187 69 l 290 52 z "},"Y":{"ha":742,"x_min":-4,"x_max":733,"o":"m 557 0 l 194 0 l 194 52 l 291 70 q 312 79 305 72 q 319 100 319 87 l 319 303 l 92 697 q 79 713 86 707 q 60 721 71 718 l -4 736 l -4 789 l 305 789 l 305 736 l 212 718 l 397 384 l 568 718 l 473 736 l 473 789 l 733 789 l 733 736 l 671 722 q 652 714 660 720 q 639 699 644 709 l 432 302 l 432 100 q 439 79 432 87 q 460 70 446 72 l 557 52 l 557 0 z "},"Z":{"ha":690,"x_min":34,"x_max":630,"o":"m 613 0 l 61 0 l 34 46 l 488 731 l 323 731 q 259 729 288 731 q 212 720 230 726 q 194 708 201 716 q 183 690 187 701 l 148 564 l 86 564 q 87 677 84 618 q 98 789 91 736 l 606 789 l 629 744 l 179 62 l 388 62 q 452 64 423 62 q 499 74 481 67 q 517 85 510 78 q 528 104 524 92 l 569 238 l 630 231 q 629 176 630 206 q 626 115 628 146 q 620 55 624 85 q 613 0 617 25 z "},"a":{"ha":609,"x_min":49,"x_max":580,"o":"m 250 60 q 324 73 286 60 q 387 109 361 87 l 387 244 l 291 235 q 197 208 230 230 q 165 138 165 185 q 186 80 165 101 q 250 60 207 60 m 483 -9 q 424 10 447 -9 q 391 64 401 28 q 312 9 360 29 q 211 -12 265 -12 q 146 -3 176 -12 q 95 24 117 7 q 61 67 74 41 q 49 127 49 93 q 69 201 49 171 q 121 248 89 230 q 193 276 154 267 q 271 288 233 285 l 387 297 l 387 366 q 356 475 387 443 q 262 507 325 507 q 171 491 214 507 q 92 441 128 475 l 66 467 q 97 518 76 496 q 149 556 119 541 q 215 579 178 571 q 292 587 252 587 q 443 536 392 587 q 493 381 493 485 l 493 95 q 501 71 493 79 q 522 63 508 64 l 580 58 l 580 10 q 538 -2 568 5 q 483 -9 508 -9 z "},"b":{"ha":655,"x_min":-8,"x_max":598,"o":"m 296 -12 q 177 3 232 -12 q 94 28 121 17 l 94 791 q 87 812 94 805 q 67 822 80 820 l -8 833 l -8 879 q 89 899 36 892 q 186 908 142 907 l 203 892 l 203 520 q 275 571 233 552 q 373 590 317 590 q 461 574 420 590 q 533 526 503 559 q 581 440 563 492 q 598 316 598 388 q 578 180 598 240 q 521 77 559 119 q 426 11 483 34 q 296 -12 370 -12 m 305 45 q 435 103 389 45 q 481 287 480 161 q 441 465 483 414 q 329 516 399 516 q 260 504 291 516 q 203 471 228 492 l 203 70 q 246 53 222 60 q 305 45 271 45 z "},"c":{"ha":570,"x_min":56,"x_max":518,"o":"m 56 281 q 74 404 56 347 q 127 502 92 461 q 214 567 162 543 q 335 590 267 590 q 432 579 383 590 q 511 554 481 569 q 511 468 514 514 q 501 383 508 423 l 445 383 l 424 468 q 417 492 421 482 q 403 510 413 502 q 370 527 390 520 q 324 533 349 533 q 214 476 253 533 q 175 304 175 419 q 219 123 175 183 q 342 63 263 63 q 427 82 389 63 q 487 126 464 101 l 518 98 q 440 18 494 48 q 311 -12 385 -12 q 200 10 248 -12 q 120 71 152 32 q 72 164 88 110 q 56 281 56 218 z "},"d":{"ha":685,"x_min":57,"x_max":649,"o":"m 324 62 q 395 75 362 62 q 454 109 428 87 l 454 506 q 407 524 436 516 q 346 531 378 531 q 279 519 311 531 q 224 480 247 508 q 187 405 201 452 q 174 288 174 358 q 186 179 174 223 q 218 109 198 135 q 266 73 239 83 q 324 62 293 62 m 552 -9 q 489 13 511 -9 q 459 66 467 34 q 386 11 430 33 q 284 -12 342 -12 q 197 5 238 -12 q 124 55 155 21 q 75 143 93 89 q 57 272 57 197 q 79 412 57 352 q 139 512 100 472 q 232 570 177 551 q 352 590 286 590 q 407 586 380 590 q 454 578 433 583 l 454 791 q 447 813 454 805 q 427 822 439 820 l 350 833 l 350 879 q 397 891 372 886 q 448 899 422 896 q 499 905 474 903 q 546 908 525 908 l 562 892 l 562 95 q 570 71 562 78 q 591 63 579 64 l 649 58 l 649 10 q 604 -2 632 4 q 552 -9 576 -9 z "},"e":{"ha":595,"x_min":56,"x_max":537,"o":"m 311 532 q 221 495 257 532 q 174 375 185 457 l 428 375 q 429 386 429 380 q 430 398 430 392 q 399 495 430 458 q 311 532 368 532 m 536 125 q 457 26 516 64 q 312 -12 398 -12 q 199 10 247 -12 q 119 71 151 32 q 72 164 87 110 q 56 281 56 218 q 75 411 56 354 q 130 508 94 469 q 215 569 165 548 q 326 590 265 590 q 412 577 373 590 q 479 539 451 564 q 522 477 507 515 q 537 391 537 440 q 536 357 537 377 q 532 321 534 337 l 170 321 q 170 314 170 318 q 170 306 170 310 q 183 191 170 237 q 219 116 196 144 q 273 76 242 88 q 341 64 305 64 q 433 86 390 64 q 499 146 475 108 l 536 125 z "},"f":{"ha":448,"x_min":40,"x_max":508,"o":"m 141 631 q 162 740 141 689 q 217 828 183 790 q 293 886 251 865 q 379 908 336 908 q 445 896 413 908 q 508 868 478 885 l 490 798 q 429 806 461 803 q 374 809 397 810 q 278 780 308 809 q 248 675 248 751 l 248 574 l 420 574 l 420 503 l 248 503 l 248 91 q 256 70 248 78 q 277 62 263 63 l 384 52 l 384 0 l 51 0 l 51 52 l 113 61 q 133 70 126 63 q 140 91 140 78 l 140 499 l 40 512 l 40 560 l 141 574 l 141 631 z "},"g":{"ha":646,"x_min":46,"x_max":622,"o":"m 178 393 q 208 281 178 320 q 305 242 238 242 q 392 276 362 242 q 422 387 422 310 q 391 499 422 464 q 297 534 361 534 q 213 506 247 534 q 178 393 178 477 m 604 -62 q 581 -152 604 -111 q 515 -220 557 -192 q 415 -263 473 -248 q 287 -279 357 -279 q 107 -235 168 -279 q 46 -119 46 -191 q 74 -35 46 -68 q 144 19 102 -1 q 107 53 119 32 q 94 103 94 74 q 116 169 94 143 q 169 210 138 194 q 94 276 121 233 q 67 381 67 320 q 86 473 67 434 q 138 539 106 513 q 215 577 171 564 q 310 590 260 590 q 399 578 359 590 q 468 541 439 565 q 517 578 493 565 q 565 590 540 590 q 593 588 578 590 q 622 581 609 585 l 622 499 l 505 499 q 525 452 518 478 q 532 396 532 426 q 466 243 532 301 q 290 186 401 186 q 250 189 270 186 q 213 195 230 191 q 190 171 198 185 q 182 138 182 157 q 209 95 182 108 q 295 82 235 82 l 420 82 q 558 44 511 82 q 604 -62 604 6 m 308 -219 q 445 -185 391 -219 q 498 -82 498 -151 q 476 -23 498 -44 q 389 -2 454 -2 l 260 -2 q 224 -1 241 -2 q 193 3 208 1 q 164 -41 176 -16 q 153 -102 153 -67 q 186 -186 153 -152 q 308 -219 219 -219 z "},"h":{"ha":721,"x_min":23,"x_max":693,"o":"m 315 52 l 315 0 l 35 0 l 35 52 l 97 61 q 118 71 111 63 q 125 92 125 78 l 125 793 q 117 814 125 806 q 97 823 110 821 l 23 834 l 23 880 q 69 892 44 887 q 120 900 94 897 q 170 906 145 904 q 217 908 195 908 l 233 891 l 233 511 q 326 570 274 553 q 430 588 377 588 q 567 529 530 588 q 603 366 603 471 l 603 92 q 610 71 603 79 q 631 61 618 63 l 693 52 l 693 0 l 413 0 l 413 52 l 468 61 q 487 70 480 63 q 495 92 495 78 l 495 346 q 472 471 495 430 q 384 512 449 512 q 305 500 344 512 q 233 463 266 488 l 233 92 q 240 71 233 78 q 260 61 247 64 l 315 52 z "},"i":{"ha":372,"x_min":42,"x_max":337,"o":"m 247 571 l 247 93 q 255 71 247 79 q 275 61 262 63 l 337 52 l 337 0 l 49 0 l 49 52 l 112 61 q 132 71 125 63 q 139 92 139 79 l 139 469 q 133 490 139 482 q 113 501 126 498 l 42 511 l 42 560 q 137 580 86 573 q 231 587 188 586 l 247 571 m 256 743 q 235 691 256 711 q 181 670 214 670 q 127 691 147 670 q 106 743 106 711 q 127 795 106 775 q 181 816 147 816 q 235 795 214 816 q 256 743 256 775 z "},"j":{"ha":336,"x_min":-24,"x_max":235,"o":"m 219 587 l 235 571 l 235 61 q 231 -33 235 7 q 217 -100 227 -72 q 193 -150 208 -129 q 156 -189 178 -171 q 83 -236 124 -217 q 1 -269 42 -255 l -24 -220 q 51 -164 21 -191 q 97 -106 80 -137 q 121 -34 114 -74 q 127 62 127 6 l 128 469 q 121 490 128 482 q 101 501 114 498 l 31 511 l 31 560 q 125 580 74 573 q 219 587 176 586 m 234 743 q 213 691 234 711 q 159 670 192 670 q 105 691 126 670 q 84 743 84 711 q 105 795 84 775 q 159 816 126 816 q 213 795 192 816 q 234 743 234 775 z "},"k":{"ha":678,"x_min":23,"x_max":662,"o":"m 322 52 l 322 0 l 35 0 l 35 52 l 97 61 q 118 71 111 63 q 125 92 125 79 l 125 791 q 118 813 125 805 q 97 822 111 820 l 23 833 l 23 879 q 120 899 67 892 q 217 908 173 907 l 233 892 l 233 261 l 460 509 l 359 525 l 359 574 l 635 574 l 635 525 l 574 512 q 550 505 560 509 q 531 491 540 501 l 401 357 q 428 318 416 337 q 455 273 441 298 l 560 96 q 578 75 569 82 q 598 65 587 68 l 662 52 l 662 0 l 509 0 q 471 24 488 0 q 434 87 455 48 l 377 196 q 352 242 364 220 q 329 282 340 263 l 233 181 l 233 92 q 240 71 233 79 q 260 61 247 63 l 322 52 z "},"l":{"ha":363,"x_min":23,"x_max":336,"o":"m 236 892 l 236 92 q 243 71 236 78 q 263 61 250 63 l 336 51 l 336 0 l 27 0 l 27 52 l 100 61 q 120 71 113 63 q 128 91 128 78 l 128 791 q 120 813 128 805 q 100 822 113 820 l 23 833 l 23 879 q 70 891 45 886 q 121 899 95 896 q 173 905 147 903 q 220 908 198 908 l 236 892 z "},"m":{"ha":1076,"x_min":42,"x_max":1048,"o":"m 329 52 l 329 0 l 49 0 l 49 52 l 112 61 q 132 71 125 63 q 139 92 139 79 l 139 469 q 133 490 139 482 q 113 501 126 498 l 42 510 l 42 560 q 130 580 83 573 q 218 587 177 586 l 235 569 l 243 509 q 332 570 281 553 q 432 588 382 588 q 528 566 492 588 q 581 505 564 545 q 678 570 626 553 q 780 588 730 588 q 921 530 883 588 q 958 361 958 472 l 958 92 q 965 71 958 79 q 985 61 973 63 l 1048 52 l 1048 0 l 768 0 l 768 52 l 823 61 q 842 70 835 63 q 850 92 850 78 l 850 345 q 826 472 850 432 q 734 512 802 512 q 663 501 699 512 q 593 465 627 490 q 601 419 598 444 q 603 366 603 394 l 603 92 q 610 71 603 79 q 630 61 617 64 l 684 52 l 684 0 l 413 0 l 413 52 l 467 61 q 487 70 479 63 q 494 92 494 78 l 494 346 q 475 471 494 430 q 390 512 456 512 q 317 501 356 512 q 247 466 279 489 l 247 92 q 254 71 247 79 q 274 61 261 64 l 329 52 z "},"n":{"ha":735,"x_min":42,"x_max":707,"o":"m 330 52 l 330 0 l 49 0 l 49 52 l 112 61 q 132 71 125 63 q 139 92 139 79 l 139 469 q 133 490 139 482 q 113 501 126 498 l 42 511 l 42 560 q 130 580 83 573 q 218 587 177 586 l 235 569 l 243 507 q 337 570 285 552 q 444 588 390 588 q 581 529 544 588 q 617 366 617 471 l 617 92 q 624 71 617 79 q 644 61 632 63 l 707 52 l 707 0 l 427 0 l 427 52 l 482 61 q 501 70 493 63 q 509 92 509 78 l 509 346 q 486 471 509 430 q 398 512 464 512 q 319 500 358 512 q 247 463 280 488 l 247 92 q 255 71 247 79 q 274 61 262 64 l 330 52 z "},"o":{"ha":650,"x_min":57,"x_max":593,"o":"m 57 285 q 79 423 57 365 q 138 518 101 481 q 227 572 176 555 q 334 590 277 590 q 451 568 402 590 q 532 508 500 547 q 578 414 563 470 q 593 292 593 359 q 571 155 593 213 q 512 60 549 97 q 424 6 475 23 q 316 -12 373 -12 q 199 9 248 -12 q 119 69 150 31 q 72 163 87 108 q 57 285 57 219 m 474 282 q 466 385 474 339 q 441 464 459 432 q 394 515 424 497 q 321 532 365 532 q 212 476 247 532 q 176 296 176 420 q 184 193 176 239 q 208 114 191 146 q 255 63 226 81 q 329 45 285 45 q 438 102 403 45 q 474 282 474 158 z "},"p":{"ha":687,"x_min":31,"x_max":630,"o":"m 339 45 q 465 100 417 45 q 515 288 513 154 q 479 459 516 402 q 364 516 441 516 q 288 502 321 516 q 235 469 256 487 l 235 70 q 280 52 253 59 q 339 45 307 45 m 347 -199 l 347 -251 l 38 -251 l 38 -199 l 101 -189 q 120 -180 114 -187 q 127 -159 127 -172 l 127 468 q 121 490 127 481 q 102 501 115 498 l 31 511 l 31 560 q 118 579 73 572 q 206 587 163 586 l 224 569 l 231 511 q 302 567 259 544 q 406 590 344 590 q 495 574 454 590 q 566 525 536 558 q 613 439 596 491 q 630 315 630 387 q 610 178 630 239 q 552 75 590 117 q 460 11 515 33 q 336 -12 405 -12 q 286 -8 313 -12 q 235 2 259 -5 l 235 -159 q 242 -180 235 -172 q 263 -189 249 -188 l 347 -199 z "},"q":{"ha":661,"x_min":57,"x_max":633,"o":"m 633 -251 l 339 -251 l 339 -199 l 425 -189 q 445 -180 438 -188 q 453 -159 453 -173 l 453 61 q 382 9 424 30 q 287 -12 340 -12 q 197 5 239 -12 q 123 55 155 21 q 74 143 92 89 q 57 272 57 197 q 78 409 57 349 q 138 509 99 469 q 229 569 176 548 q 346 590 282 590 q 420 581 384 590 q 485 559 457 573 l 540 586 l 561 569 l 561 -159 q 568 -180 561 -172 q 588 -190 575 -188 l 633 -199 l 633 -251 m 324 62 q 394 75 362 62 q 453 109 427 87 l 453 499 q 406 523 433 515 q 348 531 378 531 q 279 519 311 531 q 224 479 247 507 q 187 404 201 451 q 173 291 173 358 q 185 180 173 225 q 218 110 197 136 q 266 73 238 84 q 324 62 293 62 z "},"r":{"ha":541,"x_min":42,"x_max":507,"o":"m 378 50 l 378 0 l 49 0 l 49 52 l 112 61 q 132 71 125 63 q 139 92 139 79 l 139 466 q 133 490 139 481 q 112 501 127 498 l 42 511 l 42 560 q 129 579 82 572 q 215 587 175 586 l 232 571 l 243 478 q 281 520 259 500 q 327 556 303 540 q 380 581 352 571 q 434 590 407 590 q 470 586 450 590 q 503 576 490 583 q 503 480 507 534 q 491 383 500 427 l 438 383 l 423 461 q 412 484 420 478 q 389 491 404 491 q 316 477 354 491 q 247 430 279 462 l 247 92 q 255 70 247 78 q 276 61 262 63 l 378 50 z "},"s":{"ha":540,"x_min":61,"x_max":486,"o":"m 66 31 q 62 112 61 72 q 68 186 63 152 l 125 186 l 145 110 q 154 84 149 93 q 170 68 159 75 q 211 51 183 60 q 274 41 238 41 q 355 65 327 41 q 382 129 382 89 q 372 170 382 154 q 342 201 362 187 q 293 227 322 215 q 226 255 264 240 q 115 319 158 283 q 71 424 71 355 q 87 496 71 465 q 131 548 103 527 q 198 579 159 569 q 284 590 237 590 q 376 580 328 590 q 455 557 424 571 q 454 483 457 521 q 445 409 452 445 l 391 409 l 374 478 q 364 502 370 492 q 345 519 358 511 q 316 531 334 525 q 274 537 298 536 q 201 517 230 537 q 171 455 171 497 q 183 411 171 429 q 213 381 194 394 q 255 359 231 369 q 305 340 279 349 q 372 311 339 327 q 430 274 405 295 q 470 224 455 253 q 486 156 486 195 q 469 84 486 116 q 423 31 453 53 q 353 -2 394 10 q 262 -13 311 -13 q 150 2 202 -13 q 66 31 99 16 z "},"t":{"ha":463,"x_min":32,"x_max":448,"o":"m 119 143 l 119 501 l 32 512 l 32 560 l 96 569 q 117 578 110 571 q 127 597 124 585 l 163 746 l 226 746 l 227 574 l 416 574 l 416 505 l 228 505 l 228 179 q 250 91 228 113 q 311 69 273 69 q 370 80 343 69 q 417 114 397 92 l 448 85 q 378 13 425 38 q 274 -11 331 -11 q 215 -4 243 -11 q 165 20 186 3 q 132 68 144 38 q 119 143 119 97 z "},"u":{"ha":705,"x_min":29,"x_max":669,"o":"m 571 -9 q 509 12 531 -9 q 478 66 487 33 q 402 10 445 31 q 298 -12 358 -12 q 161 41 204 -12 q 119 199 119 93 l 119 470 q 112 491 119 483 q 92 502 106 499 l 29 513 l 29 562 q 120 580 71 574 q 211 587 169 586 l 227 571 l 227 218 q 250 99 227 137 q 337 61 273 61 q 409 73 374 61 q 474 111 443 85 l 474 470 q 467 492 474 483 q 447 502 460 500 l 372 514 l 372 564 q 469 581 415 575 q 566 587 523 587 l 582 571 l 582 95 q 590 71 582 78 q 611 63 598 64 l 669 58 l 669 10 q 624 -2 652 4 q 571 -9 595 -9 z "},"v":{"ha":627,"x_min":9,"x_max":613,"o":"m 270 -9 l 77 487 q 65 504 73 497 q 47 514 58 510 l 9 524 l 9 574 l 280 574 l 280 524 l 192 509 l 340 97 l 480 509 l 394 524 l 394 574 l 613 574 l 613 524 l 575 514 q 556 505 564 511 q 545 487 548 498 l 365 -9 l 270 -9 z "},"w":{"ha":917,"x_min":14,"x_max":902,"o":"m 234 -9 l 76 488 q 65 506 72 499 q 46 515 58 512 l 14 524 l 14 574 l 260 574 l 260 524 l 181 509 l 298 105 l 429 574 l 452 574 l 452 574 l 530 574 l 659 105 l 773 509 l 694 524 l 694 574 l 902 574 l 902 524 l 868 515 q 849 506 857 512 q 838 488 842 499 l 687 -9 l 594 -9 l 459 448 l 329 -9 l 234 -9 z "},"x":{"ha":645,"x_min":24,"x_max":620,"o":"m 266 51 l 266 0 l 24 0 l 24 51 l 74 58 q 93 64 85 60 q 108 77 101 68 l 265 283 l 110 496 q 96 509 104 505 q 77 516 88 514 l 37 525 l 37 574 l 298 574 l 298 525 l 227 512 l 341 346 l 463 512 l 389 525 l 389 574 l 610 574 l 610 525 l 566 516 q 547 509 555 514 q 533 496 539 505 l 380 301 l 545 77 q 560 63 552 68 q 579 57 568 59 l 620 51 l 620 0 l 354 0 l 354 51 l 424 61 l 306 235 l 180 62 l 266 51 z "},"y":{"ha":633,"x_min":14,"x_max":622,"o":"m 141 -261 q 83 -259 113 -261 q 23 -252 52 -256 l 23 -188 q 128 -173 82 -183 q 210 -143 174 -163 q 272 -88 245 -123 q 321 0 299 -54 l 269 0 l 86 485 q 74 503 82 496 q 56 513 67 510 l 14 524 l 14 574 l 287 574 l 287 524 l 201 509 l 352 88 l 485 509 l 403 524 l 403 574 l 622 574 l 622 524 l 581 513 q 561 503 569 509 q 550 484 554 497 l 378 -22 q 282 -203 335 -144 q 141 -261 229 -261 z "},"z":{"ha":587,"x_min":43,"x_max":530,"o":"m 519 0 l 64 0 l 43 45 l 394 520 l 281 520 q 234 519 258 520 q 192 514 210 518 q 169 505 176 511 q 158 484 162 498 l 136 390 l 79 390 q 75 485 75 437 q 79 574 75 533 l 510 574 l 530 529 l 182 57 l 299 57 q 355 58 328 57 q 406 63 382 59 q 429 70 419 65 q 441 90 438 76 l 471 190 l 526 183 q 527 92 529 139 q 519 0 525 44 z "},"'":{"ha":259,"x_min":75,"x_max":185,"o":"m 96 472 l 75 856 l 185 856 l 163 472 l 96 472 z "},"\"":{"ha":527,"x_min":75,"x_max":453,"o":"m 364 472 l 343 856 l 453 856 l 431 472 l 364 472 m 96 472 l 75 856 l 185 856 l 163 472 l 96 472 z "},"#":{"ha":731,"x_min":60,"x_max":673,"o":"m 264 244 l 437 244 l 459 458 l 284 458 l 264 244 m 153 0 l 172 182 l 61 182 l 60 244 l 179 244 l 200 458 l 77 458 l 78 520 l 207 520 l 223 693 l 308 693 l 292 520 l 467 520 l 483 693 l 568 693 l 552 520 l 673 520 l 673 458 l 544 458 l 525 244 l 651 244 l 651 182 l 518 182 l 501 0 l 416 0 l 432 182 l 257 182 l 239 0 l 153 0 z "},"&":{"ha":811,"x_min":56,"x_max":757,"o":"m 227 627 q 243 554 227 595 q 307 444 259 512 q 389 529 357 482 q 422 636 422 576 q 417 681 422 660 q 401 719 412 703 q 372 745 390 735 q 331 755 355 755 q 286 744 306 755 q 254 716 267 733 q 234 675 240 698 q 227 627 227 652 m 322 45 q 401 57 362 45 q 473 91 439 68 q 412 153 443 119 q 350 222 380 187 q 292 290 320 257 q 244 351 265 324 q 186 288 212 324 q 160 197 160 253 q 202 88 160 131 q 322 45 244 45 m 654 -8 q 587 6 620 -8 q 514 55 555 20 q 412 2 469 18 q 299 -14 355 -14 q 205 -2 249 -14 q 128 34 161 10 q 75 96 94 58 q 56 184 56 133 q 70 262 56 229 q 107 321 84 296 q 157 363 129 345 q 214 391 185 380 q 147 503 171 451 q 123 607 123 555 q 137 681 123 646 q 178 743 152 717 q 244 784 205 769 q 331 799 282 799 q 467 755 415 799 q 519 631 519 710 q 469 500 519 555 q 334 408 420 444 q 441 281 381 348 q 553 162 501 214 q 590 245 580 199 q 600 333 600 291 q 597 352 600 342 q 578 365 593 361 l 498 381 l 498 433 l 757 433 l 757 381 l 706 365 q 688 353 691 361 q 682 333 684 346 q 654 223 674 275 q 589 126 634 170 q 628 93 611 106 q 663 75 645 81 q 702 66 680 68 q 756 64 724 64 l 756 13 q 707 -1 734 5 q 654 -8 680 -8 z "},"*":{"ha":609,"x_min":69,"x_max":541,"o":"m 341 550 l 355 419 l 255 419 l 268 549 l 289 637 l 225 575 l 119 497 l 69 584 l 188 638 l 274 663 l 188 688 l 69 741 l 119 828 l 225 751 l 289 689 l 268 776 l 255 907 l 355 907 l 341 776 l 320 689 l 384 751 l 491 828 l 541 741 l 420 688 l 335 663 l 420 638 l 541 584 l 491 497 l 384 575 l 320 637 l 341 550 z "},",":{"ha":308,"x_min":57,"x_max":233,"o":"m 233 35 q 189 -103 233 -39 q 81 -204 145 -166 l 57 -171 q 119 -97 97 -136 q 141 -25 141 -59 q 134 1 141 -6 q 115 14 126 8 q 88 38 101 22 q 75 80 75 55 q 95 131 75 110 q 146 152 115 152 q 207 122 181 152 q 233 35 233 93 z "},"-":{"ha":542,"x_min":81,"x_max":461,"o":"m 81 263 l 81 339 l 461 339 l 461 263 l 81 263 z "},"­":{"ha":561,"x_min":81,"x_max":479,"o":"m 81 263 l 81 339 l 479 339 l 479 263 l 81 263 z "},".":{"ha":293,"x_min":72,"x_max":221,"o":"m 221 62 q 201 10 221 30 q 146 -11 180 -11 q 93 10 113 -11 q 72 62 72 30 q 93 115 72 94 q 146 135 113 135 q 201 115 180 135 q 221 62 221 94 z "},":":{"ha":315,"x_min":83,"x_max":232,"o":"m 232 489 q 211 437 232 457 q 158 416 191 416 q 104 437 124 416 q 83 489 83 457 q 104 541 83 521 q 158 561 124 561 q 211 541 191 561 q 232 489 232 521 m 232 62 q 211 10 232 30 q 158 -11 191 -11 q 104 10 124 -11 q 83 62 83 30 q 104 115 83 94 q 158 135 124 135 q 211 115 191 135 q 232 62 232 94 z "},";":{"ha":338,"x_min":75,"x_max":252,"o":"m 243 489 q 222 437 243 458 q 168 417 202 417 q 114 437 135 417 q 93 489 93 458 q 114 542 93 522 q 168 562 135 562 q 222 542 202 562 q 243 489 243 522 m 252 35 q 208 -103 252 -39 q 99 -204 164 -166 l 75 -171 q 138 -97 116 -136 q 160 -25 160 -59 q 153 1 160 -6 q 134 14 145 8 q 107 38 120 22 q 94 80 94 55 q 114 131 94 110 q 165 152 134 152 q 226 122 199 152 q 252 35 252 93 z "},"?":{"ha":541,"x_min":40,"x_max":503,"o":"m 261 233 l 202 233 q 183 296 192 262 q 174 357 174 330 q 198 426 174 399 q 262 490 222 453 q 317 543 293 519 q 356 590 340 567 q 378 636 371 613 q 385 687 385 660 q 355 782 385 744 q 266 820 324 820 q 206 809 233 820 q 165 783 179 797 q 150 760 154 772 q 144 732 145 748 l 134 631 l 69 631 q 48 719 56 672 q 40 810 41 766 q 131 861 75 839 q 253 883 187 883 q 357 865 311 883 q 436 816 404 846 q 486 744 468 785 q 503 661 503 704 q 490 591 503 623 q 456 532 477 559 q 405 480 434 505 q 345 430 377 455 q 311 401 324 413 q 289 377 297 388 q 277 352 281 366 q 271 319 273 339 l 261 233 m 307 57 q 288 8 307 27 q 237 -11 268 -11 q 186 8 206 -11 q 167 57 167 27 q 186 106 167 87 q 237 124 206 124 q 288 106 268 124 q 307 57 307 87 z "},"!":{"ha":332,"x_min":96,"x_max":236,"o":"m 105 781 l 105 865 l 227 865 l 227 781 l 198 233 l 134 233 l 105 781 m 236 57 q 217 8 236 27 q 166 -11 197 -11 q 115 8 135 -11 q 96 57 96 27 q 115 106 96 87 q 166 124 135 124 q 217 106 197 124 q 236 57 236 87 z "},"¿":{"ha":533,"x_min":34,"x_max":497,"o":"m 230 523 q 250 571 230 553 q 301 590 269 590 q 351 571 332 590 q 371 523 371 553 q 351 474 371 492 q 301 456 332 456 q 250 474 269 456 q 230 523 230 493 m 276 346 l 336 346 q 354 284 345 318 q 363 223 363 250 q 339 154 363 180 q 276 90 316 127 q 220 37 244 61 q 182 -10 197 13 q 159 -56 167 -33 q 152 -108 152 -80 q 183 -203 152 -165 q 272 -240 214 -240 q 332 -229 305 -240 q 373 -203 359 -217 q 388 -180 383 -192 q 393 -153 392 -169 l 404 -52 l 469 -52 q 489 -139 481 -92 q 497 -230 496 -186 q 406 -281 462 -259 q 284 -304 350 -304 q 180 -285 227 -304 q 102 -236 134 -267 q 52 -165 69 -206 q 34 -81 34 -125 q 47 -11 34 -43 q 82 48 60 20 q 132 100 104 75 q 192 150 161 125 q 227 179 213 167 q 248 203 240 191 q 261 228 257 214 q 267 261 265 241 l 276 346 z "},"¡":{"ha":315,"x_min":87,"x_max":228,"o":"m 228 523 q 208 474 228 492 q 158 456 189 456 q 107 474 126 456 q 87 523 87 492 q 107 571 87 553 q 158 590 126 590 q 208 571 189 590 q 228 523 228 553 m 219 -285 l 96 -285 l 96 -202 l 126 346 l 190 346 l 219 -202 l 219 -285 z "},"@":{"ha":1070,"x_min":57,"x_max":1008,"o":"m 468 -261 q 294 -228 370 -261 q 165 -137 217 -195 q 85 5 113 -78 q 57 188 58 88 q 102 432 57 322 q 225 619 148 541 q 404 738 302 696 q 618 781 506 781 q 773 756 702 781 q 897 683 845 731 q 979 563 949 635 q 1008 397 1008 491 q 975 216 1008 294 q 896 88 942 139 q 800 11 851 36 q 714 -15 749 -15 q 653 18 671 -15 q 634 102 634 52 q 637 153 634 123 q 647 223 640 183 q 607 134 630 177 q 557 57 584 90 q 497 3 529 23 q 429 -18 465 -18 q 372 -3 398 -18 q 326 40 345 13 q 295 106 307 68 q 284 191 284 145 q 303 310 284 249 q 357 420 322 371 q 442 500 391 469 q 556 531 492 531 q 618 523 585 531 q 684 496 651 515 l 707 529 l 774 507 q 758 423 767 472 q 740 323 748 374 q 727 222 732 272 q 721 135 721 172 q 730 76 721 91 q 754 61 738 61 q 808 82 776 61 q 867 142 839 102 q 916 240 895 181 q 936 375 936 299 q 906 530 936 465 q 827 635 876 594 q 715 695 778 676 q 587 714 653 714 q 414 679 496 714 q 270 580 331 644 q 174 422 210 515 q 138 213 138 328 q 165 36 138 113 q 238 -91 191 -40 q 349 -168 285 -142 q 487 -194 413 -194 q 548 -190 516 -194 q 609 -180 580 -186 q 664 -164 639 -173 q 706 -145 690 -156 l 726 -186 q 617 -239 686 -218 q 468 -261 548 -261 m 453 72 q 502 91 477 72 q 550 145 527 111 q 594 223 573 178 q 632 316 616 267 q 647 367 640 343 q 659 413 654 392 q 599 450 633 438 q 538 463 565 463 q 470 442 500 463 q 421 389 440 422 q 391 312 401 356 q 381 223 381 269 q 385 166 381 194 q 398 118 389 139 q 420 84 407 97 q 453 72 434 72 z "},"(":{"ha":360,"x_min":57,"x_max":337,"o":"m 337 -190 l 296 -230 q 241 -170 281 -216 q 161 -45 202 -124 q 88 146 120 33 q 57 407 57 260 q 87 645 57 538 q 156 832 117 753 q 236 961 196 911 q 296 1030 276 1011 l 337 989 q 288 914 317 963 q 231 796 259 866 q 184 632 204 726 q 163 424 165 539 q 182 188 161 292 q 232 8 203 84 q 291 -118 261 -69 q 337 -190 321 -168 z "},")":{"ha":360,"x_min":23,"x_max":304,"o":"m 304 393 q 274 154 304 262 q 204 -32 244 46 q 124 -161 164 -111 q 64 -230 84 -212 l 23 -190 q 73 -115 43 -163 q 129 4 102 -66 q 176 167 156 74 q 197 376 196 261 q 178 611 199 507 q 128 792 157 716 q 69 917 99 868 q 23 989 39 967 l 64 1030 q 119 969 80 1015 q 200 845 159 923 q 272 653 240 766 q 304 393 304 540 z "},"[":{"ha":401,"x_min":114,"x_max":373,"o":"m 373 -190 q 313 -196 345 -194 q 249 -201 281 -199 q 186 -204 217 -203 q 130 -204 155 -205 l 114 -188 l 114 987 l 130 1003 q 186 1003 155 1004 q 249 1000 217 1002 q 313 996 281 998 q 373 989 345 993 l 373 939 l 241 928 q 220 919 227 927 q 212 897 212 912 l 212 -98 q 220 -120 212 -113 q 241 -128 227 -127 l 373 -139 l 373 -190 z "},"]":{"ha":401,"x_min":28,"x_max":287,"o":"m 287 -188 l 271 -204 q 215 -204 246 -205 q 152 -201 184 -203 q 88 -196 120 -199 q 28 -190 56 -194 l 28 -139 l 160 -128 q 181 -120 174 -127 q 189 -98 189 -113 l 189 897 q 181 919 189 912 q 160 928 174 927 l 28 939 l 28 989 q 88 996 56 993 q 152 1000 120 998 q 215 1003 184 1002 q 271 1003 246 1004 l 287 987 l 287 -188 z "},"{":{"ha":446,"x_min":18,"x_max":425,"o":"m 425 -151 l 418 -205 q 373 -204 397 -205 q 321 -201 349 -203 q 184 -151 228 -195 q 139 -25 139 -107 q 147 116 139 52 q 155 235 155 180 q 152 278 155 258 q 134 314 148 298 q 93 341 121 330 q 18 356 65 353 l 18 443 q 93 458 65 447 q 134 485 121 469 q 152 521 148 501 q 155 564 155 541 q 147 684 155 620 q 139 824 139 747 q 184 950 139 906 q 321 1000 228 994 q 373 1003 349 1002 q 418 1004 397 1004 l 425 950 l 356 937 q 270 897 298 926 q 242 804 242 868 q 247 677 242 746 q 252 548 252 609 q 216 453 252 487 q 110 402 181 418 q 216 349 181 386 q 252 251 252 312 q 247 122 252 191 q 242 -5 242 54 q 270 -98 242 -69 q 356 -138 298 -127 l 425 -151 z "},"}":{"ha":446,"x_min":22,"x_max":429,"o":"m 126 -201 q 74 -204 97 -203 q 29 -205 50 -205 l 22 -151 l 91 -138 q 177 -98 148 -127 q 205 -5 205 -69 q 199 122 205 53 q 193 251 193 191 q 229 347 193 312 q 335 398 264 382 q 229 451 264 414 q 193 548 193 487 q 199 677 193 609 q 205 805 205 746 q 177 897 205 868 q 91 937 148 927 l 22 950 l 29 1004 q 74 1003 50 1004 q 126 1001 97 1003 q 263 951 219 994 q 308 825 308 907 q 299 684 308 747 q 290 564 290 620 q 294 521 290 541 q 311 485 297 501 q 353 458 325 469 q 429 443 381 447 l 429 356 q 353 341 381 353 q 311 314 325 330 q 294 278 297 298 q 290 235 290 258 q 299 116 290 180 q 308 -25 308 52 q 263 -151 308 -108 q 126 -201 219 -195 z "},"\\":{"ha":488,"x_min":36,"x_max":451,"o":"m 451 -145 l 357 -145 l 36 880 l 130 880 l 451 -145 z "},"/":{"ha":488,"x_min":38,"x_max":452,"o":"m 131 -145 l 38 -145 l 359 880 l 452 880 l 131 -145 z "},"¦":{"ha":317,"x_min":114,"x_max":203,"o":"m 114 480 l 114 956 l 203 956 l 203 480 l 114 480 m 114 -154 l 114 323 l 203 323 l 203 -154 l 114 -154 z "},"|":{"ha":319,"x_min":115,"x_max":205,"o":"m 115 -154 l 115 956 l 205 956 l 205 -154 l 115 -154 z "},"^":{"ha":619,"x_min":53,"x_max":568,"o":"m 517 404 l 304 667 l 98 404 l 53 438 l 257 770 l 351 777 l 568 438 l 517 404 z "},"_":{"ha":884,"x_min":0,"x_max":884,"o":"m 0 -126 l 884 -126 l 884 -189 l 0 -189 l 0 -126 z "},"~":{"ha":664,"x_min":79,"x_max":582,"o":"m 582 350 q 518 268 560 302 q 426 234 477 234 q 369 244 396 234 q 316 268 341 255 q 266 291 290 281 q 219 302 242 302 q 163 284 189 302 q 116 241 136 266 l 79 270 q 144 353 103 319 q 236 386 185 386 q 293 376 266 386 q 346 352 321 365 q 396 329 372 339 q 443 318 420 318 q 499 336 473 318 q 546 379 526 354 l 582 350 z "},"§":{"ha":646,"x_min":62,"x_max":585,"o":"m 361 227 q 405 208 384 217 q 444 188 426 198 q 481 238 467 209 q 495 295 495 267 q 482 342 495 321 q 444 381 469 363 q 379 419 418 400 q 289 461 340 437 q 244 482 266 471 q 205 503 223 492 q 166 453 181 482 q 151 394 151 423 q 164 347 151 368 q 204 307 178 326 q 269 269 230 288 q 361 227 309 250 m 323 -143 q 180 -123 243 -143 q 86 -85 117 -103 q 86 -2 84 -44 q 95 82 89 41 l 161 82 l 179 -14 q 185 -31 180 -22 q 201 -49 190 -40 q 259 -76 223 -66 q 335 -87 294 -87 q 430 -61 397 -87 q 464 6 464 -34 q 450 50 464 32 q 411 85 437 69 q 348 117 385 101 q 263 155 310 133 q 115 241 169 196 q 62 360 62 286 q 93 462 62 419 q 167 526 124 505 q 113 583 132 552 q 93 660 93 615 q 107 727 93 695 q 150 782 121 758 q 223 819 178 805 q 329 833 268 833 q 397 829 364 833 q 458 817 430 824 q 510 801 487 810 q 547 784 533 792 q 547 700 549 742 q 538 616 544 658 l 472 616 l 455 712 q 448 730 453 722 q 432 746 443 739 q 382 768 414 759 q 315 776 350 776 q 223 750 254 776 q 192 685 192 724 q 206 640 192 659 q 245 603 220 620 q 306 570 270 586 q 387 533 342 554 q 531 448 477 492 q 585 330 585 405 q 556 231 585 273 q 485 165 527 188 q 543 110 523 140 q 563 34 563 79 q 548 -35 563 -3 q 504 -92 534 -68 q 429 -130 474 -116 q 323 -143 384 -143 z "},"©":{"ha":1011,"x_min":58,"x_max":953,"o":"m 58 395 q 92 575 58 492 q 186 717 126 658 q 328 812 245 777 q 506 846 410 846 q 683 812 601 846 q 825 717 766 777 q 919 575 885 658 q 953 396 953 492 q 919 216 953 299 q 825 73 885 133 q 683 -21 766 13 q 506 -56 601 -56 q 328 -21 410 -56 q 186 73 245 13 q 92 216 126 133 q 58 395 58 299 m 121 396 q 150 237 121 310 q 230 112 179 164 q 351 30 280 59 q 506 0 422 0 q 660 30 589 0 q 782 112 731 59 q 861 237 832 164 q 890 396 890 310 q 861 555 890 482 q 782 681 832 628 q 660 763 731 733 q 506 792 589 792 q 351 763 422 792 q 230 681 280 733 q 150 555 179 628 q 121 396 121 482 m 503 144 q 410 163 451 144 q 341 213 369 181 q 298 291 313 245 q 284 391 284 337 q 302 500 284 452 q 351 581 319 548 q 427 632 382 614 q 524 649 471 649 q 617 637 573 649 q 681 611 661 625 q 681 540 683 577 q 672 467 678 504 l 618 467 l 600 539 q 594 556 598 548 q 579 573 590 565 q 547 587 566 581 q 509 592 529 592 q 415 543 447 592 q 383 409 383 494 q 421 267 383 316 q 529 217 458 217 q 602 231 567 217 q 657 266 636 244 l 685 238 q 617 172 664 199 q 503 144 570 144 z "},"®":{"ha":898,"x_min":61,"x_max":838,"o":"m 61 552 q 90 707 61 635 q 171 831 120 779 q 295 912 223 883 q 449 942 366 942 q 604 912 532 942 q 727 831 675 883 q 808 707 779 779 q 838 552 838 635 q 808 396 838 468 q 727 271 779 324 q 604 189 675 219 q 449 159 532 159 q 295 189 366 159 q 171 271 223 219 q 90 396 120 324 q 61 552 61 468 m 118 552 q 142 414 118 477 q 211 307 167 352 q 316 236 255 262 q 449 211 377 211 q 582 236 521 211 q 687 307 643 262 q 756 415 731 352 q 780 552 780 478 q 756 689 780 626 q 687 796 731 752 q 582 866 643 841 q 449 892 521 892 q 316 866 377 892 q 211 796 255 841 q 142 688 167 751 q 118 552 118 626 m 452 560 q 513 581 490 560 q 536 646 536 602 q 513 706 536 688 q 437 724 489 724 q 414 723 425 724 q 386 719 402 722 l 386 561 q 419 560 403 560 q 452 560 435 560 m 441 375 l 441 339 l 257 339 l 257 375 l 290 383 q 303 391 298 385 q 307 405 307 396 l 307 697 q 302 711 307 706 q 289 719 297 717 l 257 726 l 257 767 l 345 767 q 409 767 378 766 q 460 769 439 769 q 580 740 539 769 q 621 651 621 711 q 596 571 621 603 q 523 528 570 539 q 547 511 537 522 q 566 483 558 501 l 604 413 q 621 393 612 398 q 658 380 631 387 l 658 339 l 573 339 q 547 349 557 339 q 529 382 538 360 l 494 460 q 480 489 487 475 q 463 513 473 503 l 386 513 l 386 404 q 390 390 386 395 q 403 383 394 385 l 441 375 z "},"™":{"ha":1136,"x_min":64,"x_max":1064,"o":"m 377 388 l 139 388 l 139 424 l 190 434 q 207 442 201 436 q 213 459 213 448 l 213 742 l 151 742 q 132 737 139 742 q 123 722 125 732 l 105 646 l 66 646 q 65 720 64 684 q 72 789 66 756 l 445 789 q 449 720 449 756 q 447 646 450 684 l 408 646 l 391 722 q 382 737 388 732 q 364 742 376 742 l 300 742 l 300 459 q 306 442 300 448 q 323 434 312 436 l 377 425 l 377 388 m 927 436 l 889 719 l 784 385 l 728 385 l 615 721 l 579 436 l 635 425 l 635 388 l 472 388 l 472 425 l 506 433 q 522 442 517 436 q 530 459 528 447 l 563 716 q 558 733 565 727 q 540 741 552 739 l 504 747 l 504 789 l 681 789 l 772 505 l 860 789 l 1029 789 l 1029 747 l 994 741 q 977 733 983 739 q 972 715 970 726 l 1008 459 q 1016 442 1010 447 q 1032 434 1021 436 l 1064 425 l 1064 388 l 873 388 l 873 425 l 927 436 z "},"ª":{"ha":553,"x_min":64,"x_max":498,"o":"m 233 404 q 286 412 260 404 q 332 435 313 421 l 332 535 l 263 530 q 193 509 216 526 q 170 460 170 491 q 186 418 170 432 q 233 404 201 404 m 416 344 q 366 357 386 344 q 337 397 345 370 q 275 357 312 372 q 194 342 237 342 q 101 370 137 342 q 64 448 64 398 q 80 504 64 481 q 121 541 96 527 q 178 563 146 556 q 242 573 210 571 l 332 579 l 332 628 q 308 705 332 683 q 235 727 284 727 q 163 715 197 727 q 101 679 129 704 l 78 702 q 145 772 94 747 q 264 797 196 797 q 390 757 348 797 q 431 636 431 717 l 431 428 q 437 410 431 416 q 454 404 442 405 l 498 400 l 498 359 q 462 350 487 355 q 416 344 437 344 z "},"º":{"ha":558,"x_min":60,"x_max":498,"o":"m 60 564 q 78 670 60 626 q 126 743 95 715 q 198 784 157 771 q 286 797 239 797 q 446 737 393 797 q 498 571 498 677 q 480 465 498 509 q 432 393 463 421 q 360 352 402 365 q 272 339 319 339 q 112 398 165 339 q 60 564 60 458 m 387 563 q 363 699 387 652 q 276 747 340 747 q 197 707 223 747 q 171 573 171 667 q 194 437 171 485 q 282 389 218 389 q 361 429 335 389 q 387 563 387 469 z "},"‹":{"ha":429,"x_min":54,"x_max":375,"o":"m 336 52 l 54 273 l 54 345 l 336 572 l 372 531 l 173 310 l 375 94 l 336 52 z "},"›":{"ha":429,"x_min":54,"x_max":375,"o":"m 93 52 l 54 94 l 256 310 l 57 531 l 93 572 l 375 345 l 375 273 l 93 52 z "},"«":{"ha":713,"x_min":54,"x_max":659,"o":"m 620 52 l 338 273 l 338 345 l 620 572 l 657 531 l 457 310 l 659 94 l 620 52 m 336 52 l 54 273 l 54 345 l 336 572 l 372 531 l 173 310 l 375 94 l 336 52 z "},"»":{"ha":703,"x_min":54,"x_max":649,"o":"m 93 52 l 54 94 l 256 310 l 57 531 l 93 572 l 375 345 l 375 273 l 93 52 m 367 52 l 328 94 l 530 310 l 331 531 l 367 572 l 649 345 l 649 273 l 367 52 z "},"‘":{"ha":284,"x_min":56,"x_max":232,"o":"m 56 730 q 98 856 56 798 q 207 948 141 913 l 232 917 q 172 856 198 889 q 147 789 147 823 q 154 764 147 771 q 173 751 162 758 q 200 727 187 742 q 213 685 213 711 q 193 635 213 656 q 142 615 173 615 q 82 643 108 615 q 56 730 56 672 z "},"’":{"ha":285,"x_min":59,"x_max":235,"o":"m 235 822 q 193 697 235 754 q 84 605 150 639 l 59 636 q 118 696 93 663 q 144 763 144 730 q 136 788 144 782 q 118 802 129 795 q 91 826 104 810 q 78 867 78 842 q 98 917 78 896 q 149 938 118 938 q 209 909 183 938 q 235 822 235 880 z "},"‚":{"ha":316,"x_min":59,"x_max":235,"o":"m 235 79 q 192 -47 235 11 q 83 -139 149 -104 l 59 -108 q 118 -47 92 -80 q 143 20 143 -14 q 136 45 143 38 q 117 58 128 52 q 90 83 103 67 q 77 124 77 98 q 97 174 77 153 q 148 194 117 194 q 209 166 183 194 q 235 79 235 137 z "},"“":{"ha":496,"x_min":56,"x_max":444,"o":"m 268 730 q 311 856 268 798 q 420 948 354 913 l 444 917 q 385 856 411 889 q 360 789 360 823 q 367 764 360 771 q 386 751 374 758 q 413 727 400 742 q 425 685 425 711 q 406 635 425 656 q 355 615 386 615 q 294 643 320 615 q 268 730 268 672 m 56 730 q 98 856 56 798 q 207 948 141 913 l 232 917 q 172 856 198 889 q 147 789 147 823 q 154 764 147 771 q 173 751 162 758 q 200 727 187 742 q 213 685 213 711 q 193 635 213 656 q 142 615 173 615 q 82 643 108 615 q 56 730 56 672 z "},"”":{"ha":498,"x_min":59,"x_max":448,"o":"m 235 822 q 193 697 235 754 q 84 605 150 639 l 59 636 q 118 696 93 663 q 144 763 144 730 q 136 788 144 782 q 118 802 129 795 q 91 826 104 810 q 78 867 78 842 q 98 917 78 896 q 149 938 118 938 q 209 909 183 938 q 235 822 235 880 m 448 822 q 405 697 448 754 q 296 605 363 639 l 272 636 q 331 696 306 663 q 357 763 357 730 q 349 788 357 782 q 330 802 341 795 q 303 826 316 810 q 290 867 290 842 q 310 917 290 896 q 362 938 330 938 q 422 909 396 938 q 448 822 448 880 z "},"„":{"ha":529,"x_min":59,"x_max":447,"o":"m 235 79 q 192 -47 235 11 q 83 -139 149 -104 l 59 -108 q 118 -47 92 -80 q 143 20 143 -14 q 136 45 143 38 q 117 58 128 52 q 90 83 103 67 q 77 124 77 98 q 97 174 77 153 q 148 194 117 194 q 209 166 183 194 q 235 79 235 137 m 447 79 q 405 -47 447 11 q 296 -139 362 -104 l 271 -108 q 331 -47 305 -80 q 356 20 356 -14 q 348 45 356 38 q 330 58 341 52 q 303 83 316 67 q 290 124 290 98 q 310 174 290 153 q 361 194 330 194 q 421 166 395 194 q 447 79 447 137 z "},"†":{"ha":485,"x_min":39,"x_max":446,"o":"m 269 -125 l 216 -125 l 192 520 q 183 535 190 530 q 163 543 175 540 l 39 570 l 39 627 l 188 621 l 183 758 l 183 840 l 302 840 l 302 758 l 297 621 l 446 627 l 446 570 l 322 543 q 303 535 310 540 q 293 520 296 530 l 269 -125 z "},"‡":{"ha":505,"x_min":48,"x_max":456,"o":"m 278 -126 l 226 -125 l 211 273 q 202 289 209 284 q 181 297 194 295 l 48 326 l 48 382 l 207 376 l 202 520 q 192 535 199 530 q 172 543 185 540 l 48 570 l 48 627 l 198 621 l 193 758 l 193 840 l 312 840 l 312 758 l 307 621 l 456 627 l 456 570 l 332 543 q 312 535 320 540 q 303 520 305 530 l 297 376 l 456 382 l 456 326 l 323 297 q 303 289 310 295 q 293 273 295 284 l 278 -126 z "},"…":{"ha":880,"x_min":72,"x_max":808,"o":"m 221 62 q 201 10 221 30 q 146 -11 180 -11 q 93 10 113 -11 q 72 62 72 30 q 93 115 72 94 q 146 135 113 135 q 201 115 180 135 q 221 62 221 94 m 808 62 q 787 10 808 30 q 733 -11 766 -11 q 679 10 699 -11 q 659 62 659 30 q 679 115 659 94 q 733 135 699 135 q 787 115 766 135 q 808 62 808 94 m 515 62 q 494 10 515 30 q 440 -11 473 -11 q 386 10 407 -11 q 365 62 365 30 q 386 115 365 94 q 440 135 407 135 q 494 115 473 135 q 515 62 515 94 z "},"¶":{"ha":731,"x_min":38,"x_max":678,"o":"m 144 -174 l 119 -123 q 197 -69 167 -96 q 243 -9 227 -41 q 264 66 259 24 q 270 164 270 109 l 270 346 q 187 364 228 348 q 112 409 145 380 q 59 480 79 437 q 38 579 38 523 q 54 666 38 626 q 102 736 70 707 q 185 783 134 766 q 304 800 235 800 q 420 794 355 800 q 562 789 485 789 l 673 789 l 673 736 l 597 721 q 578 710 585 718 q 571 691 571 703 l 571 96 q 578 77 571 84 q 596 67 585 69 l 678 52 l 678 0 l 479 0 l 479 723 q 423 727 454 725 q 363 728 391 728 l 363 121 q 352 8 363 55 q 317 -73 342 -39 q 250 -130 292 -106 q 144 -174 208 -154 z "},"·":{"ha":311,"x_min":81,"x_max":230,"o":"m 230 335 q 210 283 230 304 q 156 263 189 263 q 102 283 122 263 q 81 335 81 304 q 102 388 81 368 q 156 408 122 408 q 210 388 189 408 q 230 335 230 368 z "},"–":{"ha":751,"x_min":81,"x_max":670,"o":"m 81 262 l 81 339 l 670 339 l 670 262 l 81 262 z "},"—":{"ha":1125,"x_min":81,"x_max":1044,"o":"m 81 263 l 81 339 l 1044 339 l 1044 263 l 81 263 z "},"ˆ":{"ha":505,"x_min":64,"x_max":444,"o":"m 103 636 l 64 670 l 204 865 l 288 873 l 444 673 l 403 637 l 246 777 l 103 636 z "},"ˇ":{"ha":505,"x_min":68,"x_max":447,"o":"m 409 893 l 447 859 l 308 664 l 223 656 l 68 856 l 109 892 l 265 753 l 409 893 z "},"¯":{"ha":505,"x_min":84,"x_max":421,"o":"m 84 687 l 84 761 l 421 761 l 421 687 l 84 687 z "},"ˉ":{"ha":505,"x_min":84,"x_max":421,"o":"m 84 694 l 84 768 l 421 768 l 421 694 l 84 694 z "},"˘":{"ha":505,"x_min":65,"x_max":440,"o":"m 440 809 q 416 748 433 777 q 374 699 399 720 q 318 667 350 679 q 249 655 286 655 q 180 667 212 655 q 125 701 148 680 q 85 750 101 722 q 65 809 70 778 l 116 832 q 172 764 137 787 q 254 740 208 740 q 333 762 296 740 q 396 832 370 784 l 440 809 z "},"¨":{"ha":505,"x_min":74,"x_max":429,"o":"m 429 739 q 411 691 429 709 q 365 672 393 672 q 317 691 335 672 q 299 739 299 709 q 317 787 299 768 q 365 806 335 806 q 411 787 393 806 q 429 739 429 768 m 205 739 q 186 691 205 709 q 139 672 168 672 q 92 691 111 672 q 74 739 74 709 q 92 787 74 768 q 139 806 111 806 q 186 787 168 806 q 205 739 205 768 z "},"´":{"ha":505,"x_min":171,"x_max":428,"o":"m 205 636 l 171 672 l 355 889 l 428 825 q 387 780 413 805 q 332 731 362 756 q 269 681 302 706 q 205 636 236 657 z "},"`":{"ha":505,"x_min":99,"x_max":352,"o":"m 173 889 l 352 674 l 317 636 q 254 681 286 657 q 193 730 222 705 q 139 780 164 756 q 99 825 115 805 l 173 889 z "},"¸":{"ha":505,"x_min":154,"x_max":358,"o":"m 230 26 l 277 26 l 256 -44 q 265 -44 259 -44 q 278 -46 271 -45 q 335 -74 312 -51 q 358 -134 358 -97 q 344 -186 358 -163 q 306 -226 330 -210 q 250 -252 282 -243 q 180 -262 217 -262 q 169 -261 173 -262 q 160 -261 165 -261 l 154 -216 q 232 -191 205 -213 q 260 -140 260 -169 q 239 -101 260 -113 q 191 -88 218 -89 l 230 26 z "},"˙":{"ha":505,"x_min":188,"x_max":338,"o":"m 338 743 q 317 691 338 711 q 263 670 296 670 q 209 691 230 670 q 188 743 188 711 q 209 795 188 775 q 263 816 230 816 q 317 795 296 816 q 338 743 338 775 z "},"˚":{"ha":505,"x_min":118,"x_max":387,"o":"m 386 765 q 375 716 386 737 q 346 679 364 694 q 303 655 327 663 q 251 647 278 647 q 153 681 187 647 q 118 767 118 714 q 131 814 119 793 q 162 850 142 835 q 206 873 181 865 q 257 881 231 881 q 353 848 319 881 q 386 765 387 815 m 191 767 q 206 720 191 741 q 254 698 222 698 q 299 715 283 698 q 314 762 314 732 q 300 808 314 788 q 254 829 285 829 q 208 811 224 829 q 191 767 191 794 z "},"˛":{"ha":505,"x_min":124,"x_max":380,"o":"m 380 -222 q 320 -250 356 -240 q 250 -260 285 -260 q 161 -236 198 -260 q 124 -163 124 -213 q 136 -113 124 -137 q 168 -68 148 -88 q 216 -30 188 -47 q 273 1 243 -12 l 312 16 l 368 7 q 310 -18 337 -3 q 263 -52 283 -34 q 232 -92 243 -71 q 220 -134 220 -113 q 240 -178 220 -164 q 291 -192 261 -192 q 326 -188 307 -192 q 361 -177 344 -185 l 380 -222 z "},"˜":{"ha":505,"x_min":44,"x_max":461,"o":"m 461 780 q 442 735 454 758 q 414 694 430 712 q 375 664 397 676 q 326 653 353 653 q 277 664 299 653 q 236 689 255 675 q 198 713 216 702 q 162 724 180 724 q 116 703 136 724 q 82 659 96 681 l 44 680 q 63 726 51 703 q 91 767 74 749 q 130 797 108 785 q 179 808 152 808 q 228 797 206 808 q 269 772 250 786 q 307 748 289 759 q 343 737 325 737 q 389 758 369 737 q 423 803 409 780 l 461 780 z "},"˝":{"ha":505,"x_min":108,"x_max":518,"o":"m 145 651 l 108 679 l 234 905 l 313 859 q 281 807 301 835 q 237 749 261 778 q 189 695 214 721 q 145 651 165 669 m 336 651 l 301 682 l 442 900 l 518 849 q 482 799 504 827 q 435 744 460 772 q 384 692 410 717 q 336 651 358 668 z "},"̂":{"ha":0,"x_min":-188,"x_max":191,"o":"m -149 636 l -188 670 l -48 865 l 36 873 l 191 673 l 151 637 l -6 777 l -149 636 z "},"̌":{"ha":0,"x_min":-184,"x_max":195,"o":"m 157 893 l 195 859 l 56 664 l -29 656 l -184 856 l -144 892 l 13 753 l 157 893 z "},"̄":{"ha":0,"x_min":-169,"x_max":168,"o":"m -169 687 l -169 761 l 168 761 l 168 687 l -169 687 z "},"̆":{"ha":0,"x_min":-188,"x_max":188,"o":"m 188 809 q 163 748 180 777 q 122 699 146 720 q 66 667 97 679 q -3 655 34 655 q -72 667 -40 655 q -128 701 -104 680 q -167 750 -152 722 q -188 809 -183 778 l -137 832 q -80 764 -115 787 q 1 740 -45 740 q 81 762 43 740 q 143 832 118 784 l 188 809 z "},"̈":{"ha":0,"x_min":-178,"x_max":177,"o":"m 177 739 q 159 691 177 709 q 112 672 141 672 q 65 691 83 672 q 47 739 47 709 q 65 787 47 768 q 112 806 83 806 q 159 787 141 806 q 177 739 177 768 m -48 739 q -66 691 -48 709 q -113 672 -84 672 q -160 691 -142 672 q -178 739 -178 709 q -160 787 -178 768 q -113 806 -142 806 q -66 787 -84 806 q -48 739 -48 768 z "},"́":{"ha":0,"x_min":-81,"x_max":176,"o":"m -48 636 l -81 672 l 102 889 l 176 825 q 135 780 160 805 q 80 731 110 756 q 16 681 49 706 q -48 636 -17 657 z "},"̀":{"ha":0,"x_min":-153,"x_max":99,"o":"m -79 889 l 99 674 l 64 636 q 1 681 33 657 q -60 730 -31 705 q -113 780 -89 756 q -153 825 -137 805 l -79 889 z "},"̧":{"ha":0,"x_min":-99,"x_max":106,"o":"m -22 26 l 25 26 l 3 -44 q 13 -44 7 -44 q 25 -46 19 -45 q 83 -74 60 -51 q 106 -134 106 -97 q 92 -186 106 -163 q 54 -226 78 -210 q -3 -252 30 -243 q -73 -262 -35 -262 q -84 -261 -80 -262 q -92 -261 -87 -261 l -99 -216 q -20 -191 -48 -213 q 8 -140 8 -169 q -14 -101 8 -113 q -61 -88 -35 -89 l -22 26 z "},"̇":{"ha":0,"x_min":-64,"x_max":85,"o":"m 85 743 q 65 691 85 711 q 11 670 44 670 q -43 691 -23 670 q -64 743 -64 711 q -43 795 -64 775 q 11 816 -23 816 q 65 795 44 816 q 85 743 85 775 z "},"̊":{"ha":0,"x_min":-135,"x_max":134,"o":"m 134 765 q 123 716 134 737 q 93 679 112 694 q 50 655 75 663 q -2 647 25 647 q -100 681 -65 647 q -134 767 -135 714 q -122 814 -134 793 q -91 850 -110 835 q -47 873 -72 865 q 5 881 -22 881 q 101 848 67 881 q 134 765 134 815 m -62 767 q -46 720 -62 741 q 1 698 -31 698 q 46 715 31 698 q 62 762 62 732 q 47 808 62 788 q 2 829 33 829 q -45 811 -28 829 q -62 767 -62 794 z "},"̨":{"ha":0,"x_min":-128,"x_max":128,"o":"m 128 -222 q 68 -250 103 -240 q -3 -260 32 -260 q -91 -236 -54 -260 q -128 -163 -128 -213 q -116 -113 -128 -137 q -84 -68 -105 -88 q -37 -30 -64 -47 q 21 1 -10 -12 l 60 16 l 116 7 q 58 -18 85 -3 q 11 -52 30 -34 q -21 -92 -9 -71 q -32 -134 -32 -113 q -12 -178 -32 -164 q 39 -192 8 -192 q 73 -188 55 -192 q 108 -177 91 -185 l 128 -222 z "},"̃":{"ha":0,"x_min":-208,"x_max":208,"o":"m 208 780 q 190 735 202 758 q 161 694 178 712 q 122 664 144 676 q 74 653 101 653 q 25 664 47 653 q -17 689 3 675 q -55 713 -36 702 q -91 724 -73 724 q -137 703 -117 724 q -171 659 -157 681 l -208 680 q -190 726 -202 703 q -161 767 -178 749 q -122 797 -144 785 q -74 808 -101 808 q -25 797 -47 808 q 17 772 -3 786 q 54 748 36 759 q 91 737 72 737 q 136 758 117 737 q 170 803 156 780 l 208 780 z "},"̋":{"ha":0,"x_min":-145,"x_max":265,"o":"m -108 651 l -145 679 l -18 905 l 61 859 q 28 807 48 835 q -15 749 8 778 q -63 695 -39 721 q -108 651 -87 669 m 83 651 l 48 682 l 189 900 l 265 849 q 230 799 252 827 q 182 744 208 772 q 131 692 157 717 q 83 651 105 668 z "},"̦":{"ha":0,"x_min":-60,"x_max":75,"o":"m 75 -147 q 42 -234 74 -196 q -32 -294 11 -272 l -60 -263 q -25 -229 -41 -248 q -10 -188 -10 -210 q -17 -165 -10 -171 q -32 -154 -25 -158 q -48 -138 -40 -148 q -57 -109 -57 -128 q -41 -71 -57 -86 q -1 -56 -25 -56 q 54 -82 32 -56 q 75 -147 75 -108 z "},"̒":{"ha":0,"x_min":-71,"x_max":65,"o":"m -70 758 q -38 845 -70 807 q 37 905 -6 883 l 65 874 q 30 839 46 859 q 15 798 15 820 q 22 775 15 782 q 37 764 30 769 q 53 748 45 759 q 62 720 62 738 q 46 681 62 696 q 6 666 30 666 q -49 692 -27 666 q -70 758 -71 719 z "},"ʼ":{"ha":404,"x_min":105,"x_max":270,"o":"m 270 799 q 232 690 270 742 q 127 605 193 638 l 105 637 q 154 688 134 659 q 174 741 174 718 q 169 760 174 754 q 157 772 163 767 q 135 797 142 783 q 127 828 127 812 q 147 876 127 857 q 193 895 166 895 q 246 870 223 895 q 270 799 270 845 z "},"À":{"ha":781,"x_min":1,"x_max":781,"o":"m 502 303 l 367 689 l 240 303 l 502 303 m 264 52 l 264 0 l 1 0 l 1 52 l 63 66 q 82 75 74 69 q 93 93 89 82 l 334 791 l 442 791 l 693 93 q 705 76 697 82 q 723 66 712 69 l 781 52 l 781 0 l 482 0 l 482 52 l 582 70 l 523 241 l 220 241 l 164 70 l 264 52 m 270 1053 l 499 885 l 474 841 q 403 871 440 855 q 330 905 365 887 q 262 940 294 922 q 209 975 230 958 l 270 1053 z "},"Á":{"ha":781,"x_min":1,"x_max":781,"o":"m 502 303 l 367 689 l 240 303 l 502 303 m 264 52 l 264 0 l 1 0 l 1 52 l 63 66 q 82 75 74 69 q 93 93 89 82 l 334 791 l 442 791 l 693 93 q 705 76 697 82 q 723 66 712 69 l 781 52 l 781 0 l 482 0 l 482 52 l 582 70 l 523 241 l 220 241 l 164 70 l 264 52 m 581 968 q 526 935 560 952 q 455 901 493 918 q 379 870 418 885 q 306 842 339 855 l 283 885 l 524 1047 l 581 968 z "},"Â":{"ha":781,"x_min":1,"x_max":781,"o":"m 502 303 l 367 689 l 240 303 l 502 303 m 264 52 l 264 0 l 1 0 l 1 52 l 63 66 q 82 75 74 69 q 93 93 89 82 l 334 791 l 442 791 l 693 93 q 705 76 697 82 q 723 66 712 69 l 781 52 l 781 0 l 482 0 l 482 52 l 582 70 l 523 241 l 220 241 l 164 70 l 264 52 m 229 840 l 194 879 l 340 1034 l 426 1039 l 586 882 l 549 841 l 383 949 l 229 840 z "},"Ã":{"ha":781,"x_min":1,"x_max":781,"o":"m 502 303 l 367 689 l 240 303 l 502 303 m 264 52 l 264 0 l 1 0 l 1 52 l 63 66 q 82 75 74 69 q 93 93 89 82 l 334 791 l 442 791 l 693 93 q 705 76 697 82 q 723 66 712 69 l 781 52 l 781 0 l 482 0 l 482 52 l 582 70 l 523 241 l 220 241 l 164 70 l 264 52 m 607 982 q 587 937 600 960 q 556 896 574 914 q 516 867 538 878 q 467 856 493 856 q 416 867 439 856 q 373 891 393 878 q 334 916 353 905 q 296 927 316 927 q 248 905 269 927 q 212 861 227 883 l 174 883 q 194 928 181 905 q 224 968 207 951 q 265 997 242 986 q 314 1009 288 1009 q 364 997 341 1009 q 408 973 387 986 q 446 949 428 960 q 484 938 465 938 q 533 959 512 938 q 569 1003 554 981 l 607 982 z "},"Ā":{"ha":781,"x_min":1,"x_max":781,"o":"m 502 303 l 367 689 l 240 303 l 502 303 m 264 52 l 264 0 l 1 0 l 1 52 l 63 66 q 82 75 74 69 q 93 93 89 82 l 334 791 l 442 791 l 693 93 q 705 76 697 82 q 723 66 712 69 l 781 52 l 781 0 l 482 0 l 482 52 l 582 70 l 523 241 l 220 241 l 164 70 l 264 52 m 219 887 l 219 961 l 561 961 l 561 887 l 219 887 z "},"Ă":{"ha":781,"x_min":1,"x_max":781,"o":"m 502 303 l 367 689 l 240 303 l 502 303 m 264 52 l 264 0 l 1 0 l 1 52 l 63 66 q 82 75 74 69 q 93 93 89 82 l 334 791 l 442 791 l 693 93 q 705 76 697 82 q 723 66 712 69 l 781 52 l 781 0 l 482 0 l 482 52 l 582 70 l 523 241 l 220 241 l 164 70 l 264 52 m 582 1001 q 557 943 574 970 q 515 896 539 916 q 458 863 490 875 q 388 852 426 852 q 318 864 350 852 q 261 897 285 876 q 221 945 237 918 q 199 1001 205 972 l 251 1024 q 310 959 274 982 q 392 936 345 936 q 473 958 435 936 q 537 1024 511 979 l 582 1001 z "},"Ä":{"ha":781,"x_min":1,"x_max":781,"o":"m 502 303 l 367 689 l 240 303 l 502 303 m 264 52 l 264 0 l 1 0 l 1 52 l 63 66 q 82 75 74 69 q 93 93 89 82 l 334 791 l 442 791 l 693 93 q 705 76 697 82 q 723 66 712 69 l 781 52 l 781 0 l 482 0 l 482 52 l 582 70 l 523 241 l 220 241 l 164 70 l 264 52 m 579 927 q 561 879 579 898 q 514 861 542 861 q 467 879 485 861 q 448 927 448 898 q 467 975 448 957 q 514 994 485 994 q 561 975 542 994 q 579 927 579 957 m 332 927 q 314 879 332 898 q 267 861 295 861 q 219 879 237 861 q 202 927 202 898 q 219 975 202 957 q 267 994 237 994 q 314 975 295 994 q 332 927 332 957 z "},"Å":{"ha":781,"x_min":1,"x_max":781,"o":"m 502 303 l 367 689 l 240 303 l 502 303 m 264 52 l 264 0 l 1 0 l 1 52 l 63 66 q 82 75 74 69 q 93 93 89 82 l 334 791 l 442 791 l 693 93 q 705 76 697 82 q 723 66 712 69 l 781 52 l 781 0 l 482 0 l 482 52 l 582 70 l 523 241 l 220 241 l 164 70 l 264 52 m 527 902 q 516 851 527 874 q 486 813 505 829 q 442 789 467 797 q 389 781 417 781 q 289 815 324 781 q 253 904 253 850 q 266 953 254 931 q 297 990 278 975 q 343 1013 317 1005 q 395 1022 368 1022 q 493 987 459 1022 q 527 902 528 953 m 325 904 q 341 854 325 877 q 391 832 357 832 q 440 850 423 832 q 457 899 457 868 q 441 948 457 926 q 392 970 426 970 q 342 951 360 970 q 325 904 325 933 z "},"Ą":{"ha":781,"x_min":1,"x_max":781,"o":"m 502 303 l 367 689 l 240 303 l 502 303 m 754 -222 q 693 -250 728 -240 q 623 -260 658 -260 q 534 -236 571 -260 q 496 -163 496 -213 q 508 -112 496 -136 q 540 -68 520 -88 q 584 -31 559 -47 q 636 -3 610 -14 l 636 0 l 482 0 l 482 52 l 582 70 l 523 241 l 220 241 l 164 70 l 264 52 l 264 0 l 1 0 l 1 52 l 63 66 q 82 75 74 69 q 93 93 89 82 l 334 791 l 442 791 l 693 93 q 705 76 697 82 q 723 66 712 69 l 781 52 l 781 0 l 722 0 q 630 -58 667 -22 q 593 -134 593 -95 q 613 -178 593 -164 q 664 -192 633 -192 q 698 -188 680 -192 q 734 -177 717 -185 l 754 -222 z "},"Æ":{"ha":1054,"x_min":-2,"x_max":1007,"o":"m 448 725 l 289 352 l 511 352 l 511 725 l 448 725 m 268 52 l 268 0 l -2 0 l -2 52 l 65 66 q 83 74 76 68 q 95 91 90 81 l 363 715 l 233 737 l 233 789 l 960 789 q 964 694 964 742 q 959 595 964 646 l 903 595 l 880 690 q 870 709 877 702 q 851 720 863 716 q 806 730 834 727 q 745 732 778 732 l 619 732 l 619 434 l 865 442 l 865 365 l 619 372 l 619 62 l 774 62 q 838 64 807 62 q 885 73 868 67 q 903 85 897 78 q 914 103 910 92 l 952 213 l 1007 205 q 1001 104 1007 156 q 986 0 995 52 l 404 0 l 404 52 l 484 66 q 504 77 497 69 q 511 98 511 85 l 511 290 l 263 290 l 168 66 l 268 52 z "},"Ǽ":{"ha":1054,"x_min":-2,"x_max":1007,"o":"m 448 725 l 289 352 l 511 352 l 511 725 l 448 725 m 268 52 l 268 0 l -2 0 l -2 52 l 65 66 q 83 74 76 68 q 95 91 90 81 l 363 715 l 233 737 l 233 789 l 960 789 q 964 694 964 742 q 959 595 964 646 l 903 595 l 880 690 q 870 709 877 702 q 851 720 863 716 q 806 730 834 727 q 745 732 778 732 l 619 732 l 619 434 l 865 442 l 865 365 l 619 372 l 619 62 l 774 62 q 838 64 807 62 q 885 73 868 67 q 903 85 897 78 q 914 103 910 92 l 952 213 l 1007 205 q 1001 104 1007 156 q 986 0 995 52 l 404 0 l 404 52 l 484 66 q 504 77 497 69 q 511 98 511 85 l 511 290 l 263 290 l 168 66 l 268 52 m 775 968 q 720 935 754 952 q 649 901 687 918 q 572 870 612 885 q 499 842 533 855 l 477 885 l 718 1047 l 775 968 z "},"Ć":{"ha":726,"x_min":63,"x_max":666,"o":"m 423 -14 q 264 13 332 -14 q 152 90 196 40 q 85 215 107 141 q 63 380 63 288 q 90 564 63 485 q 166 696 117 643 q 286 775 215 748 q 442 802 356 802 q 552 792 491 802 q 664 764 612 783 q 663 669 666 720 q 653 570 660 619 l 587 570 l 563 683 q 555 704 561 695 q 537 719 548 712 q 488 736 521 728 q 418 744 455 744 q 252 662 313 744 q 190 399 190 580 q 203 255 190 321 q 243 142 216 189 q 314 69 271 95 q 419 43 358 43 q 485 52 453 43 q 539 74 518 60 q 555 89 549 80 q 565 110 561 97 l 599 214 l 665 208 q 663 118 666 166 q 652 26 660 71 q 546 -3 608 8 q 423 -14 484 -14 m 613 968 q 558 935 591 952 q 487 901 525 918 q 410 870 449 885 q 337 842 371 855 l 315 885 l 556 1047 l 613 968 z "},"Ĉ":{"ha":726,"x_min":63,"x_max":666,"o":"m 423 -14 q 264 13 332 -14 q 152 90 196 40 q 85 215 107 141 q 63 380 63 288 q 90 564 63 485 q 166 696 117 643 q 286 775 215 748 q 442 802 356 802 q 552 792 491 802 q 664 764 612 783 q 663 669 666 720 q 653 570 660 619 l 587 570 l 563 683 q 555 704 561 695 q 537 719 548 712 q 488 736 521 728 q 418 744 455 744 q 252 662 313 744 q 190 399 190 580 q 203 255 190 321 q 243 142 216 189 q 314 69 271 95 q 419 43 358 43 q 485 52 453 43 q 539 74 518 60 q 555 89 549 80 q 565 110 561 97 l 599 214 l 665 208 q 663 118 666 166 q 652 26 660 71 q 546 -3 608 8 q 423 -14 484 -14 m 261 840 l 226 879 l 372 1034 l 458 1039 l 618 882 l 581 841 l 415 949 l 261 840 z "},"Ċ":{"ha":726,"x_min":63,"x_max":666,"o":"m 423 -14 q 264 13 332 -14 q 152 90 196 40 q 85 215 107 141 q 63 380 63 288 q 90 564 63 485 q 166 696 117 643 q 286 775 215 748 q 442 802 356 802 q 552 792 491 802 q 664 764 612 783 q 663 669 666 720 q 653 570 660 619 l 587 570 l 563 683 q 555 704 561 695 q 537 719 548 712 q 488 736 521 728 q 418 744 455 744 q 252 662 313 744 q 190 399 190 580 q 203 255 190 321 q 243 142 216 189 q 314 69 271 95 q 419 43 358 43 q 485 52 453 43 q 539 74 518 60 q 555 89 549 80 q 565 110 561 97 l 599 214 l 665 208 q 663 118 666 166 q 652 26 660 71 q 546 -3 608 8 q 423 -14 484 -14 m 497 936 q 477 883 497 904 q 422 863 456 863 q 368 883 389 863 q 347 936 347 904 q 368 989 347 969 q 422 1010 389 1010 q 477 989 456 1010 q 497 936 497 969 z "},"Č":{"ha":726,"x_min":63,"x_max":666,"o":"m 423 -14 q 264 13 332 -14 q 152 90 196 40 q 85 215 107 141 q 63 380 63 288 q 90 564 63 485 q 166 696 117 643 q 286 775 215 748 q 442 802 356 802 q 552 792 491 802 q 664 764 612 783 q 663 669 666 720 q 653 570 660 619 l 587 570 l 563 683 q 555 704 561 695 q 537 719 548 712 q 488 736 521 728 q 418 744 455 744 q 252 662 313 744 q 190 399 190 580 q 203 255 190 321 q 243 142 216 189 q 314 69 271 95 q 419 43 358 43 q 485 52 453 43 q 539 74 518 60 q 555 89 549 80 q 565 110 561 97 l 599 214 l 665 208 q 663 118 666 166 q 652 26 660 71 q 546 -3 608 8 q 423 -14 484 -14 m 583 1045 l 618 1007 l 472 851 l 386 846 l 226 1003 l 263 1044 l 429 936 l 583 1045 z "},"Ç":{"ha":726,"x_min":63,"x_max":666,"o":"m 423 -14 q 264 13 332 -14 q 152 90 196 40 q 85 215 107 141 q 63 380 63 288 q 90 564 63 485 q 166 696 117 643 q 286 775 215 748 q 442 802 356 802 q 552 792 491 802 q 664 764 612 783 q 663 669 666 720 q 653 570 660 619 l 587 570 l 563 683 q 555 704 561 695 q 537 719 548 712 q 488 736 521 728 q 418 744 455 744 q 252 662 313 744 q 190 399 190 580 q 203 255 190 321 q 243 142 216 189 q 314 69 271 95 q 419 43 358 43 q 485 52 453 43 q 539 74 518 60 q 555 89 549 80 q 565 110 561 97 l 599 214 l 665 208 q 663 118 666 166 q 652 26 660 71 q 546 -3 608 8 q 423 -14 484 -14 m 390 26 l 437 26 l 416 -44 q 425 -44 419 -44 q 438 -46 431 -45 q 495 -74 472 -51 q 518 -134 518 -97 q 504 -186 518 -163 q 466 -226 490 -210 q 410 -252 442 -243 q 340 -262 377 -262 q 329 -261 333 -262 q 320 -261 325 -261 l 314 -216 q 392 -191 365 -213 q 420 -140 420 -169 q 399 -101 420 -113 q 352 -88 378 -89 l 390 26 z "},"Ď":{"ha":843,"x_min":55,"x_max":781,"o":"m 217 789 q 310 793 266 789 q 401 796 354 796 q 688 699 596 796 q 781 417 781 602 q 753 232 781 312 q 674 97 725 151 q 550 17 623 44 q 387 -8 477 -10 q 307 -4 354 -7 q 219 0 260 0 l 55 0 l 55 52 l 136 66 q 156 76 149 68 q 162 96 162 84 l 162 692 q 156 710 162 703 q 140 720 150 718 l 55 736 l 55 789 l 217 789 m 275 59 q 333 52 296 54 q 397 50 369 49 q 591 135 522 54 q 660 398 660 217 q 590 657 660 574 q 377 740 520 740 q 318 737 344 740 q 275 733 291 734 l 275 59 m 567 1045 l 602 1007 l 456 851 l 370 846 l 210 1003 l 247 1044 l 413 936 l 567 1045 z "},"Đ":{"ha":844,"x_min":56,"x_max":781,"o":"m 781 417 q 754 232 781 312 q 675 97 726 151 q 551 17 624 44 q 388 -8 478 -10 q 307 -4 354 -7 q 220 0 261 0 l 56 0 l 56 52 l 137 66 q 157 76 150 68 q 163 96 163 84 l 163 374 l 61 374 l 61 437 l 163 437 l 163 692 q 157 710 163 703 q 140 720 151 718 l 56 736 l 56 789 l 218 789 q 311 793 267 789 q 402 796 355 796 q 689 699 597 796 q 781 417 781 602 m 275 59 q 333 52 297 54 q 398 50 370 49 q 592 135 523 54 q 661 398 661 217 q 591 657 661 574 q 378 740 521 740 q 319 737 345 740 q 275 733 292 734 l 275 437 l 453 437 l 453 374 l 275 374 l 275 59 z "},"È":{"ha":709,"x_min":55,"x_max":663,"o":"m 615 595 l 559 595 l 535 690 q 525 709 532 702 q 506 720 518 716 q 461 730 489 727 q 401 732 434 732 l 275 732 l 275 435 l 521 444 l 521 366 l 275 373 l 275 62 l 430 62 q 493 64 463 62 q 541 73 524 67 q 559 85 553 78 q 569 103 565 92 l 607 213 l 663 205 q 657 104 662 156 q 641 0 651 52 l 55 0 l 55 52 l 136 66 q 156 77 149 69 q 162 98 162 85 l 162 689 q 155 710 162 702 q 136 721 148 718 l 55 736 l 55 789 l 616 789 q 619 694 620 742 q 615 595 619 646 m 250 1053 l 479 885 l 454 841 q 383 871 421 855 q 310 905 345 887 q 242 940 274 922 q 189 975 211 958 l 250 1053 z "},"É":{"ha":709,"x_min":55,"x_max":663,"o":"m 615 595 l 559 595 l 535 690 q 525 709 532 702 q 506 720 518 716 q 461 730 489 727 q 401 732 434 732 l 275 732 l 275 435 l 521 444 l 521 366 l 275 373 l 275 62 l 430 62 q 493 64 463 62 q 541 73 524 67 q 559 85 553 78 q 569 103 565 92 l 607 213 l 663 205 q 657 104 662 156 q 641 0 651 52 l 55 0 l 55 52 l 136 66 q 156 77 149 69 q 162 98 162 85 l 162 689 q 155 710 162 702 q 136 721 148 718 l 55 736 l 55 789 l 616 789 q 619 694 620 742 q 615 595 619 646 m 562 968 q 507 935 540 952 q 436 901 473 918 q 359 870 398 885 q 286 842 320 855 l 264 885 l 505 1047 l 562 968 z "},"Ê":{"ha":709,"x_min":55,"x_max":663,"o":"m 615 595 l 559 595 l 535 690 q 525 709 532 702 q 506 720 518 716 q 461 730 489 727 q 401 732 434 732 l 275 732 l 275 435 l 521 444 l 521 366 l 275 373 l 275 62 l 430 62 q 493 64 463 62 q 541 73 524 67 q 559 85 553 78 q 569 103 565 92 l 607 213 l 663 205 q 657 104 662 156 q 641 0 651 52 l 55 0 l 55 52 l 136 66 q 156 77 149 69 q 162 98 162 85 l 162 689 q 155 710 162 702 q 136 721 148 718 l 55 736 l 55 789 l 616 789 q 619 694 620 742 q 615 595 619 646 m 210 840 l 175 879 l 320 1034 l 407 1039 l 566 882 l 529 841 l 363 949 l 210 840 z "},"Ē":{"ha":709,"x_min":55,"x_max":663,"o":"m 615 595 l 559 595 l 535 690 q 525 709 532 702 q 506 720 518 716 q 461 730 489 727 q 401 732 434 732 l 275 732 l 275 435 l 521 444 l 521 366 l 275 373 l 275 62 l 430 62 q 493 64 463 62 q 541 73 524 67 q 559 85 553 78 q 569 103 565 92 l 607 213 l 663 205 q 657 104 662 156 q 641 0 651 52 l 55 0 l 55 52 l 136 66 q 156 77 149 69 q 162 98 162 85 l 162 689 q 155 710 162 702 q 136 721 148 718 l 55 736 l 55 789 l 616 789 q 619 694 620 742 q 615 595 619 646 m 199 887 l 199 961 l 541 961 l 541 887 l 199 887 z "},"Ĕ":{"ha":709,"x_min":55,"x_max":663,"o":"m 615 595 l 559 595 l 535 690 q 525 709 532 702 q 506 720 518 716 q 461 730 489 727 q 401 732 434 732 l 275 732 l 275 435 l 521 444 l 521 366 l 275 373 l 275 62 l 430 62 q 493 64 463 62 q 541 73 524 67 q 559 85 553 78 q 569 103 565 92 l 607 213 l 663 205 q 657 104 662 156 q 641 0 651 52 l 55 0 l 55 52 l 136 66 q 156 77 149 69 q 162 98 162 85 l 162 689 q 155 710 162 702 q 136 721 148 718 l 55 736 l 55 789 l 616 789 q 619 694 620 742 q 615 595 619 646 m 562 1001 q 537 943 554 970 q 495 896 520 916 q 438 863 470 875 q 369 852 406 852 q 298 864 330 852 q 241 897 266 876 q 201 945 217 918 q 179 1001 185 972 l 231 1024 q 290 959 254 982 q 372 936 326 936 q 453 958 415 936 q 518 1024 491 979 l 562 1001 z "},"Ė":{"ha":709,"x_min":55,"x_max":663,"o":"m 615 595 l 559 595 l 535 690 q 525 709 532 702 q 506 720 518 716 q 461 730 489 727 q 401 732 434 732 l 275 732 l 275 435 l 521 444 l 521 366 l 275 373 l 275 62 l 430 62 q 493 64 463 62 q 541 73 524 67 q 559 85 553 78 q 569 103 565 92 l 607 213 l 663 205 q 657 104 662 156 q 641 0 651 52 l 55 0 l 55 52 l 136 66 q 156 77 149 69 q 162 98 162 85 l 162 689 q 155 710 162 702 q 136 721 148 718 l 55 736 l 55 789 l 616 789 q 619 694 620 742 q 615 595 619 646 m 446 936 q 425 883 446 904 q 371 863 404 863 q 316 883 337 863 q 295 936 295 904 q 316 989 295 969 q 371 1010 337 1010 q 425 989 404 1010 q 446 936 446 969 z "},"Ë":{"ha":709,"x_min":55,"x_max":663,"o":"m 615 595 l 559 595 l 535 690 q 525 709 532 702 q 506 720 518 716 q 461 730 489 727 q 401 732 434 732 l 275 732 l 275 435 l 521 444 l 521 366 l 275 373 l 275 62 l 430 62 q 493 64 463 62 q 541 73 524 67 q 559 85 553 78 q 569 103 565 92 l 607 213 l 663 205 q 657 104 662 156 q 641 0 651 52 l 55 0 l 55 52 l 136 66 q 156 77 149 69 q 162 98 162 85 l 162 689 q 155 710 162 702 q 136 721 148 718 l 55 736 l 55 789 l 616 789 q 619 694 620 742 q 615 595 619 646 m 559 927 q 541 879 559 898 q 494 861 523 861 q 447 879 465 861 q 429 927 429 898 q 447 975 429 957 q 494 994 465 994 q 541 975 523 994 q 559 927 559 957 m 312 927 q 294 879 312 898 q 247 861 276 861 q 200 879 218 861 q 182 927 182 898 q 200 975 182 957 q 247 994 218 994 q 294 975 276 994 q 312 927 312 957 z "},"Ě":{"ha":709,"x_min":55,"x_max":663,"o":"m 615 595 l 559 595 l 535 690 q 525 709 532 702 q 506 720 518 716 q 461 730 489 727 q 401 732 434 732 l 275 732 l 275 435 l 521 444 l 521 366 l 275 373 l 275 62 l 430 62 q 493 64 463 62 q 541 73 524 67 q 559 85 553 78 q 569 103 565 92 l 607 213 l 663 205 q 657 104 662 156 q 641 0 651 52 l 55 0 l 55 52 l 136 66 q 156 77 149 69 q 162 98 162 85 l 162 689 q 155 710 162 702 q 136 721 148 718 l 55 736 l 55 789 l 616 789 q 619 694 620 742 q 615 595 619 646 m 531 1045 l 566 1007 l 421 851 l 334 846 l 175 1003 l 212 1044 l 378 936 l 531 1045 z "},"Ę":{"ha":709,"x_min":55,"x_max":663,"o":"m 655 -222 q 594 -250 630 -240 q 524 -260 559 -260 q 435 -236 472 -260 q 397 -163 397 -213 q 409 -112 397 -136 q 441 -68 421 -88 q 488 -31 461 -47 q 543 -3 514 -14 l 543 0 l 55 0 l 55 52 l 136 66 q 156 77 149 69 q 162 98 162 85 l 162 689 q 155 710 162 702 q 136 721 148 718 l 55 736 l 55 789 l 616 789 q 619 694 620 742 q 615 595 619 646 l 559 595 l 535 690 q 525 709 532 702 q 506 720 518 716 q 461 730 489 727 q 401 732 434 732 l 275 732 l 275 435 l 521 444 l 521 366 l 275 373 l 275 62 l 430 62 q 493 64 463 62 q 541 73 524 67 q 559 85 553 78 q 569 103 565 92 l 607 213 l 663 205 q 657 104 662 156 q 641 0 651 52 q 586 -22 613 -8 q 539 -54 559 -36 q 506 -92 518 -72 q 494 -134 494 -113 q 514 -178 494 -164 q 566 -192 535 -192 q 600 -188 582 -192 q 635 -177 618 -185 l 655 -222 z "},"Ĝ":{"ha":805,"x_min":63,"x_max":760,"o":"m 673 -5 l 607 62 q 518 7 570 26 q 402 -13 467 -13 q 255 16 319 -13 q 149 97 191 45 q 84 223 106 149 q 63 386 63 297 q 91 568 63 489 q 170 698 119 646 q 294 776 222 749 q 455 802 367 802 q 578 790 517 802 q 690 752 639 778 q 689 664 692 708 q 680 575 686 620 l 613 575 l 590 677 q 581 700 586 691 q 564 716 575 709 q 510 737 544 728 q 435 745 476 745 q 337 724 382 745 q 259 661 291 704 q 209 552 227 618 q 191 397 191 486 q 204 263 191 325 q 247 156 218 201 q 323 85 276 111 q 436 59 370 59 q 519 71 479 59 q 589 109 558 82 l 589 328 l 449 339 l 449 399 l 760 399 l 760 339 l 699 329 l 699 7 l 673 -5 m 272 840 l 237 879 l 383 1034 l 469 1039 l 629 882 l 592 841 l 426 949 l 272 840 z "},"Ğ":{"ha":805,"x_min":63,"x_max":760,"o":"m 673 -5 l 607 62 q 518 7 570 26 q 402 -13 467 -13 q 255 16 319 -13 q 149 97 191 45 q 84 223 106 149 q 63 386 63 297 q 91 568 63 489 q 170 698 119 646 q 294 776 222 749 q 455 802 367 802 q 578 790 517 802 q 690 752 639 778 q 689 664 692 708 q 680 575 686 620 l 613 575 l 590 677 q 581 700 586 691 q 564 716 575 709 q 510 737 544 728 q 435 745 476 745 q 337 724 382 745 q 259 661 291 704 q 209 552 227 618 q 191 397 191 486 q 204 263 191 325 q 247 156 218 201 q 323 85 276 111 q 436 59 370 59 q 519 71 479 59 q 589 109 558 82 l 589 328 l 449 339 l 449 399 l 760 399 l 760 339 l 699 329 l 699 7 l 673 -5 m 625 1001 q 599 943 617 970 q 558 896 582 916 q 501 863 533 875 q 431 852 469 852 q 361 864 393 852 q 304 897 328 876 q 264 945 280 918 q 242 1001 248 972 l 294 1024 q 353 959 317 982 q 435 936 388 936 q 516 958 478 936 q 580 1024 554 979 l 625 1001 z "},"Ġ":{"ha":805,"x_min":63,"x_max":760,"o":"m 673 -5 l 607 62 q 518 7 570 26 q 402 -13 467 -13 q 255 16 319 -13 q 149 97 191 45 q 84 223 106 149 q 63 386 63 297 q 91 568 63 489 q 170 698 119 646 q 294 776 222 749 q 455 802 367 802 q 578 790 517 802 q 690 752 639 778 q 689 664 692 708 q 680 575 686 620 l 613 575 l 590 677 q 581 700 586 691 q 564 716 575 709 q 510 737 544 728 q 435 745 476 745 q 337 724 382 745 q 259 661 291 704 q 209 552 227 618 q 191 397 191 486 q 204 263 191 325 q 247 156 218 201 q 323 85 276 111 q 436 59 370 59 q 519 71 479 59 q 589 109 558 82 l 589 328 l 449 339 l 449 399 l 760 399 l 760 339 l 699 329 l 699 7 l 673 -5 m 509 936 q 488 883 509 904 q 433 863 467 863 q 379 883 400 863 q 358 936 358 904 q 379 989 358 969 q 433 1010 400 1010 q 488 989 467 1010 q 509 936 509 969 z "},"Ģ":{"ha":805,"x_min":63,"x_max":760,"o":"m 673 -5 l 607 62 q 518 7 570 26 q 402 -13 467 -13 q 255 16 319 -13 q 149 97 191 45 q 84 223 106 149 q 63 386 63 297 q 91 568 63 489 q 170 698 119 646 q 294 776 222 749 q 455 802 367 802 q 578 790 517 802 q 690 752 639 778 q 689 664 692 708 q 680 575 686 620 l 613 575 l 590 677 q 581 700 586 691 q 564 716 575 709 q 510 737 544 728 q 435 745 476 745 q 337 724 382 745 q 259 661 291 704 q 209 552 227 618 q 191 397 191 486 q 204 263 191 325 q 247 156 218 201 q 323 85 276 111 q 436 59 370 59 q 519 71 479 59 q 589 109 558 82 l 589 328 l 449 339 l 449 399 l 760 399 l 760 339 l 699 329 l 699 7 l 673 -5 m 483 -147 q 451 -234 483 -196 q 377 -294 419 -272 l 349 -263 q 383 -229 368 -248 q 399 -188 399 -210 q 391 -165 399 -171 q 377 -154 383 -158 q 360 -138 369 -148 q 352 -109 352 -128 q 368 -71 352 -86 q 408 -56 383 -56 q 462 -82 441 -56 q 483 -147 484 -108 z "},"Ĥ":{"ha":921,"x_min":55,"x_max":866,"o":"m 866 789 l 866 736 l 785 721 q 766 710 773 718 q 759 688 759 701 l 759 98 q 766 77 759 85 q 785 67 772 69 l 866 52 l 866 0 l 551 0 l 551 52 l 620 66 q 640 77 633 69 q 646 98 646 85 l 646 372 l 275 372 l 275 98 q 281 77 275 85 q 301 66 288 69 l 375 52 l 375 0 l 55 0 l 55 52 l 136 67 q 156 77 149 69 q 162 98 162 85 l 162 688 q 155 710 162 702 q 136 721 148 718 l 55 736 l 55 789 l 375 789 l 375 736 l 300 721 q 281 710 287 718 q 275 689 275 702 l 275 436 l 646 436 l 646 689 q 640 710 646 702 q 621 721 633 718 l 551 736 l 551 789 l 866 789 m 302 840 l 267 879 l 412 1034 l 498 1039 l 658 882 l 621 841 l 455 949 l 302 840 z "},"Ħ":{"ha":922,"x_min":56,"x_max":867,"o":"m 275 411 l 647 411 l 647 528 l 275 528 l 275 411 m 376 52 l 376 0 l 56 0 l 56 52 l 136 67 q 156 77 149 69 q 163 98 163 85 l 163 528 l 61 528 l 61 584 l 163 584 l 163 688 q 156 710 163 702 q 136 721 149 718 l 56 736 l 56 789 l 375 789 l 375 736 l 301 721 q 282 710 288 718 q 275 689 275 702 l 275 584 l 647 584 l 647 689 q 640 710 647 702 q 621 721 634 718 l 552 736 l 552 789 l 867 789 l 867 736 l 786 721 q 766 710 773 718 q 760 688 760 701 l 760 584 l 862 584 l 862 528 l 760 528 l 760 98 q 766 77 760 85 q 786 67 773 69 l 867 52 l 867 0 l 551 0 l 551 52 l 621 66 q 640 77 633 69 q 647 98 647 85 l 647 347 l 275 347 l 275 98 q 282 77 275 85 q 301 66 288 69 l 376 52 z "},"Ì":{"ha":437,"x_min":37,"x_max":381,"o":"m 381 789 l 381 736 l 301 721 q 282 710 288 718 q 275 689 275 702 l 275 98 q 281 77 275 85 q 301 66 288 69 l 381 52 l 381 0 l 55 0 l 55 52 l 136 66 q 156 77 149 69 q 162 98 162 85 l 162 689 q 155 710 162 702 q 136 721 148 718 l 55 736 l 55 789 l 381 789 m 97 1053 l 327 885 l 302 841 q 231 871 268 855 q 157 905 193 887 q 90 940 122 922 q 37 975 58 958 l 97 1053 z "},"Í":{"ha":437,"x_min":55,"x_max":409,"o":"m 381 789 l 381 736 l 301 721 q 282 710 288 718 q 275 689 275 702 l 275 98 q 281 77 275 85 q 301 66 288 69 l 381 52 l 381 0 l 55 0 l 55 52 l 136 66 q 156 77 149 69 q 162 98 162 85 l 162 689 q 155 710 162 702 q 136 721 148 718 l 55 736 l 55 789 l 381 789 m 409 968 q 354 935 387 952 q 283 901 321 918 q 206 870 245 885 q 133 842 167 855 l 111 885 l 352 1047 l 409 968 z "},"Î":{"ha":437,"x_min":22,"x_max":414,"o":"m 381 789 l 381 736 l 301 721 q 282 710 288 718 q 275 689 275 702 l 275 98 q 281 77 275 85 q 301 66 288 69 l 381 52 l 381 0 l 55 0 l 55 52 l 136 66 q 156 77 149 69 q 162 98 162 85 l 162 689 q 155 710 162 702 q 136 721 148 718 l 55 736 l 55 789 l 381 789 m 57 840 l 22 879 l 168 1034 l 254 1039 l 414 882 l 377 841 l 211 949 l 57 840 z "},"Ĩ":{"ha":437,"x_min":2,"x_max":434,"o":"m 381 789 l 381 736 l 301 721 q 282 710 288 718 q 275 689 275 702 l 275 98 q 281 77 275 85 q 301 66 288 69 l 381 52 l 381 0 l 55 0 l 55 52 l 136 66 q 156 77 149 69 q 162 98 162 85 l 162 689 q 155 710 162 702 q 136 721 148 718 l 55 736 l 55 789 l 381 789 m 434 982 q 415 937 428 960 q 384 896 402 914 q 343 867 366 878 q 294 856 321 856 q 244 867 267 856 q 201 891 221 878 q 162 916 181 905 q 124 927 143 927 q 76 905 97 927 q 40 861 55 883 l 2 883 q 21 928 9 905 q 52 968 34 951 q 93 997 70 986 q 142 1009 116 1009 q 192 997 169 1009 q 235 973 215 986 q 274 949 256 960 q 312 938 293 938 q 360 959 339 938 q 396 1003 381 981 l 434 982 z "},"Ī":{"ha":437,"x_min":47,"x_max":389,"o":"m 381 789 l 381 736 l 301 721 q 282 710 288 718 q 275 689 275 702 l 275 98 q 281 77 275 85 q 301 66 288 69 l 381 52 l 381 0 l 55 0 l 55 52 l 136 66 q 156 77 149 69 q 162 98 162 85 l 162 689 q 155 710 162 702 q 136 721 148 718 l 55 736 l 55 789 l 381 789 m 47 887 l 47 961 l 389 961 l 389 887 l 47 887 z "},"Ĭ":{"ha":437,"x_min":27,"x_max":410,"o":"m 381 789 l 381 736 l 301 721 q 282 710 288 718 q 275 689 275 702 l 275 98 q 281 77 275 85 q 301 66 288 69 l 381 52 l 381 0 l 55 0 l 55 52 l 136 66 q 156 77 149 69 q 162 98 162 85 l 162 689 q 155 710 162 702 q 136 721 148 718 l 55 736 l 55 789 l 381 789 m 410 1001 q 384 943 402 970 q 342 896 367 916 q 286 863 318 875 q 216 852 254 852 q 145 864 178 852 q 89 897 113 876 q 49 945 65 918 q 27 1001 33 972 l 79 1024 q 137 959 102 982 q 220 936 173 936 q 301 958 263 936 q 365 1024 339 979 l 410 1001 z "},"İ":{"ha":437,"x_min":55,"x_max":381,"o":"m 381 789 l 381 736 l 301 721 q 282 710 288 718 q 275 689 275 702 l 275 98 q 281 77 275 85 q 301 66 288 69 l 381 52 l 381 0 l 55 0 l 55 52 l 136 66 q 156 77 149 69 q 162 98 162 85 l 162 689 q 155 710 162 702 q 136 721 148 718 l 55 736 l 55 789 l 381 789 m 293 936 q 272 883 293 904 q 218 863 252 863 q 164 883 185 863 q 143 936 143 904 q 164 989 143 969 q 218 1010 185 1010 q 272 989 252 1010 q 293 936 293 969 z "},"Ï":{"ha":437,"x_min":29,"x_max":407,"o":"m 381 789 l 381 736 l 301 721 q 282 710 288 718 q 275 689 275 702 l 275 98 q 281 77 275 85 q 301 66 288 69 l 381 52 l 381 0 l 55 0 l 55 52 l 136 66 q 156 77 149 69 q 162 98 162 85 l 162 689 q 155 710 162 702 q 136 721 148 718 l 55 736 l 55 789 l 381 789 m 407 927 q 388 879 407 898 q 341 861 370 861 q 294 879 313 861 q 276 927 276 898 q 294 975 276 957 q 341 994 313 994 q 388 975 370 994 q 407 927 407 957 m 160 927 q 141 879 160 898 q 94 861 123 861 q 47 879 65 861 q 29 927 29 898 q 47 975 29 957 q 94 994 65 994 q 141 975 123 994 q 160 927 160 957 z "},"Į":{"ha":437,"x_min":55,"x_max":381,"o":"m 341 -222 q 280 -250 316 -240 q 210 -260 245 -260 q 121 -236 159 -260 q 84 -163 84 -213 q 95 -112 84 -136 q 126 -68 107 -88 q 169 -31 144 -47 q 219 -3 193 -14 l 219 0 l 55 0 l 55 52 l 136 66 q 156 77 149 69 q 162 98 162 85 l 162 689 q 155 710 162 702 q 136 721 148 718 l 55 736 l 55 789 l 381 789 l 381 736 l 301 721 q 282 710 288 718 q 275 689 275 702 l 275 98 q 281 77 275 85 q 301 66 288 69 l 381 52 l 381 0 l 306 0 q 216 -58 252 -22 q 180 -134 180 -95 q 201 -178 180 -164 q 252 -192 221 -192 q 286 -188 268 -192 q 321 -177 304 -185 l 341 -222 z "},"Ĳ":{"ha":828,"x_min":55,"x_max":779,"o":"m 381 789 l 381 736 l 301 721 q 282 710 288 718 q 275 689 275 702 l 275 98 q 281 77 275 85 q 301 66 288 69 l 381 52 l 381 0 l 55 0 l 55 52 l 136 66 q 156 77 149 69 q 162 98 162 85 l 162 689 q 155 710 162 702 q 136 721 148 718 l 55 736 l 55 789 l 381 789 m 709 721 q 689 710 696 718 q 682 689 682 702 l 682 215 q 674 65 682 127 q 641 -42 667 3 q 568 -122 616 -87 q 441 -191 520 -157 l 416 -141 q 493 -76 463 -107 q 540 -8 523 -45 q 564 77 558 29 q 570 194 570 126 l 570 689 q 563 710 570 702 q 544 721 557 718 l 463 736 l 463 789 l 779 789 l 779 736 l 709 721 z "},"ﰁ":{"ha":409,"x_min":-4,"x_max":393,"o":"m 289 721 q 270 710 277 718 q 263 689 263 702 l 263 215 q 255 65 263 127 q 222 -42 247 3 q 149 -122 197 -87 q 22 -191 101 -157 l -4 -141 q 74 -76 44 -107 q 121 -8 104 -45 q 145 77 138 29 q 151 194 151 126 l 151 689 q 144 710 151 702 q 125 721 137 718 l 44 736 l 44 789 l 360 789 l 360 736 l 289 721 m 393 968 q 338 935 371 952 q 267 901 305 918 q 190 870 229 885 q 117 842 151 855 l 95 885 l 336 1047 l 393 968 z "},"Ĵ":{"ha":409,"x_min":-4,"x_max":397,"o":"m 289 721 q 270 710 277 718 q 263 689 263 702 l 263 215 q 255 65 263 127 q 222 -42 247 3 q 149 -122 197 -87 q 22 -191 101 -157 l -4 -141 q 74 -76 44 -107 q 121 -8 104 -45 q 145 77 138 29 q 151 194 151 126 l 151 689 q 144 710 151 702 q 125 721 137 718 l 44 736 l 44 789 l 360 789 l 360 736 l 289 721 m 41 840 l 6 879 l 152 1034 l 238 1039 l 397 882 l 361 841 l 194 949 l 41 840 z "},"Ķ":{"ha":802,"x_min":55,"x_max":795,"o":"m 387 52 l 387 0 l 55 0 l 55 52 l 135 67 q 155 77 147 69 q 162 97 162 84 l 162 689 q 155 710 162 703 q 135 721 148 718 l 55 736 l 55 789 l 381 789 l 381 736 l 301 721 q 281 710 288 718 q 274 689 274 702 l 274 357 l 589 718 l 498 736 l 497 789 l 772 789 l 772 737 l 701 721 q 682 714 690 718 q 666 702 674 710 l 456 471 q 506 404 481 441 q 563 313 530 367 l 690 105 q 712 78 702 86 q 739 65 721 69 l 795 52 l 795 0 l 634 0 q 595 30 617 0 q 543 112 572 60 l 456 268 q 418 336 435 306 q 383 390 400 365 l 274 270 l 274 97 q 281 76 274 83 q 302 67 288 69 l 387 52 m 521 -147 q 488 -234 520 -196 q 414 -294 457 -272 l 386 -263 q 421 -229 405 -248 q 436 -188 436 -210 q 429 -165 436 -171 q 414 -154 421 -158 q 398 -138 406 -148 q 389 -109 389 -128 q 405 -71 389 -86 q 445 -56 421 -56 q 500 -82 478 -56 q 521 -147 521 -108 z "},"Ĺ":{"ha":690,"x_min":55,"x_max":660,"o":"m 559 104 l 602 241 l 660 233 q 654 117 659 179 q 638 0 649 55 l 55 0 l 55 52 l 136 66 q 156 76 149 68 q 162 97 162 84 l 162 689 q 156 711 162 703 q 136 721 149 719 l 55 736 l 55 789 l 406 789 l 406 736 l 301 720 q 281 710 288 718 q 274 689 274 702 l 274 62 l 418 62 q 483 65 454 62 q 529 74 512 68 q 548 85 541 78 q 559 104 555 92 m 452 968 q 397 935 430 952 q 326 901 364 918 q 249 870 288 885 q 176 842 210 855 l 154 885 l 395 1047 l 452 968 z "},"Ļ":{"ha":690,"x_min":55,"x_max":660,"o":"m 559 104 l 602 241 l 660 233 q 654 117 659 179 q 638 0 649 55 l 55 0 l 55 52 l 136 66 q 156 76 149 68 q 162 97 162 84 l 162 689 q 156 711 162 703 q 136 721 149 719 l 55 736 l 55 789 l 406 789 l 406 736 l 301 720 q 281 710 288 718 q 274 689 274 702 l 274 62 l 418 62 q 483 65 454 62 q 529 74 512 68 q 548 85 541 78 q 559 104 555 92 m 454 -147 q 422 -234 454 -196 q 347 -294 390 -272 l 320 -263 q 354 -229 338 -248 q 370 -188 370 -210 q 362 -165 370 -171 q 347 -154 354 -158 q 331 -138 339 -148 q 323 -109 323 -128 q 338 -71 323 -86 q 379 -56 354 -56 q 433 -82 412 -56 q 454 -147 455 -108 z "},"Ľ":{"ha":691,"x_min":55,"x_max":660,"o":"m 559 104 l 602 241 l 660 233 q 654 117 659 179 q 638 0 649 55 l 55 0 l 55 52 l 136 66 q 156 76 149 68 q 162 97 162 84 l 162 689 q 156 711 162 703 q 136 721 149 719 l 55 736 l 55 789 l 406 789 l 406 736 l 301 720 q 281 710 288 718 q 274 689 274 702 l 274 62 l 418 62 q 483 65 454 62 q 529 74 512 68 q 548 85 541 78 q 559 104 555 92 m 510 550 l 459 561 l 481 838 l 578 826 q 552 688 570 762 q 510 550 534 615 z "},"Ŀ":{"ha":692,"x_min":55,"x_max":660,"o":"m 559 104 l 602 241 l 660 233 q 654 117 659 179 q 638 0 649 55 l 55 0 l 55 52 l 136 66 q 156 76 149 68 q 162 97 162 84 l 162 689 q 156 711 162 703 q 136 721 149 719 l 55 736 l 55 789 l 406 789 l 406 736 l 301 720 q 281 710 288 718 q 274 689 274 702 l 274 62 l 418 62 q 483 65 454 62 q 529 74 512 68 q 548 85 541 78 q 559 104 555 92 m 624 433 q 603 381 624 402 q 549 361 582 361 q 495 381 516 361 q 475 433 475 402 q 495 486 475 466 q 549 506 516 506 q 603 486 582 506 q 624 433 624 466 z "},"Ł":{"ha":691,"x_min":54,"x_max":661,"o":"m 639 0 l 57 0 l 57 52 l 137 66 q 157 76 150 68 q 164 97 164 84 l 164 318 l 54 272 l 54 342 l 164 385 l 164 689 q 157 711 164 703 q 137 721 150 719 l 57 736 l 57 789 l 408 789 l 408 736 l 303 720 q 283 710 289 718 q 276 689 276 702 l 276 426 l 498 524 l 498 451 l 276 358 l 276 62 l 420 62 q 484 65 455 62 q 531 74 513 68 q 549 85 542 78 q 560 104 556 92 l 604 241 l 661 233 q 656 117 661 179 q 639 0 651 55 z "},"Ń":{"ha":898,"x_min":55,"x_max":849,"o":"m 353 52 l 353 0 l 55 0 l 55 52 l 136 66 q 156 77 149 69 q 162 98 162 85 l 162 689 q 155 710 162 702 q 136 721 148 718 l 55 736 l 55 789 l 275 789 l 678 173 l 678 689 q 671 710 678 702 q 652 721 665 718 l 566 736 l 566 789 l 849 789 l 849 736 l 778 721 q 758 710 765 718 q 752 689 752 702 l 752 0 l 658 0 l 235 644 l 235 98 q 242 76 235 84 q 262 66 248 68 l 353 52 m 635 968 q 580 935 614 952 q 509 901 547 918 q 433 870 472 885 q 360 842 393 855 l 337 885 l 578 1047 l 635 968 z "},"Ñ":{"ha":898,"x_min":55,"x_max":849,"o":"m 353 52 l 353 0 l 55 0 l 55 52 l 136 66 q 156 77 149 69 q 162 98 162 85 l 162 689 q 155 710 162 702 q 136 721 148 718 l 55 736 l 55 789 l 275 789 l 678 173 l 678 689 q 671 710 678 702 q 652 721 665 718 l 566 736 l 566 789 l 849 789 l 849 736 l 778 721 q 758 710 765 718 q 752 689 752 702 l 752 0 l 658 0 l 235 644 l 235 98 q 242 76 235 84 q 262 66 248 68 l 353 52 m 661 982 q 641 937 654 960 q 610 896 628 914 q 570 867 592 878 q 521 856 547 856 q 470 867 493 856 q 427 891 447 878 q 388 916 407 905 q 351 927 370 927 q 302 905 323 927 q 266 861 281 883 l 228 883 q 248 928 235 905 q 279 968 261 951 q 319 997 296 986 q 368 1009 342 1009 q 418 997 395 1009 q 462 973 441 986 q 501 949 482 960 q 538 938 519 938 q 587 959 566 938 q 623 1003 608 981 l 661 982 z "},"Ň":{"ha":898,"x_min":55,"x_max":849,"o":"m 353 52 l 353 0 l 55 0 l 55 52 l 136 66 q 156 77 149 69 q 162 98 162 85 l 162 689 q 155 710 162 702 q 136 721 148 718 l 55 736 l 55 789 l 275 789 l 678 173 l 678 689 q 671 710 678 702 q 652 721 665 718 l 566 736 l 566 789 l 849 789 l 849 736 l 778 721 q 758 710 765 718 q 752 689 752 702 l 752 0 l 658 0 l 235 644 l 235 98 q 242 76 235 84 q 262 66 248 68 l 353 52 m 605 1045 l 640 1007 l 494 851 l 408 846 l 248 1003 l 285 1044 l 452 936 l 605 1045 z "},"Ŋ":{"ha":898,"x_min":55,"x_max":849,"o":"m 532 -254 q 498 -253 514 -254 q 463 -248 482 -251 l 459 -191 q 523 -178 490 -187 q 581 -154 557 -169 q 640 -94 618 -132 q 670 -2 662 -56 l 235 646 l 235 98 q 242 77 235 85 q 262 66 248 68 l 353 52 l 353 0 l 55 0 l 55 52 l 136 66 q 156 77 149 69 q 162 98 162 85 l 162 689 q 155 710 162 702 q 136 721 148 718 l 55 736 l 55 789 l 275 789 l 678 182 l 678 689 q 671 710 678 702 q 652 721 665 718 l 566 736 l 566 789 l 849 789 l 849 736 l 778 721 q 758 710 765 718 q 752 689 752 702 l 751 32 q 741 -83 751 -30 q 706 -174 731 -136 q 639 -233 681 -212 q 532 -254 596 -254 z "},"Ņ":{"ha":898,"x_min":55,"x_max":849,"o":"m 353 52 l 353 0 l 55 0 l 55 52 l 136 66 q 156 77 149 69 q 162 98 162 85 l 162 689 q 155 710 162 702 q 136 721 148 718 l 55 736 l 55 789 l 275 789 l 678 173 l 678 689 q 671 710 678 702 q 652 721 665 718 l 566 736 l 566 789 l 849 789 l 849 736 l 778 721 q 758 710 765 718 q 752 689 752 702 l 752 0 l 658 0 l 235 644 l 235 98 q 242 76 235 84 q 262 66 248 68 l 353 52 m 547 -147 q 515 -234 547 -196 q 441 -294 483 -272 l 413 -263 q 447 -229 432 -248 q 463 -188 463 -210 q 455 -165 463 -171 q 441 -154 447 -158 q 424 -138 433 -148 q 416 -109 416 -128 q 432 -71 416 -86 q 472 -56 447 -56 q 527 -82 505 -56 q 547 -147 548 -108 z "},"Ò":{"ha":809,"x_min":63,"x_max":746,"o":"m 391 -13 q 248 14 310 -13 q 145 93 186 42 q 84 217 105 144 q 63 382 63 291 q 89 561 63 483 q 160 693 114 640 q 272 774 207 746 q 418 802 338 802 q 561 774 499 802 q 664 696 623 746 q 725 572 705 645 q 746 408 746 498 q 721 229 746 308 q 650 97 696 151 q 538 15 604 43 q 391 -13 472 -13 m 406 742 q 245 656 303 742 q 187 393 187 570 q 241 135 187 224 q 403 47 295 47 q 563 134 506 47 q 621 397 621 221 q 567 654 621 567 q 406 742 514 742 m 284 1053 l 513 885 l 488 841 q 417 871 455 855 q 344 905 379 887 q 276 940 308 922 q 223 975 244 958 l 284 1053 z "},"Ó":{"ha":809,"x_min":63,"x_max":746,"o":"m 391 -13 q 248 14 310 -13 q 145 93 186 42 q 84 217 105 144 q 63 382 63 291 q 89 561 63 483 q 160 693 114 640 q 272 774 207 746 q 418 802 338 802 q 561 774 499 802 q 664 696 623 746 q 725 572 705 645 q 746 408 746 498 q 721 229 746 308 q 650 97 696 151 q 538 15 604 43 q 391 -13 472 -13 m 406 742 q 245 656 303 742 q 187 393 187 570 q 241 135 187 224 q 403 47 295 47 q 563 134 506 47 q 621 397 621 221 q 567 654 621 567 q 406 742 514 742 m 595 968 q 540 935 574 952 q 469 901 507 918 q 393 870 432 885 q 320 842 354 855 l 297 885 l 538 1047 l 595 968 z "},"Ô":{"ha":809,"x_min":63,"x_max":746,"o":"m 391 -13 q 248 14 310 -13 q 145 93 186 42 q 84 217 105 144 q 63 382 63 291 q 89 561 63 483 q 160 693 114 640 q 272 774 207 746 q 418 802 338 802 q 561 774 499 802 q 664 696 623 746 q 725 572 705 645 q 746 408 746 498 q 721 229 746 308 q 650 97 696 151 q 538 15 604 43 q 391 -13 472 -13 m 406 742 q 245 656 303 742 q 187 393 187 570 q 241 135 187 224 q 403 47 295 47 q 563 134 506 47 q 621 397 621 221 q 567 654 621 567 q 406 742 514 742 m 243 840 l 209 879 l 354 1034 l 440 1039 l 600 882 l 563 841 l 397 949 l 243 840 z "},"Õ":{"ha":809,"x_min":63,"x_max":746,"o":"m 391 -13 q 248 14 310 -13 q 145 93 186 42 q 84 217 105 144 q 63 382 63 291 q 89 561 63 483 q 160 693 114 640 q 272 774 207 746 q 418 802 338 802 q 561 774 499 802 q 664 696 623 746 q 725 572 705 645 q 746 408 746 498 q 721 229 746 308 q 650 97 696 151 q 538 15 604 43 q 391 -13 472 -13 m 406 742 q 245 656 303 742 q 187 393 187 570 q 241 135 187 224 q 403 47 295 47 q 563 134 506 47 q 621 397 621 221 q 567 654 621 567 q 406 742 514 742 m 621 982 q 601 937 614 960 q 570 896 588 914 q 530 867 553 878 q 481 856 507 856 q 431 867 454 856 q 387 891 408 878 q 348 916 367 905 q 311 927 330 927 q 262 905 283 927 q 226 861 241 883 l 188 883 q 208 928 195 905 q 239 968 221 951 q 279 997 257 986 q 328 1009 302 1009 q 379 997 356 1009 q 422 973 402 986 q 461 949 442 960 q 498 938 479 938 q 547 959 526 938 q 583 1003 568 981 l 621 982 z "},"Ō":{"ha":809,"x_min":63,"x_max":746,"o":"m 391 -13 q 248 14 310 -13 q 145 93 186 42 q 84 217 105 144 q 63 382 63 291 q 89 561 63 483 q 160 693 114 640 q 272 774 207 746 q 418 802 338 802 q 561 774 499 802 q 664 696 623 746 q 725 572 705 645 q 746 408 746 498 q 721 229 746 308 q 650 97 696 151 q 538 15 604 43 q 391 -13 472 -13 m 406 742 q 245 656 303 742 q 187 393 187 570 q 241 135 187 224 q 403 47 295 47 q 563 134 506 47 q 621 397 621 221 q 567 654 621 567 q 406 742 514 742 m 233 887 l 233 961 l 575 961 l 575 887 l 233 887 z "},"Ŏ":{"ha":809,"x_min":63,"x_max":746,"o":"m 391 -13 q 248 14 310 -13 q 145 93 186 42 q 84 217 105 144 q 63 382 63 291 q 89 561 63 483 q 160 693 114 640 q 272 774 207 746 q 418 802 338 802 q 561 774 499 802 q 664 696 623 746 q 725 572 705 645 q 746 408 746 498 q 721 229 746 308 q 650 97 696 151 q 538 15 604 43 q 391 -13 472 -13 m 406 742 q 245 656 303 742 q 187 393 187 570 q 241 135 187 224 q 403 47 295 47 q 563 134 506 47 q 621 397 621 221 q 567 654 621 567 q 406 742 514 742 m 596 1001 q 571 943 588 970 q 529 896 554 916 q 472 863 504 875 q 403 852 440 852 q 332 864 364 852 q 275 897 299 876 q 235 945 251 918 q 213 1001 219 972 l 265 1024 q 324 959 288 982 q 406 936 360 936 q 487 958 449 936 q 552 1024 525 979 l 596 1001 z "},"Ö":{"ha":809,"x_min":63,"x_max":746,"o":"m 391 -13 q 248 14 310 -13 q 145 93 186 42 q 84 217 105 144 q 63 382 63 291 q 89 561 63 483 q 160 693 114 640 q 272 774 207 746 q 418 802 338 802 q 561 774 499 802 q 664 696 623 746 q 725 572 705 645 q 746 408 746 498 q 721 229 746 308 q 650 97 696 151 q 538 15 604 43 q 391 -13 472 -13 m 406 742 q 245 656 303 742 q 187 393 187 570 q 241 135 187 224 q 403 47 295 47 q 563 134 506 47 q 621 397 621 221 q 567 654 621 567 q 406 742 514 742 m 593 927 q 575 879 593 898 q 528 861 557 861 q 481 879 499 861 q 463 927 463 898 q 481 975 463 957 q 528 994 499 994 q 575 975 557 994 q 593 927 593 957 m 346 927 q 328 879 346 898 q 281 861 310 861 q 234 879 252 861 q 216 927 216 898 q 234 975 216 957 q 281 994 252 994 q 328 975 310 994 q 346 927 346 957 z "},"Ő":{"ha":809,"x_min":63,"x_max":746,"o":"m 391 -13 q 248 14 310 -13 q 145 93 186 42 q 84 217 105 144 q 63 382 63 291 q 89 561 63 483 q 160 693 114 640 q 272 774 207 746 q 418 802 338 802 q 561 774 499 802 q 664 696 623 746 q 725 572 705 645 q 746 408 746 498 q 721 229 746 308 q 650 97 696 151 q 538 15 604 43 q 391 -13 472 -13 m 406 742 q 245 656 303 742 q 187 393 187 570 q 241 135 187 224 q 403 47 295 47 q 563 134 506 47 q 621 397 621 221 q 567 654 621 567 q 406 742 514 742 m 489 832 l 457 867 l 619 1057 l 689 993 q 647 953 672 975 q 594 909 622 931 q 539 867 567 887 q 489 832 512 846 m 267 831 l 232 865 l 380 1057 l 454 998 q 415 957 438 979 q 366 912 392 934 q 315 869 341 890 q 267 831 289 847 z "},"Ø":{"ha":809,"x_min":62,"x_max":745,"o":"m 181 393 q 196 237 181 304 q 240 126 211 170 l 527 707 q 472 735 503 725 q 405 744 441 744 q 240 658 299 744 q 181 393 181 572 m 402 44 q 566 131 508 44 q 625 397 625 218 q 611 552 625 485 q 568 661 597 618 l 281 82 q 336 54 306 63 q 402 44 366 44 m 390 -13 q 315 -6 351 -13 q 250 13 280 1 l 195 -94 l 138 -64 l 193 45 q 95 180 128 94 q 62 382 62 267 q 87 561 62 483 q 159 693 113 640 q 271 774 205 746 q 417 802 337 802 q 492 795 457 802 q 558 775 528 788 l 604 864 l 661 833 l 615 742 q 712 608 679 694 q 745 408 745 522 q 720 229 745 308 q 649 97 695 151 q 537 15 603 43 q 390 -13 471 -13 z "},"Œ":{"ha":1076,"x_min":64,"x_max":1029,"o":"m 416 44 q 475 51 446 44 q 530 75 504 58 l 530 715 q 475 736 504 730 q 418 742 446 742 q 246 656 306 742 q 187 393 187 570 q 244 132 187 221 q 416 44 302 44 m 530 0 l 530 1 q 467 -8 499 -5 q 404 -12 435 -12 q 151 88 237 -12 q 64 378 64 187 q 89 560 64 481 q 161 691 115 639 q 275 770 208 744 q 425 797 342 797 q 477 795 450 797 q 530 788 503 792 l 530 789 l 982 789 q 986 694 986 742 q 981 595 985 646 l 925 595 l 902 690 q 891 709 898 703 q 873 720 884 716 q 828 730 856 727 q 767 732 800 732 l 641 732 l 641 435 l 887 444 l 887 366 l 641 373 l 641 62 l 796 62 q 859 64 829 62 q 907 73 890 67 q 925 85 919 78 q 935 103 931 92 l 973 213 l 1029 205 q 1023 104 1028 156 q 1008 0 1018 52 l 530 0 z "},"Ŕ":{"ha":787,"x_min":55,"x_max":771,"o":"m 274 734 l 274 405 q 311 403 291 404 q 348 403 330 403 q 382 403 367 403 q 406 403 397 403 q 510 446 470 403 q 551 580 551 489 q 513 698 551 657 q 372 740 475 740 q 315 738 342 740 q 274 734 288 735 m 387 52 l 387 0 l 55 0 l 55 52 l 135 67 q 155 77 147 69 q 162 97 162 84 l 162 689 q 155 710 162 703 q 135 721 148 718 l 55 736 l 55 789 l 218 789 q 301 793 262 789 q 390 796 340 796 q 607 745 542 796 q 671 587 671 693 q 654 489 671 529 q 612 423 637 448 q 557 384 587 397 q 501 364 527 370 q 551 317 529 345 q 594 246 572 288 l 670 101 q 688 75 679 82 q 715 64 697 68 l 771 52 l 771 0 l 615 0 q 571 33 591 0 q 525 122 552 67 l 475 230 q 439 298 457 267 q 404 347 422 329 q 332 347 366 347 q 274 347 298 347 l 274 97 q 281 76 274 83 q 302 67 288 69 l 387 52 m 568 968 q 513 935 546 952 q 442 901 480 918 q 365 870 405 885 q 292 842 326 855 l 270 885 l 511 1047 l 568 968 z "},"Ř":{"ha":787,"x_min":55,"x_max":771,"o":"m 274 734 l 274 405 q 311 403 291 404 q 348 403 330 403 q 382 403 367 403 q 406 403 397 403 q 510 446 470 403 q 551 580 551 489 q 513 698 551 657 q 372 740 475 740 q 315 738 342 740 q 274 734 288 735 m 387 52 l 387 0 l 55 0 l 55 52 l 135 67 q 155 77 147 69 q 162 97 162 84 l 162 689 q 155 710 162 703 q 135 721 148 718 l 55 736 l 55 789 l 218 789 q 301 793 262 789 q 390 796 340 796 q 607 745 542 796 q 671 587 671 693 q 654 489 671 529 q 612 423 637 448 q 557 384 587 397 q 501 364 527 370 q 551 317 529 345 q 594 246 572 288 l 670 101 q 688 75 679 82 q 715 64 697 68 l 771 52 l 771 0 l 615 0 q 571 33 591 0 q 525 122 552 67 l 475 230 q 439 298 457 267 q 404 347 422 329 q 332 347 366 347 q 274 347 298 347 l 274 97 q 281 76 274 83 q 302 67 288 69 l 387 52 m 538 1045 l 573 1007 l 427 851 l 341 846 l 181 1003 l 218 1044 l 384 936 l 538 1045 z "},"Ŗ":{"ha":787,"x_min":55,"x_max":771,"o":"m 274 734 l 274 405 q 311 403 291 404 q 348 403 330 403 q 382 403 367 403 q 406 403 397 403 q 510 446 470 403 q 551 580 551 489 q 513 698 551 657 q 372 740 475 740 q 315 738 342 740 q 274 734 288 735 m 387 52 l 387 0 l 55 0 l 55 52 l 135 67 q 155 77 147 69 q 162 97 162 84 l 162 689 q 155 710 162 703 q 135 721 148 718 l 55 736 l 55 789 l 218 789 q 301 793 262 789 q 390 796 340 796 q 607 745 542 796 q 671 587 671 693 q 654 489 671 529 q 612 423 637 448 q 557 384 587 397 q 501 364 527 370 q 551 317 529 345 q 594 246 572 288 l 670 101 q 688 75 679 82 q 715 64 697 68 l 771 52 l 771 0 l 615 0 q 571 33 591 0 q 525 122 552 67 l 475 230 q 439 298 457 267 q 404 347 422 329 q 332 347 366 347 q 274 347 298 347 l 274 97 q 281 76 274 83 q 302 67 288 69 l 387 52 m 510 -147 q 477 -234 509 -196 q 403 -294 445 -272 l 375 -263 q 410 -229 394 -248 q 425 -188 425 -210 q 417 -165 425 -171 q 403 -154 410 -158 q 387 -138 395 -148 q 378 -109 378 -128 q 394 -71 378 -86 q 434 -56 410 -56 q 489 -82 467 -56 q 510 -147 510 -108 z "},"Ś":{"ha":647,"x_min":66,"x_max":590,"o":"m 590 210 q 574 127 590 168 q 524 55 558 86 q 439 3 491 23 q 316 -17 387 -17 q 172 4 236 -17 q 68 49 108 25 q 69 148 66 97 q 78 246 71 198 l 145 246 l 164 128 q 169 111 165 120 q 182 93 173 102 q 239 56 202 73 q 324 39 277 39 q 437 76 398 39 q 475 175 475 113 q 462 237 475 211 q 426 284 449 264 q 369 321 403 304 q 296 357 336 338 q 221 394 260 374 q 152 441 183 414 q 101 506 121 469 q 81 595 81 544 q 98 678 81 640 q 147 744 115 716 q 228 787 179 771 q 340 803 276 803 q 451 791 395 803 q 547 761 508 780 q 548 664 551 711 q 539 573 546 617 l 475 573 l 455 677 q 448 696 453 686 q 433 713 443 705 q 387 737 418 727 q 322 747 357 747 q 222 716 256 747 q 187 629 187 685 q 200 570 187 595 q 236 526 212 546 q 294 488 260 506 q 373 448 329 470 q 453 407 414 429 q 522 358 492 385 q 571 294 553 330 q 590 210 590 258 m 519 968 q 464 935 497 952 q 393 901 431 918 q 316 870 356 885 q 243 842 277 855 l 221 885 l 462 1047 l 519 968 z "},"Ŝ":{"ha":647,"x_min":66,"x_max":590,"o":"m 590 210 q 574 127 590 168 q 524 55 558 86 q 439 3 491 23 q 316 -17 387 -17 q 172 4 236 -17 q 68 49 108 25 q 69 148 66 97 q 78 246 71 198 l 145 246 l 164 128 q 169 111 165 120 q 182 93 173 102 q 239 56 202 73 q 324 39 277 39 q 437 76 398 39 q 475 175 475 113 q 462 237 475 211 q 426 284 449 264 q 369 321 403 304 q 296 357 336 338 q 221 394 260 374 q 152 441 183 414 q 101 506 121 469 q 81 595 81 544 q 98 678 81 640 q 147 744 115 716 q 228 787 179 771 q 340 803 276 803 q 451 791 395 803 q 547 761 508 780 q 548 664 551 711 q 539 573 546 617 l 475 573 l 455 677 q 448 696 453 686 q 433 713 443 705 q 387 737 418 727 q 322 747 357 747 q 222 716 256 747 q 187 629 187 685 q 200 570 187 595 q 236 526 212 546 q 294 488 260 506 q 373 448 329 470 q 453 407 414 429 q 522 358 492 385 q 571 294 553 330 q 590 210 590 258 m 167 840 l 132 879 l 278 1034 l 364 1039 l 524 882 l 487 841 l 321 949 l 167 840 z "},"Š":{"ha":647,"x_min":66,"x_max":590,"o":"m 590 210 q 574 127 590 168 q 524 55 558 86 q 439 3 491 23 q 316 -17 387 -17 q 172 4 236 -17 q 68 49 108 25 q 69 148 66 97 q 78 246 71 198 l 145 246 l 164 128 q 169 111 165 120 q 182 93 173 102 q 239 56 202 73 q 324 39 277 39 q 437 76 398 39 q 475 175 475 113 q 462 237 475 211 q 426 284 449 264 q 369 321 403 304 q 296 357 336 338 q 221 394 260 374 q 152 441 183 414 q 101 506 121 469 q 81 595 81 544 q 98 678 81 640 q 147 744 115 716 q 228 787 179 771 q 340 803 276 803 q 451 791 395 803 q 547 761 508 780 q 548 664 551 711 q 539 573 546 617 l 475 573 l 455 677 q 448 696 453 686 q 433 713 443 705 q 387 737 418 727 q 322 747 357 747 q 222 716 256 747 q 187 629 187 685 q 200 570 187 595 q 236 526 212 546 q 294 488 260 506 q 373 448 329 470 q 453 407 414 429 q 522 358 492 385 q 571 294 553 330 q 590 210 590 258 m 489 1045 l 524 1007 l 378 851 l 292 846 l 132 1003 l 169 1044 l 335 936 l 489 1045 z "},"Ș":{"ha":647,"x_min":66,"x_max":590,"o":"m 590 210 q 574 127 590 168 q 524 55 558 86 q 439 3 491 23 q 316 -17 387 -17 q 172 4 236 -17 q 68 49 108 25 q 69 148 66 97 q 78 246 71 198 l 145 246 l 164 128 q 169 111 165 120 q 182 93 173 102 q 239 56 202 73 q 324 39 277 39 q 437 76 398 39 q 475 175 475 113 q 462 237 475 211 q 426 284 449 264 q 369 321 403 304 q 296 357 336 338 q 221 394 260 374 q 152 441 183 414 q 101 506 121 469 q 81 595 81 544 q 98 678 81 640 q 147 744 115 716 q 228 787 179 771 q 340 803 276 803 q 451 791 395 803 q 547 761 508 780 q 548 664 551 711 q 539 573 546 617 l 475 573 l 455 677 q 448 696 453 686 q 433 713 443 705 q 387 737 418 727 q 322 747 357 747 q 222 716 256 747 q 187 629 187 685 q 200 570 187 595 q 236 526 212 546 q 294 488 260 506 q 373 448 329 470 q 453 407 414 429 q 522 358 492 385 q 571 294 553 330 q 590 210 590 258 m 382 -147 q 350 -234 382 -196 q 276 -294 318 -272 l 248 -263 q 282 -229 267 -248 q 298 -188 298 -210 q 290 -165 298 -171 q 276 -154 282 -158 q 259 -138 268 -148 q 251 -109 251 -128 q 267 -71 251 -86 q 307 -56 282 -56 q 361 -82 340 -56 q 382 -147 383 -108 z "},"Ş":{"ha":647,"x_min":66,"x_max":590,"o":"m 590 210 q 574 127 590 168 q 524 55 558 86 q 439 3 491 23 q 316 -17 387 -17 q 172 4 236 -17 q 68 49 108 25 q 69 148 66 97 q 78 246 71 198 l 145 246 l 164 128 q 169 111 165 120 q 182 93 173 102 q 239 56 202 73 q 324 39 277 39 q 437 76 398 39 q 475 175 475 113 q 462 237 475 211 q 426 284 449 264 q 369 321 403 304 q 296 357 336 338 q 221 394 260 374 q 152 441 183 414 q 101 506 121 469 q 81 595 81 544 q 98 678 81 640 q 147 744 115 716 q 228 787 179 771 q 340 803 276 803 q 451 791 395 803 q 547 761 508 780 q 548 664 551 711 q 539 573 546 617 l 475 573 l 455 677 q 448 696 453 686 q 433 713 443 705 q 387 737 418 727 q 322 747 357 747 q 222 716 256 747 q 187 629 187 685 q 200 570 187 595 q 236 526 212 546 q 294 488 260 506 q 373 448 329 470 q 453 407 414 429 q 522 358 492 385 q 571 294 553 330 q 590 210 590 258 m 285 26 l 332 26 l 311 -44 q 320 -44 314 -44 q 333 -46 326 -45 q 390 -74 367 -51 q 413 -134 413 -97 q 399 -186 413 -163 q 361 -226 385 -210 q 305 -252 337 -243 q 235 -262 272 -262 q 224 -261 228 -262 q 215 -261 220 -261 l 209 -216 q 287 -191 260 -213 q 315 -140 315 -169 q 294 -101 315 -113 q 246 -88 273 -89 l 285 26 z "},"ẞ":{"ha":849,"x_min":35,"x_max":795,"o":"m 546 -13 q 435 2 490 -13 q 347 33 380 16 q 347 130 344 80 q 358 229 351 181 l 424 229 l 442 113 q 447 95 444 103 q 460 79 451 87 q 500 56 473 67 q 560 45 528 45 q 649 84 616 45 q 682 185 682 122 q 663 272 682 235 q 612 336 643 310 q 539 380 580 363 q 456 407 498 397 l 446 429 l 596 688 q 517 728 563 711 q 427 744 472 744 q 295 674 338 744 q 253 483 253 604 l 253 0 l 35 0 l 35 52 l 116 67 q 136 78 129 69 q 142 98 142 86 l 142 456 q 214 711 142 620 q 443 802 286 802 q 582 786 511 802 q 712 750 653 771 l 718 718 l 559 479 q 649 442 606 465 q 724 388 692 420 q 776 314 757 357 q 795 217 795 272 q 779 127 795 169 q 731 54 763 84 q 653 5 699 23 q 546 -13 606 -13 z "},"Ť":{"ha":765,"x_min":37,"x_max":726,"o":"m 584 0 l 181 0 l 181 52 l 299 70 q 319 79 313 72 q 326 100 326 87 l 326 732 l 267 732 q 206 729 233 732 q 164 721 178 726 q 145 710 152 717 q 136 691 139 703 l 103 548 l 42 548 q 39 671 37 613 q 48 789 41 729 l 719 789 q 726 670 725 729 q 721 548 726 612 l 661 548 l 628 691 q 619 710 626 703 q 602 721 613 717 q 560 729 586 726 q 499 732 534 732 l 438 732 l 438 100 q 445 79 438 87 q 466 70 453 72 l 584 52 l 584 0 m 544 1045 l 579 1007 l 433 851 l 347 846 l 187 1003 l 224 1044 l 390 936 l 544 1045 z "},"Ț":{"ha":765,"x_min":37,"x_max":726,"o":"m 584 0 l 181 0 l 181 52 l 299 70 q 319 79 313 72 q 326 100 326 87 l 326 732 l 267 732 q 206 729 233 732 q 164 721 178 726 q 145 710 152 717 q 136 691 139 703 l 103 548 l 42 548 q 39 671 37 613 q 48 789 41 729 l 719 789 q 726 670 725 729 q 721 548 726 612 l 661 548 l 628 691 q 619 710 626 703 q 602 721 613 717 q 560 729 586 726 q 499 732 534 732 l 438 732 l 438 100 q 445 79 438 87 q 466 70 453 72 l 584 52 l 584 0 m 457 -147 q 425 -234 457 -196 q 351 -294 393 -272 l 323 -263 q 357 -229 341 -248 q 373 -188 373 -210 q 365 -165 373 -171 q 351 -154 357 -158 q 334 -138 342 -148 q 326 -109 326 -128 q 341 -71 326 -86 q 382 -56 357 -56 q 436 -82 415 -56 q 457 -147 458 -108 z "},"Ţ":{"ha":765,"x_min":37,"x_max":726,"o":"m 584 0 l 181 0 l 181 52 l 299 70 q 319 79 313 72 q 326 100 326 87 l 326 732 l 267 732 q 206 729 233 732 q 164 721 178 726 q 145 710 152 717 q 136 691 139 703 l 103 548 l 42 548 q 39 671 37 613 q 48 789 41 729 l 719 789 q 726 670 725 729 q 721 548 726 612 l 661 548 l 628 691 q 619 710 626 703 q 602 721 613 717 q 560 729 586 726 q 499 732 534 732 l 438 732 l 438 100 q 445 79 438 87 q 466 70 453 72 l 584 52 l 584 0 m 360 26 l 407 26 l 385 -44 q 395 -44 389 -44 q 408 -46 401 -45 q 465 -74 442 -51 q 488 -134 488 -97 q 474 -186 488 -163 q 436 -226 460 -210 q 380 -252 412 -243 q 310 -262 347 -262 q 299 -261 303 -262 q 290 -261 295 -261 l 283 -216 q 362 -191 334 -213 q 390 -140 390 -169 q 369 -101 390 -113 q 321 -88 347 -89 l 360 26 z "},"Ŧ":{"ha":765,"x_min":37,"x_max":726,"o":"m 584 52 l 584 0 l 181 0 l 181 52 l 299 70 q 319 79 313 72 q 326 100 326 87 l 326 339 l 193 339 l 193 402 l 326 402 l 326 732 l 267 732 q 206 729 233 732 q 164 721 178 726 q 145 710 152 717 q 136 691 139 703 l 103 548 l 42 548 q 39 671 37 613 q 48 789 41 729 l 719 789 q 726 670 725 729 q 721 548 726 612 l 661 548 l 628 691 q 619 710 626 703 q 602 721 613 717 q 560 729 586 726 q 499 732 534 732 l 438 732 l 438 402 l 571 402 l 571 339 l 438 339 l 438 100 q 445 79 438 87 q 466 70 453 72 l 584 52 z "},"Ù":{"ha":853,"x_min":51,"x_max":805,"o":"m 526 789 l 805 789 l 805 736 l 743 722 q 724 710 731 719 q 718 689 718 702 l 718 291 q 640 61 718 132 q 423 -11 562 -11 q 204 67 274 -11 q 134 303 134 145 l 134 689 q 128 710 134 702 q 109 722 122 718 l 51 736 l 51 789 l 365 789 l 365 736 l 276 720 q 257 710 264 718 q 250 688 250 701 l 250 291 q 302 101 250 156 q 443 46 355 46 q 593 108 547 46 q 639 285 639 170 l 639 689 q 633 710 639 702 q 614 721 626 719 l 526 736 l 526 789 m 318 1053 l 547 885 l 522 841 q 451 871 488 855 q 378 905 413 887 q 310 940 342 922 q 257 975 278 958 l 318 1053 z "},"Ú":{"ha":853,"x_min":51,"x_max":805,"o":"m 526 789 l 805 789 l 805 736 l 743 722 q 724 710 731 719 q 718 689 718 702 l 718 291 q 640 61 718 132 q 423 -11 562 -11 q 204 67 274 -11 q 134 303 134 145 l 134 689 q 128 710 134 702 q 109 722 122 718 l 51 736 l 51 789 l 365 789 l 365 736 l 276 720 q 257 710 264 718 q 250 688 250 701 l 250 291 q 302 101 250 156 q 443 46 355 46 q 593 108 547 46 q 639 285 639 170 l 639 689 q 633 710 639 702 q 614 721 626 719 l 526 736 l 526 789 m 629 968 q 574 935 608 952 q 503 901 541 918 q 427 870 466 885 q 354 842 387 855 l 331 885 l 572 1047 l 629 968 z "},"Û":{"ha":853,"x_min":51,"x_max":805,"o":"m 526 789 l 805 789 l 805 736 l 743 722 q 724 710 731 719 q 718 689 718 702 l 718 291 q 640 61 718 132 q 423 -11 562 -11 q 204 67 274 -11 q 134 303 134 145 l 134 689 q 128 710 134 702 q 109 722 122 718 l 51 736 l 51 789 l 365 789 l 365 736 l 276 720 q 257 710 264 718 q 250 688 250 701 l 250 291 q 302 101 250 156 q 443 46 355 46 q 593 108 547 46 q 639 285 639 170 l 639 689 q 633 710 639 702 q 614 721 626 719 l 526 736 l 526 789 m 277 840 l 242 879 l 388 1034 l 474 1039 l 634 882 l 597 841 l 431 949 l 277 840 z "},"Ũ":{"ha":853,"x_min":51,"x_max":805,"o":"m 526 789 l 805 789 l 805 736 l 743 722 q 724 710 731 719 q 718 689 718 702 l 718 291 q 640 61 718 132 q 423 -11 562 -11 q 204 67 274 -11 q 134 303 134 145 l 134 689 q 128 710 134 702 q 109 722 122 718 l 51 736 l 51 789 l 365 789 l 365 736 l 276 720 q 257 710 264 718 q 250 688 250 701 l 250 291 q 302 101 250 156 q 443 46 355 46 q 593 108 547 46 q 639 285 639 170 l 639 689 q 633 710 639 702 q 614 721 626 719 l 526 736 l 526 789 m 655 982 q 635 937 648 960 q 604 896 622 914 q 564 867 586 878 q 515 856 541 856 q 464 867 487 856 q 421 891 441 878 q 382 916 401 905 q 344 927 364 927 q 296 905 317 927 q 260 861 275 883 l 222 883 q 242 928 229 905 q 272 968 255 951 q 313 997 290 986 q 362 1009 336 1009 q 412 997 389 1009 q 456 973 435 986 q 494 949 476 960 q 532 938 513 938 q 581 959 560 938 q 617 1003 602 981 l 655 982 z "},"Ū":{"ha":853,"x_min":51,"x_max":805,"o":"m 526 789 l 805 789 l 805 736 l 743 722 q 724 710 731 719 q 718 689 718 702 l 718 291 q 640 61 718 132 q 423 -11 562 -11 q 204 67 274 -11 q 134 303 134 145 l 134 689 q 128 710 134 702 q 109 722 122 718 l 51 736 l 51 789 l 365 789 l 365 736 l 276 720 q 257 710 264 718 q 250 688 250 701 l 250 291 q 302 101 250 156 q 443 46 355 46 q 593 108 547 46 q 639 285 639 170 l 639 689 q 633 710 639 702 q 614 721 626 719 l 526 736 l 526 789 m 267 887 l 267 961 l 609 961 l 609 887 l 267 887 z "},"Ŭ":{"ha":853,"x_min":51,"x_max":805,"o":"m 526 789 l 805 789 l 805 736 l 743 722 q 724 710 731 719 q 718 689 718 702 l 718 291 q 640 61 718 132 q 423 -11 562 -11 q 204 67 274 -11 q 134 303 134 145 l 134 689 q 128 710 134 702 q 109 722 122 718 l 51 736 l 51 789 l 365 789 l 365 736 l 276 720 q 257 710 264 718 q 250 688 250 701 l 250 291 q 302 101 250 156 q 443 46 355 46 q 593 108 547 46 q 639 285 639 170 l 639 689 q 633 710 639 702 q 614 721 626 719 l 526 736 l 526 789 m 630 1001 q 605 943 622 970 q 563 896 587 916 q 506 863 538 875 q 436 852 474 852 q 366 864 398 852 q 309 897 333 876 q 269 945 285 918 q 247 1001 253 972 l 299 1024 q 358 959 322 982 q 440 936 393 936 q 521 958 483 936 q 585 1024 559 979 l 630 1001 z "},"Ü":{"ha":853,"x_min":51,"x_max":805,"o":"m 526 789 l 805 789 l 805 736 l 743 722 q 724 710 731 719 q 718 689 718 702 l 718 291 q 640 61 718 132 q 423 -11 562 -11 q 204 67 274 -11 q 134 303 134 145 l 134 689 q 128 710 134 702 q 109 722 122 718 l 51 736 l 51 789 l 365 789 l 365 736 l 276 720 q 257 710 264 718 q 250 688 250 701 l 250 291 q 302 101 250 156 q 443 46 355 46 q 593 108 547 46 q 639 285 639 170 l 639 689 q 633 710 639 702 q 614 721 626 719 l 526 736 l 526 789 m 627 927 q 609 879 627 898 q 562 861 590 861 q 515 879 533 861 q 496 927 496 898 q 515 975 496 957 q 562 994 533 994 q 609 975 590 994 q 627 927 627 957 m 380 927 q 362 879 380 898 q 315 861 343 861 q 267 879 285 861 q 249 927 249 898 q 267 975 249 957 q 315 994 285 994 q 362 975 343 994 q 380 927 380 957 z "},"Ů":{"ha":853,"x_min":51,"x_max":805,"o":"m 526 789 l 805 789 l 805 736 l 743 722 q 724 710 731 719 q 718 689 718 702 l 718 291 q 640 61 718 132 q 423 -11 562 -11 q 204 67 274 -11 q 134 303 134 145 l 134 689 q 128 710 134 702 q 109 722 122 718 l 51 736 l 51 789 l 365 789 l 365 736 l 276 720 q 257 710 264 718 q 250 688 250 701 l 250 291 q 302 101 250 156 q 443 46 355 46 q 593 108 547 46 q 639 285 639 170 l 639 689 q 633 710 639 702 q 614 721 626 719 l 526 736 l 526 789 m 575 951 q 564 901 575 923 q 534 862 553 878 q 490 838 515 847 q 437 830 465 830 q 337 864 372 830 q 301 953 301 899 q 314 1002 302 980 q 345 1039 326 1024 q 391 1062 365 1054 q 443 1071 416 1071 q 541 1036 507 1071 q 575 951 576 1002 m 375 953 q 390 905 375 927 q 439 883 406 883 q 486 900 470 883 q 503 948 503 918 q 488 995 503 974 q 440 1017 473 1017 q 392 999 409 1017 q 375 953 375 981 z "},"Ű":{"ha":853,"x_min":51,"x_max":805,"o":"m 526 789 l 805 789 l 805 736 l 743 722 q 724 710 731 719 q 718 689 718 702 l 718 291 q 640 61 718 132 q 423 -11 562 -11 q 204 67 274 -11 q 134 303 134 145 l 134 689 q 128 710 134 702 q 109 722 122 718 l 51 736 l 51 789 l 365 789 l 365 736 l 276 720 q 257 710 264 718 q 250 688 250 701 l 250 291 q 302 101 250 156 q 443 46 355 46 q 593 108 547 46 q 639 285 639 170 l 639 689 q 633 710 639 702 q 614 721 626 719 l 526 736 l 526 789 m 523 832 l 491 867 l 653 1057 l 723 993 q 681 953 706 975 q 628 909 656 931 q 573 867 601 887 q 523 832 545 846 m 301 831 l 266 865 l 414 1057 l 488 998 q 449 957 472 979 q 400 912 426 934 q 349 869 375 890 q 301 831 323 847 z "},"Ų":{"ha":854,"x_min":51,"x_max":805,"o":"m 478 -260 q 389 -236 426 -260 q 352 -163 352 -212 q 364 -113 352 -136 q 394 -70 376 -89 q 436 -36 413 -51 q 482 -10 460 -21 l 482 -8 q 453 -10 468 -9 q 423 -11 439 -11 q 204 67 274 -11 q 134 303 134 145 l 134 689 q 128 710 134 702 q 109 722 122 718 l 51 736 l 51 789 l 365 789 l 365 736 l 276 720 q 257 710 264 718 q 250 688 250 701 l 250 291 q 302 101 250 156 q 443 46 355 46 q 593 108 547 46 q 639 285 639 170 l 639 689 q 633 710 639 702 q 614 721 626 719 l 526 736 l 526 789 l 805 789 l 805 736 l 743 722 q 724 710 731 719 q 718 689 718 702 l 718 291 q 690 132 718 196 q 608 34 662 68 q 491 -53 534 -14 q 448 -135 448 -93 q 468 -178 448 -164 q 520 -192 488 -192 q 554 -188 535 -192 q 589 -177 572 -185 l 609 -222 q 548 -250 584 -240 q 478 -260 513 -260 z "},"Ẁ":{"ha":1132,"x_min":-1,"x_max":1127,"o":"m 726 -5 l 568 525 l 415 -5 l 309 -5 l 88 693 q 78 711 85 704 q 59 721 70 718 l -1 736 l -1 789 l 302 789 l 302 736 l 201 716 l 380 113 l 533 634 l 513 693 q 502 711 509 704 q 483 721 494 717 l 432 736 l 432 789 l 726 789 l 726 736 l 623 716 l 797 115 l 967 716 l 865 736 l 865 789 l 1127 789 l 1127 736 l 1065 721 q 1046 712 1054 718 q 1035 692 1039 706 l 832 -5 l 726 -5 m 444 1053 l 674 885 l 648 841 q 578 871 615 855 q 504 905 540 887 q 437 940 469 922 q 384 975 405 958 l 444 1053 z "},"Ẃ":{"ha":1132,"x_min":-1,"x_max":1127,"o":"m 726 -5 l 568 525 l 415 -5 l 309 -5 l 88 693 q 78 711 85 704 q 59 721 70 718 l -1 736 l -1 789 l 302 789 l 302 736 l 201 716 l 380 113 l 533 634 l 513 693 q 502 711 509 704 q 483 721 494 717 l 432 736 l 432 789 l 726 789 l 726 736 l 623 716 l 797 115 l 967 716 l 865 736 l 865 789 l 1127 789 l 1127 736 l 1065 721 q 1046 712 1054 718 q 1035 692 1039 706 l 832 -5 l 726 -5 m 756 968 q 701 935 734 952 q 630 901 668 918 q 553 870 592 885 q 480 842 514 855 l 458 885 l 699 1047 l 756 968 z "},"Ŵ":{"ha":1132,"x_min":-1,"x_max":1127,"o":"m 726 -5 l 568 525 l 415 -5 l 309 -5 l 88 693 q 78 711 85 704 q 59 721 70 718 l -1 736 l -1 789 l 302 789 l 302 736 l 201 716 l 380 113 l 533 634 l 513 693 q 502 711 509 704 q 483 721 494 717 l 432 736 l 432 789 l 726 789 l 726 736 l 623 716 l 797 115 l 967 716 l 865 736 l 865 789 l 1127 789 l 1127 736 l 1065 721 q 1046 712 1054 718 q 1035 692 1039 706 l 832 -5 l 726 -5 m 404 840 l 369 879 l 515 1034 l 601 1039 l 761 882 l 724 841 l 558 949 l 404 840 z "},"Ẅ":{"ha":1132,"x_min":-1,"x_max":1127,"o":"m 726 -5 l 568 525 l 415 -5 l 309 -5 l 88 693 q 78 711 85 704 q 59 721 70 718 l -1 736 l -1 789 l 302 789 l 302 736 l 201 716 l 380 113 l 533 634 l 513 693 q 502 711 509 704 q 483 721 494 717 l 432 736 l 432 789 l 726 789 l 726 736 l 623 716 l 797 115 l 967 716 l 865 736 l 865 789 l 1127 789 l 1127 736 l 1065 721 q 1046 712 1054 718 q 1035 692 1039 706 l 832 -5 l 726 -5 m 754 927 q 735 879 754 898 q 688 861 717 861 q 641 879 660 861 q 623 927 623 898 q 641 975 623 957 q 688 994 660 994 q 735 975 717 994 q 754 927 754 957 m 507 927 q 488 879 507 898 q 441 861 470 861 q 394 879 412 861 q 376 927 376 898 q 394 975 376 957 q 441 994 412 994 q 488 975 470 994 q 507 927 507 957 z "},"Ỳ":{"ha":742,"x_min":-4,"x_max":733,"o":"m 557 0 l 194 0 l 194 52 l 291 70 q 312 79 305 72 q 319 100 319 87 l 319 303 l 92 697 q 79 713 86 707 q 60 721 71 718 l -4 736 l -4 789 l 305 789 l 305 736 l 212 718 l 397 384 l 568 718 l 473 736 l 473 789 l 733 789 l 733 736 l 671 722 q 652 714 660 720 q 639 699 644 709 l 432 302 l 432 100 q 439 79 432 87 q 460 70 446 72 l 557 52 l 557 0 m 251 1053 l 480 885 l 455 841 q 384 871 421 855 q 310 905 346 887 q 243 940 275 922 q 190 975 211 958 l 251 1053 z "},"Ý":{"ha":742,"x_min":-4,"x_max":733,"o":"m 557 0 l 194 0 l 194 52 l 291 70 q 312 79 305 72 q 319 100 319 87 l 319 303 l 92 697 q 79 713 86 707 q 60 721 71 718 l -4 736 l -4 789 l 305 789 l 305 736 l 212 718 l 397 384 l 568 718 l 473 736 l 473 789 l 733 789 l 733 736 l 671 722 q 652 714 660 720 q 639 699 644 709 l 432 302 l 432 100 q 439 79 432 87 q 460 70 446 72 l 557 52 l 557 0 m 562 968 q 507 935 540 952 q 436 901 474 918 q 359 870 398 885 q 286 842 320 855 l 264 885 l 505 1047 l 562 968 z "},"Ŷ":{"ha":742,"x_min":-4,"x_max":733,"o":"m 557 0 l 194 0 l 194 52 l 291 70 q 312 79 305 72 q 319 100 319 87 l 319 303 l 92 697 q 79 713 86 707 q 60 721 71 718 l -4 736 l -4 789 l 305 789 l 305 736 l 212 718 l 397 384 l 568 718 l 473 736 l 473 789 l 733 789 l 733 736 l 671 722 q 652 714 660 720 q 639 699 644 709 l 432 302 l 432 100 q 439 79 432 87 q 460 70 446 72 l 557 52 l 557 0 m 210 840 l 175 879 l 321 1034 l 407 1039 l 567 882 l 530 841 l 364 949 l 210 840 z "},"Ÿ":{"ha":742,"x_min":-4,"x_max":733,"o":"m 557 0 l 194 0 l 194 52 l 291 70 q 312 79 305 72 q 319 100 319 87 l 319 303 l 92 697 q 79 713 86 707 q 60 721 71 718 l -4 736 l -4 789 l 305 789 l 305 736 l 212 718 l 397 384 l 568 718 l 473 736 l 473 789 l 733 789 l 733 736 l 671 722 q 652 714 660 720 q 639 699 644 709 l 432 302 l 432 100 q 439 79 432 87 q 460 70 446 72 l 557 52 l 557 0 m 560 927 q 541 879 560 898 q 494 861 523 861 q 447 879 466 861 q 429 927 429 898 q 447 975 429 957 q 494 994 466 994 q 541 975 523 994 q 560 927 560 957 m 313 927 q 294 879 313 898 q 247 861 276 861 q 200 879 218 861 q 182 927 182 898 q 200 975 182 957 q 247 994 218 994 q 294 975 276 994 q 313 927 313 957 z "},"Ź":{"ha":690,"x_min":34,"x_max":630,"o":"m 613 0 l 61 0 l 34 46 l 488 731 l 323 731 q 259 729 288 731 q 212 720 230 726 q 194 708 201 716 q 183 690 187 701 l 148 564 l 86 564 q 87 677 84 618 q 98 789 91 736 l 606 789 l 629 744 l 179 62 l 388 62 q 452 64 423 62 q 499 74 481 67 q 517 85 510 78 q 528 104 524 92 l 569 238 l 630 231 q 629 176 630 206 q 626 115 628 146 q 620 55 624 85 q 613 0 617 25 m 555 968 q 499 935 533 952 q 429 901 466 918 q 352 870 391 885 q 279 842 313 855 l 257 885 l 497 1047 l 555 968 z "},"Ż":{"ha":690,"x_min":34,"x_max":630,"o":"m 613 0 l 61 0 l 34 46 l 488 731 l 323 731 q 259 729 288 731 q 212 720 230 726 q 194 708 201 716 q 183 690 187 701 l 148 564 l 86 564 q 87 677 84 618 q 98 789 91 736 l 606 789 l 629 744 l 179 62 l 388 62 q 452 64 423 62 q 499 74 481 67 q 517 85 510 78 q 528 104 524 92 l 569 238 l 630 231 q 629 176 630 206 q 626 115 628 146 q 620 55 624 85 q 613 0 617 25 m 439 936 q 418 883 439 904 q 364 863 397 863 q 309 883 330 863 q 288 936 288 904 q 309 989 288 969 q 364 1010 330 1010 q 418 989 397 1010 q 439 936 439 969 z "},"Ž":{"ha":690,"x_min":34,"x_max":630,"o":"m 613 0 l 61 0 l 34 46 l 488 731 l 323 731 q 259 729 288 731 q 212 720 230 726 q 194 708 201 716 q 183 690 187 701 l 148 564 l 86 564 q 87 677 84 618 q 98 789 91 736 l 606 789 l 629 744 l 179 62 l 388 62 q 452 64 423 62 q 499 74 481 67 q 517 85 510 78 q 528 104 524 92 l 569 238 l 630 231 q 629 176 630 206 q 626 115 628 146 q 620 55 624 85 q 613 0 617 25 m 524 1045 l 559 1007 l 414 851 l 327 846 l 168 1003 l 205 1044 l 371 936 l 524 1045 z "},"Ð":{"ha":844,"x_min":56,"x_max":781,"o":"m 781 417 q 754 232 781 312 q 675 97 726 151 q 551 17 624 44 q 388 -8 478 -10 q 307 -4 354 -7 q 220 0 261 0 l 56 0 l 56 52 l 137 66 q 157 76 150 68 q 163 96 163 84 l 163 374 l 61 374 l 61 437 l 163 437 l 163 692 q 157 710 163 703 q 140 720 151 718 l 56 736 l 56 789 l 218 789 q 311 793 267 789 q 402 796 355 796 q 689 699 597 796 q 781 417 781 602 m 275 59 q 333 52 297 54 q 398 50 370 49 q 592 135 523 54 q 661 398 661 217 q 591 657 661 574 q 378 740 521 740 q 319 737 345 740 q 275 733 292 734 l 275 437 l 453 437 l 453 374 l 275 374 l 275 59 z "},"Þ":{"ha":710,"x_min":62,"x_max":665,"o":"m 383 222 q 501 262 456 222 q 545 402 545 302 q 507 521 545 479 q 378 564 470 564 q 323 562 351 564 q 270 557 295 560 l 270 229 q 328 223 301 225 q 383 222 356 222 m 382 52 l 382 0 l 62 0 l 62 52 l 133 66 q 153 77 146 69 q 160 98 160 85 l 160 689 q 153 710 160 702 q 133 721 145 718 l 62 736 l 62 789 l 382 789 l 382 736 l 296 721 q 277 710 284 718 q 270 689 270 702 l 270 612 q 346 618 309 616 q 419 621 383 621 q 602 568 539 621 q 665 407 665 516 q 594 226 665 283 q 394 168 523 168 q 326 169 356 168 q 270 173 297 171 l 270 98 q 277 77 270 85 q 296 66 283 68 l 382 52 z "},"Ə":{"ha":764,"x_min":59,"x_max":701,"o":"m 354 -13 q 237 6 291 -13 q 143 62 182 25 q 82 158 104 100 q 59 292 59 215 q 61 344 59 319 q 67 386 64 369 l 576 386 q 511 652 574 560 q 339 743 448 743 q 267 732 299 743 q 217 707 235 721 q 202 690 207 698 q 195 672 196 681 l 173 556 l 108 556 q 100 600 104 576 q 94 648 96 624 q 91 696 92 673 q 91 739 90 720 q 203 785 139 768 q 335 802 267 802 q 486 776 418 802 q 602 700 554 751 q 675 573 649 649 q 701 396 701 497 q 676 220 701 297 q 604 92 650 143 q 494 14 559 40 q 354 -13 430 -13 m 363 48 q 513 120 459 48 q 575 326 567 191 l 185 326 q 181 300 183 315 q 180 266 180 285 q 228 106 180 163 q 363 48 277 48 z "},"à":{"ha":609,"x_min":49,"x_max":580,"o":"m 250 60 q 324 73 286 60 q 387 109 361 87 l 387 244 l 291 235 q 197 208 230 230 q 165 138 165 185 q 186 80 165 101 q 250 60 207 60 m 483 -9 q 424 10 447 -9 q 391 64 401 28 q 312 9 360 29 q 211 -12 265 -12 q 146 -3 176 -12 q 95 24 117 7 q 61 67 74 41 q 49 127 49 93 q 69 201 49 171 q 121 248 89 230 q 193 276 154 267 q 271 288 233 285 l 387 297 l 387 366 q 356 475 387 443 q 262 507 325 507 q 171 491 214 507 q 92 441 128 475 l 66 467 q 97 518 76 496 q 149 556 119 541 q 215 579 178 571 q 292 587 252 587 q 443 536 392 587 q 493 381 493 485 l 493 95 q 501 71 493 79 q 522 63 508 64 l 580 58 l 580 10 q 538 -2 568 5 q 483 -9 508 -9 m 213 889 l 391 674 l 356 636 q 293 681 325 657 q 232 730 261 705 q 179 780 203 756 q 139 825 155 805 l 213 889 z "},"á":{"ha":609,"x_min":49,"x_max":580,"o":"m 250 60 q 324 73 286 60 q 387 109 361 87 l 387 244 l 291 235 q 197 208 230 230 q 165 138 165 185 q 186 80 165 101 q 250 60 207 60 m 483 -9 q 424 10 447 -9 q 391 64 401 28 q 312 9 360 29 q 211 -12 265 -12 q 146 -3 176 -12 q 95 24 117 7 q 61 67 74 41 q 49 127 49 93 q 69 201 49 171 q 121 248 89 230 q 193 276 154 267 q 271 288 233 285 l 387 297 l 387 366 q 356 475 387 443 q 262 507 325 507 q 171 491 214 507 q 92 441 128 475 l 66 467 q 97 518 76 496 q 149 556 119 541 q 215 579 178 571 q 292 587 252 587 q 443 536 392 587 q 493 381 493 485 l 493 95 q 501 71 493 79 q 522 63 508 64 l 580 58 l 580 10 q 538 -2 568 5 q 483 -9 508 -9 m 244 636 l 211 672 l 394 889 l 468 825 q 427 780 452 805 q 371 731 402 756 q 308 681 341 706 q 244 636 275 657 z "},"â":{"ha":609,"x_min":49,"x_max":580,"o":"m 250 60 q 324 73 286 60 q 387 109 361 87 l 387 244 l 291 235 q 197 208 230 230 q 165 138 165 185 q 186 80 165 101 q 250 60 207 60 m 483 -9 q 424 10 447 -9 q 391 64 401 28 q 312 9 360 29 q 211 -12 265 -12 q 146 -3 176 -12 q 95 24 117 7 q 61 67 74 41 q 49 127 49 93 q 69 201 49 171 q 121 248 89 230 q 193 276 154 267 q 271 288 233 285 l 387 297 l 387 366 q 356 475 387 443 q 262 507 325 507 q 171 491 214 507 q 92 441 128 475 l 66 467 q 97 518 76 496 q 149 556 119 541 q 215 579 178 571 q 292 587 252 587 q 443 536 392 587 q 493 381 493 485 l 493 95 q 501 71 493 79 q 522 63 508 64 l 580 58 l 580 10 q 538 -2 568 5 q 483 -9 508 -9 m 142 636 l 104 670 l 243 865 l 328 873 l 483 673 l 442 637 l 286 777 l 142 636 z "},"ã":{"ha":609,"x_min":49,"x_max":580,"o":"m 250 60 q 324 73 286 60 q 387 109 361 87 l 387 244 l 291 235 q 197 208 230 230 q 165 138 165 185 q 186 80 165 101 q 250 60 207 60 m 483 -9 q 424 10 447 -9 q 391 64 401 28 q 312 9 360 29 q 211 -12 265 -12 q 146 -3 176 -12 q 95 24 117 7 q 61 67 74 41 q 49 127 49 93 q 69 201 49 171 q 121 248 89 230 q 193 276 154 267 q 271 288 233 285 l 387 297 l 387 366 q 356 475 387 443 q 262 507 325 507 q 171 491 214 507 q 92 441 128 475 l 66 467 q 97 518 76 496 q 149 556 119 541 q 215 579 178 571 q 292 587 252 587 q 443 536 392 587 q 493 381 493 485 l 493 95 q 501 71 493 79 q 522 63 508 64 l 580 58 l 580 10 q 538 -2 568 5 q 483 -9 508 -9 m 500 780 q 482 735 493 758 q 453 694 470 712 q 414 664 436 676 q 366 653 392 653 q 317 664 339 653 q 275 689 294 675 q 237 713 256 702 q 201 724 219 724 q 155 703 175 724 q 121 659 135 681 l 84 680 q 102 726 90 703 q 131 767 114 749 q 169 797 147 785 q 218 808 191 808 q 267 797 245 808 q 309 772 289 786 q 346 748 328 759 q 383 737 364 737 q 428 758 409 737 q 462 803 448 780 l 500 780 z "},"ā":{"ha":609,"x_min":49,"x_max":580,"o":"m 250 60 q 324 73 286 60 q 387 109 361 87 l 387 244 l 291 235 q 197 208 230 230 q 165 138 165 185 q 186 80 165 101 q 250 60 207 60 m 483 -9 q 424 10 447 -9 q 391 64 401 28 q 312 9 360 29 q 211 -12 265 -12 q 146 -3 176 -12 q 95 24 117 7 q 61 67 74 41 q 49 127 49 93 q 69 201 49 171 q 121 248 89 230 q 193 276 154 267 q 271 288 233 285 l 387 297 l 387 366 q 356 475 387 443 q 262 507 325 507 q 171 491 214 507 q 92 441 128 475 l 66 467 q 97 518 76 496 q 149 556 119 541 q 215 579 178 571 q 292 587 252 587 q 443 536 392 587 q 493 381 493 485 l 493 95 q 501 71 493 79 q 522 63 508 64 l 580 58 l 580 10 q 538 -2 568 5 q 483 -9 508 -9 m 123 687 l 123 761 l 460 761 l 460 687 l 123 687 z "},"ă":{"ha":609,"x_min":49,"x_max":580,"o":"m 250 60 q 324 73 286 60 q 387 109 361 87 l 387 244 l 291 235 q 197 208 230 230 q 165 138 165 185 q 186 80 165 101 q 250 60 207 60 m 483 -9 q 424 10 447 -9 q 391 64 401 28 q 312 9 360 29 q 211 -12 265 -12 q 146 -3 176 -12 q 95 24 117 7 q 61 67 74 41 q 49 127 49 93 q 69 201 49 171 q 121 248 89 230 q 193 276 154 267 q 271 288 233 285 l 387 297 l 387 366 q 356 475 387 443 q 262 507 325 507 q 171 491 214 507 q 92 441 128 475 l 66 467 q 97 518 76 496 q 149 556 119 541 q 215 579 178 571 q 292 587 252 587 q 443 536 392 587 q 493 381 493 485 l 493 95 q 501 71 493 79 q 522 63 508 64 l 580 58 l 580 10 q 538 -2 568 5 q 483 -9 508 -9 m 480 809 q 455 748 472 777 q 414 699 438 720 q 358 667 389 679 q 289 655 326 655 q 220 667 252 655 q 164 701 188 680 q 125 750 140 722 q 104 809 109 778 l 155 832 q 212 764 177 787 q 293 740 247 740 q 372 762 335 740 q 435 832 410 784 l 480 809 z "},"ä":{"ha":609,"x_min":49,"x_max":580,"o":"m 250 60 q 324 73 286 60 q 387 109 361 87 l 387 244 l 291 235 q 197 208 230 230 q 165 138 165 185 q 186 80 165 101 q 250 60 207 60 m 483 -9 q 424 10 447 -9 q 391 64 401 28 q 312 9 360 29 q 211 -12 265 -12 q 146 -3 176 -12 q 95 24 117 7 q 61 67 74 41 q 49 127 49 93 q 69 201 49 171 q 121 248 89 230 q 193 276 154 267 q 271 288 233 285 l 387 297 l 387 366 q 356 475 387 443 q 262 507 325 507 q 171 491 214 507 q 92 441 128 475 l 66 467 q 97 518 76 496 q 149 556 119 541 q 215 579 178 571 q 292 587 252 587 q 443 536 392 587 q 493 381 493 485 l 493 95 q 501 71 493 79 q 522 63 508 64 l 580 58 l 580 10 q 538 -2 568 5 q 483 -9 508 -9 m 469 739 q 451 691 469 709 q 404 672 433 672 q 357 691 375 672 q 339 739 339 709 q 357 787 339 768 q 404 806 375 806 q 451 787 433 806 q 469 739 469 768 m 244 739 q 226 691 244 709 q 179 672 208 672 q 132 691 150 672 q 114 739 114 709 q 132 787 114 768 q 179 806 150 806 q 226 787 208 806 q 244 739 244 768 z "},"å":{"ha":609,"x_min":49,"x_max":580,"o":"m 250 60 q 324 73 286 60 q 387 109 361 87 l 387 244 l 291 235 q 197 208 230 230 q 165 138 165 185 q 186 80 165 101 q 250 60 207 60 m 483 -9 q 424 10 447 -9 q 391 64 401 28 q 312 9 360 29 q 211 -12 265 -12 q 146 -3 176 -12 q 95 24 117 7 q 61 67 74 41 q 49 127 49 93 q 69 201 49 171 q 121 248 89 230 q 193 276 154 267 q 271 288 233 285 l 387 297 l 387 366 q 356 475 387 443 q 262 507 325 507 q 171 491 214 507 q 92 441 128 475 l 66 467 q 97 518 76 496 q 149 556 119 541 q 215 579 178 571 q 292 587 252 587 q 443 536 392 587 q 493 381 493 485 l 493 95 q 501 71 493 79 q 522 63 508 64 l 580 58 l 580 10 q 538 -2 568 5 q 483 -9 508 -9 m 426 765 q 415 716 426 737 q 385 679 404 694 q 342 655 367 663 q 290 647 317 647 q 192 681 227 647 q 158 767 157 714 q 170 814 158 793 q 201 850 182 835 q 245 873 220 865 q 296 881 270 881 q 392 848 359 881 q 426 765 426 815 m 230 767 q 246 720 230 741 q 293 698 261 698 q 338 715 323 698 q 354 762 354 732 q 339 808 354 788 q 293 829 325 829 q 247 811 264 829 q 230 767 230 794 z "},"ą":{"ha":609,"x_min":49,"x_max":580,"o":"m 438 -260 q 350 -236 387 -260 q 313 -163 313 -213 q 324 -113 313 -137 q 356 -69 336 -89 q 399 -33 375 -49 q 449 -5 424 -16 l 449 -4 q 413 20 427 3 q 391 64 398 37 q 312 9 360 29 q 211 -12 265 -12 q 146 -3 176 -12 q 95 24 117 7 q 61 67 74 41 q 49 127 49 93 q 69 201 49 171 q 121 248 89 230 q 193 276 154 267 q 271 288 233 285 l 387 297 l 387 366 q 356 475 387 443 q 262 507 325 507 q 171 491 214 507 q 92 441 128 475 l 66 467 q 97 518 76 496 q 149 556 119 541 q 215 579 178 571 q 292 587 252 587 q 443 536 392 587 q 493 381 493 485 l 493 95 q 501 71 493 79 q 522 63 508 64 l 580 58 l 580 10 q 559 3 573 7 q 528 -4 544 -1 q 443 -61 477 -26 q 409 -134 409 -96 q 429 -178 409 -164 q 480 -192 449 -192 q 514 -188 496 -192 q 549 -177 532 -185 l 569 -222 q 509 -250 544 -240 q 438 -260 473 -260 m 250 60 q 324 73 286 60 q 387 109 361 87 l 387 244 l 291 235 q 197 208 230 230 q 165 138 165 185 q 186 80 165 101 q 250 60 207 60 z "},"æ":{"ha":922,"x_min":49,"x_max":864,"o":"m 637 531 q 548 494 584 531 q 501 375 512 457 l 755 375 q 756 386 756 380 q 756 398 756 391 q 725 494 756 458 q 637 531 694 531 m 862 125 q 781 26 842 64 q 639 -12 720 -12 q 515 16 567 -12 q 434 91 464 43 q 339 15 398 42 q 216 -12 280 -12 q 95 24 141 -12 q 49 126 49 60 q 69 200 49 170 q 121 249 89 230 q 193 276 153 267 q 271 288 232 285 l 387 297 l 387 366 q 354 475 387 443 q 258 507 321 507 q 172 492 217 507 q 92 441 128 476 l 66 467 q 98 519 76 496 q 150 556 120 541 q 214 579 179 571 q 285 587 249 587 q 390 565 348 587 q 454 501 432 542 q 539 567 488 543 q 653 590 590 590 q 739 577 699 590 q 806 540 778 565 q 849 477 833 515 q 864 391 864 440 q 863 357 864 377 q 858 321 861 337 l 497 321 q 497 314 497 318 q 497 307 497 310 q 510 191 497 237 q 547 116 524 144 q 601 76 570 88 q 667 64 632 64 q 758 86 714 64 q 826 146 802 108 l 862 125 m 251 60 q 334 76 288 60 q 415 128 379 93 q 397 183 404 154 q 389 243 391 212 l 291 235 q 197 207 229 230 q 165 138 165 184 q 186 80 165 101 q 251 60 207 60 z "},"ǽ":{"ha":922,"x_min":49,"x_max":864,"o":"m 637 531 q 548 494 584 531 q 501 375 512 457 l 755 375 q 756 386 756 380 q 756 398 756 391 q 725 494 756 458 q 637 531 694 531 m 862 125 q 781 26 842 64 q 639 -12 720 -12 q 515 16 567 -12 q 434 91 464 43 q 339 15 398 42 q 216 -12 280 -12 q 95 24 141 -12 q 49 126 49 60 q 69 200 49 170 q 121 249 89 230 q 193 276 153 267 q 271 288 232 285 l 387 297 l 387 366 q 354 475 387 443 q 258 507 321 507 q 172 492 217 507 q 92 441 128 476 l 66 467 q 98 519 76 496 q 150 556 120 541 q 214 579 179 571 q 285 587 249 587 q 390 565 348 587 q 454 501 432 542 q 539 567 488 543 q 653 590 590 590 q 739 577 699 590 q 806 540 778 565 q 849 477 833 515 q 864 391 864 440 q 863 357 864 377 q 858 321 861 337 l 497 321 q 497 314 497 318 q 497 307 497 310 q 510 191 497 237 q 547 116 524 144 q 601 76 570 88 q 667 64 632 64 q 758 86 714 64 q 826 146 802 108 l 862 125 m 251 60 q 334 76 288 60 q 415 128 379 93 q 397 183 404 154 q 389 243 391 212 l 291 235 q 197 207 229 230 q 165 138 165 184 q 186 80 165 101 q 251 60 207 60 m 436 636 l 403 672 l 586 889 l 660 825 q 619 780 644 805 q 564 731 594 756 q 501 681 534 706 q 436 636 468 657 z "},"ć":{"ha":570,"x_min":56,"x_max":518,"o":"m 56 281 q 74 404 56 347 q 127 502 92 461 q 214 567 162 543 q 335 590 267 590 q 432 579 383 590 q 511 554 481 569 q 511 468 514 514 q 501 383 508 423 l 445 383 l 424 468 q 417 492 421 482 q 403 510 413 502 q 370 527 390 520 q 324 533 349 533 q 214 476 253 533 q 175 304 175 419 q 219 123 175 183 q 342 63 263 63 q 427 82 389 63 q 487 126 464 101 l 518 98 q 440 18 494 48 q 311 -12 385 -12 q 200 10 248 -12 q 120 71 152 32 q 72 164 88 110 q 56 281 56 218 m 270 636 l 236 672 l 420 889 l 493 825 q 453 780 478 805 q 397 731 427 756 q 334 681 367 706 q 270 636 301 657 z "},"ĉ":{"ha":570,"x_min":56,"x_max":518,"o":"m 56 281 q 74 404 56 347 q 127 502 92 461 q 214 567 162 543 q 335 590 267 590 q 432 579 383 590 q 511 554 481 569 q 511 468 514 514 q 501 383 508 423 l 445 383 l 424 468 q 417 492 421 482 q 403 510 413 502 q 370 527 390 520 q 324 533 349 533 q 214 476 253 533 q 175 304 175 419 q 219 123 175 183 q 342 63 263 63 q 427 82 389 63 q 487 126 464 101 l 518 98 q 440 18 494 48 q 311 -12 385 -12 q 200 10 248 -12 q 120 71 152 32 q 72 164 88 110 q 56 281 56 218 m 168 636 l 129 670 l 269 865 l 354 873 l 509 673 l 468 637 l 312 777 l 168 636 z "},"ċ":{"ha":570,"x_min":56,"x_max":518,"o":"m 56 281 q 74 404 56 347 q 127 502 92 461 q 214 567 162 543 q 335 590 267 590 q 432 579 383 590 q 511 554 481 569 q 511 468 514 514 q 501 383 508 423 l 445 383 l 424 468 q 417 492 421 482 q 403 510 413 502 q 370 527 390 520 q 324 533 349 533 q 214 476 253 533 q 175 304 175 419 q 219 123 175 183 q 342 63 263 63 q 427 82 389 63 q 487 126 464 101 l 518 98 q 440 18 494 48 q 311 -12 385 -12 q 200 10 248 -12 q 120 71 152 32 q 72 164 88 110 q 56 281 56 218 m 403 743 q 382 691 403 711 q 328 670 362 670 q 274 691 295 670 q 254 743 254 711 q 274 795 254 775 q 328 816 295 816 q 382 795 362 816 q 403 743 403 775 z "},"č":{"ha":570,"x_min":56,"x_max":518,"o":"m 56 281 q 74 404 56 347 q 127 502 92 461 q 214 567 162 543 q 335 590 267 590 q 432 579 383 590 q 511 554 481 569 q 511 468 514 514 q 501 383 508 423 l 445 383 l 424 468 q 417 492 421 482 q 403 510 413 502 q 370 527 390 520 q 324 533 349 533 q 214 476 253 533 q 175 304 175 419 q 219 123 175 183 q 342 63 263 63 q 427 82 389 63 q 487 126 464 101 l 518 98 q 440 18 494 48 q 311 -12 385 -12 q 200 10 248 -12 q 120 71 152 32 q 72 164 88 110 q 56 281 56 218 m 474 893 l 513 859 l 373 664 l 288 656 l 133 856 l 174 892 l 330 753 l 474 893 z "},"ç":{"ha":570,"x_min":56,"x_max":518,"o":"m 56 281 q 74 404 56 347 q 127 502 92 461 q 214 567 162 543 q 335 590 267 590 q 432 579 383 590 q 511 554 481 569 q 511 468 514 514 q 501 383 508 423 l 445 383 l 424 468 q 417 492 421 482 q 403 510 413 502 q 370 527 390 520 q 324 533 349 533 q 214 476 253 533 q 175 304 175 419 q 219 123 175 183 q 342 63 263 63 q 427 82 389 63 q 487 126 464 101 l 518 98 q 440 18 494 48 q 311 -12 385 -12 q 200 10 248 -12 q 120 71 152 32 q 72 164 88 110 q 56 281 56 218 m 275 26 l 322 26 l 300 -44 q 310 -44 304 -44 q 322 -46 316 -45 q 380 -74 357 -51 q 403 -134 403 -97 q 389 -186 403 -163 q 351 -226 375 -210 q 294 -252 327 -243 q 224 -262 262 -262 q 213 -261 217 -262 q 205 -261 210 -261 l 198 -216 q 277 -191 249 -213 q 305 -140 305 -169 q 283 -101 305 -113 q 236 -88 262 -89 l 275 26 z "},"ď":{"ha":704,"x_min":57,"x_max":754,"o":"m 324 62 q 395 75 362 62 q 454 109 428 87 l 454 506 q 407 524 436 516 q 346 531 378 531 q 279 519 311 531 q 224 480 247 508 q 187 405 201 452 q 174 288 174 358 q 186 179 174 223 q 218 109 198 135 q 266 73 239 83 q 324 62 293 62 m 552 -9 q 489 13 511 -9 q 459 66 467 34 q 386 11 430 33 q 284 -12 342 -12 q 197 5 238 -12 q 124 55 155 21 q 75 143 93 89 q 57 272 57 197 q 79 412 57 352 q 139 512 100 472 q 232 570 177 551 q 352 590 286 590 q 407 586 380 590 q 454 578 433 583 l 454 791 q 447 813 454 805 q 427 822 439 820 l 350 833 l 350 879 q 397 891 372 886 q 448 899 422 896 q 499 905 474 903 q 546 908 525 908 l 562 892 l 562 95 q 570 71 562 78 q 591 63 579 64 l 649 58 l 649 10 q 604 -2 632 4 q 552 -9 576 -9 m 685 662 l 634 673 l 657 949 l 754 938 q 727 800 745 873 q 685 662 709 727 z "},"đ":{"ha":685,"x_min":57,"x_max":649,"o":"m 324 62 q 395 75 362 62 q 454 109 428 87 l 454 490 q 407 509 436 501 q 346 516 378 516 q 279 505 311 516 q 224 467 247 494 q 187 395 201 440 q 174 283 174 350 q 186 177 174 219 q 218 109 198 134 q 266 73 239 83 q 324 62 293 62 m 552 -9 q 489 13 511 -9 q 459 66 467 34 q 386 11 430 33 q 284 -12 342 -12 q 197 4 238 -12 q 124 54 155 20 q 75 140 93 87 q 57 267 57 193 q 79 403 57 344 q 139 499 100 461 q 232 556 177 537 q 352 575 286 575 q 407 571 380 575 q 454 563 433 568 l 454 669 l 271 669 l 271 727 l 454 727 l 454 791 q 447 813 454 805 q 427 822 439 820 l 350 833 l 350 879 q 397 891 372 886 q 448 899 422 896 q 499 905 474 903 q 546 908 525 908 l 562 892 l 562 727 l 635 727 l 635 669 l 562 669 l 562 95 q 570 71 562 78 q 591 63 579 64 l 649 58 l 649 10 q 604 -2 632 4 q 552 -9 576 -9 z "},"è":{"ha":595,"x_min":56,"x_max":537,"o":"m 311 532 q 221 495 257 532 q 174 375 185 457 l 428 375 q 429 386 429 380 q 430 398 430 392 q 399 495 430 458 q 311 532 368 532 m 536 125 q 457 26 516 64 q 312 -12 398 -12 q 199 10 247 -12 q 119 71 151 32 q 72 164 87 110 q 56 281 56 218 q 75 411 56 354 q 130 508 94 469 q 215 569 165 548 q 326 590 265 590 q 412 577 373 590 q 479 539 451 564 q 522 477 507 515 q 537 391 537 440 q 536 357 537 377 q 532 321 534 337 l 170 321 q 170 314 170 318 q 170 306 170 310 q 183 191 170 237 q 219 116 196 144 q 273 76 242 88 q 341 64 305 64 q 433 86 390 64 q 499 146 475 108 l 536 125 m 233 889 l 412 674 l 377 636 q 314 681 346 657 q 253 730 282 705 q 199 780 224 756 q 160 825 175 805 l 233 889 z "},"é":{"ha":595,"x_min":56,"x_max":537,"o":"m 311 532 q 221 495 257 532 q 174 375 185 457 l 428 375 q 429 386 429 380 q 430 398 430 392 q 399 495 430 458 q 311 532 368 532 m 536 125 q 457 26 516 64 q 312 -12 398 -12 q 199 10 247 -12 q 119 71 151 32 q 72 164 87 110 q 56 281 56 218 q 75 411 56 354 q 130 508 94 469 q 215 569 165 548 q 326 590 265 590 q 412 577 373 590 q 479 539 451 564 q 522 477 507 515 q 537 391 537 440 q 536 357 537 377 q 532 321 534 337 l 170 321 q 170 314 170 318 q 170 306 170 310 q 183 191 170 237 q 219 116 196 144 q 273 76 242 88 q 341 64 305 64 q 433 86 390 64 q 499 146 475 108 l 536 125 m 265 636 l 231 672 l 415 889 l 488 825 q 447 780 473 805 q 392 731 422 756 q 329 681 362 706 q 265 636 296 657 z "},"ê":{"ha":595,"x_min":56,"x_max":537,"o":"m 311 532 q 221 495 257 532 q 174 375 185 457 l 428 375 q 429 386 429 380 q 430 398 430 392 q 399 495 430 458 q 311 532 368 532 m 536 125 q 457 26 516 64 q 312 -12 398 -12 q 199 10 247 -12 q 119 71 151 32 q 72 164 87 110 q 56 281 56 218 q 75 411 56 354 q 130 508 94 469 q 215 569 165 548 q 326 590 265 590 q 412 577 373 590 q 479 539 451 564 q 522 477 507 515 q 537 391 537 440 q 536 357 537 377 q 532 321 534 337 l 170 321 q 170 314 170 318 q 170 306 170 310 q 183 191 170 237 q 219 116 196 144 q 273 76 242 88 q 341 64 305 64 q 433 86 390 64 q 499 146 475 108 l 536 125 m 163 636 l 124 670 l 264 865 l 348 873 l 504 673 l 463 637 l 307 777 l 163 636 z "},"ē":{"ha":595,"x_min":56,"x_max":537,"o":"m 311 532 q 221 495 257 532 q 174 375 185 457 l 428 375 q 429 386 429 380 q 430 398 430 392 q 399 495 430 458 q 311 532 368 532 m 536 125 q 457 26 516 64 q 312 -12 398 -12 q 199 10 247 -12 q 119 71 151 32 q 72 164 87 110 q 56 281 56 218 q 75 411 56 354 q 130 508 94 469 q 215 569 165 548 q 326 590 265 590 q 412 577 373 590 q 479 539 451 564 q 522 477 507 515 q 537 391 537 440 q 536 357 537 377 q 532 321 534 337 l 170 321 q 170 314 170 318 q 170 306 170 310 q 183 191 170 237 q 219 116 196 144 q 273 76 242 88 q 341 64 305 64 q 433 86 390 64 q 499 146 475 108 l 536 125 m 144 687 l 144 761 l 481 761 l 481 687 l 144 687 z "},"ĕ":{"ha":595,"x_min":56,"x_max":537,"o":"m 311 532 q 221 495 257 532 q 174 375 185 457 l 428 375 q 429 386 429 380 q 430 398 430 392 q 399 495 430 458 q 311 532 368 532 m 536 125 q 457 26 516 64 q 312 -12 398 -12 q 199 10 247 -12 q 119 71 151 32 q 72 164 87 110 q 56 281 56 218 q 75 411 56 354 q 130 508 94 469 q 215 569 165 548 q 326 590 265 590 q 412 577 373 590 q 479 539 451 564 q 522 477 507 515 q 537 391 537 440 q 536 357 537 377 q 532 321 534 337 l 170 321 q 170 314 170 318 q 170 306 170 310 q 183 191 170 237 q 219 116 196 144 q 273 76 242 88 q 341 64 305 64 q 433 86 390 64 q 499 146 475 108 l 536 125 m 501 809 q 476 748 493 777 q 435 699 459 720 q 378 667 410 679 q 310 655 346 655 q 240 667 272 655 q 185 701 209 680 q 145 750 161 722 q 125 809 130 778 l 176 832 q 233 764 197 787 q 314 740 268 740 q 393 762 356 740 q 456 832 430 784 l 501 809 z "},"ė":{"ha":595,"x_min":56,"x_max":537,"o":"m 311 532 q 221 495 257 532 q 174 375 185 457 l 428 375 q 429 386 429 380 q 430 398 430 392 q 399 495 430 458 q 311 532 368 532 m 536 125 q 457 26 516 64 q 312 -12 398 -12 q 199 10 247 -12 q 119 71 151 32 q 72 164 87 110 q 56 281 56 218 q 75 411 56 354 q 130 508 94 469 q 215 569 165 548 q 326 590 265 590 q 412 577 373 590 q 479 539 451 564 q 522 477 507 515 q 537 391 537 440 q 536 357 537 377 q 532 321 534 337 l 170 321 q 170 314 170 318 q 170 306 170 310 q 183 191 170 237 q 219 116 196 144 q 273 76 242 88 q 341 64 305 64 q 433 86 390 64 q 499 146 475 108 l 536 125 m 397 743 q 377 691 397 711 q 323 670 356 670 q 269 691 289 670 q 248 743 248 711 q 269 795 248 775 q 323 816 289 816 q 377 795 356 816 q 397 743 397 775 z "},"ë":{"ha":595,"x_min":56,"x_max":537,"o":"m 311 532 q 221 495 257 532 q 174 375 185 457 l 428 375 q 429 386 429 380 q 430 398 430 392 q 399 495 430 458 q 311 532 368 532 m 536 125 q 457 26 516 64 q 312 -12 398 -12 q 199 10 247 -12 q 119 71 151 32 q 72 164 87 110 q 56 281 56 218 q 75 411 56 354 q 130 508 94 469 q 215 569 165 548 q 326 590 265 590 q 412 577 373 590 q 479 539 451 564 q 522 477 507 515 q 537 391 537 440 q 536 357 537 377 q 532 321 534 337 l 170 321 q 170 314 170 318 q 170 306 170 310 q 183 191 170 237 q 219 116 196 144 q 273 76 242 88 q 341 64 305 64 q 433 86 390 64 q 499 146 475 108 l 536 125 m 489 739 q 471 691 489 709 q 425 672 454 672 q 378 691 395 672 q 360 739 360 709 q 378 787 360 768 q 425 806 395 806 q 471 787 454 806 q 489 739 489 768 m 265 739 q 246 691 265 709 q 199 672 228 672 q 153 691 171 672 q 134 739 134 709 q 153 787 134 768 q 199 806 171 806 q 246 787 228 806 q 265 739 265 768 z "},"ě":{"ha":595,"x_min":56,"x_max":537,"o":"m 311 532 q 221 495 257 532 q 174 375 185 457 l 428 375 q 429 386 429 380 q 430 398 430 392 q 399 495 430 458 q 311 532 368 532 m 536 125 q 457 26 516 64 q 312 -12 398 -12 q 199 10 247 -12 q 119 71 151 32 q 72 164 87 110 q 56 281 56 218 q 75 411 56 354 q 130 508 94 469 q 215 569 165 548 q 326 590 265 590 q 412 577 373 590 q 479 539 451 564 q 522 477 507 515 q 537 391 537 440 q 536 357 537 377 q 532 321 534 337 l 170 321 q 170 314 170 318 q 170 306 170 310 q 183 191 170 237 q 219 116 196 144 q 273 76 242 88 q 341 64 305 64 q 433 86 390 64 q 499 146 475 108 l 536 125 m 469 893 l 508 859 l 368 664 l 283 656 l 128 856 l 169 892 l 325 753 l 469 893 z "},"ę":{"ha":595,"x_min":56,"x_max":537,"o":"m 311 531 q 221 494 257 531 q 174 375 185 457 l 428 375 q 429 386 429 380 q 430 398 430 392 q 399 494 430 458 q 311 531 368 531 m 504 -222 q 444 -250 479 -240 q 374 -260 409 -260 q 286 -236 323 -260 q 248 -163 248 -213 q 259 -114 248 -137 q 285 -72 269 -91 q 320 -38 301 -53 q 358 -12 339 -23 l 358 -9 q 335 -11 346 -11 q 312 -12 324 -12 q 199 10 247 -12 q 119 71 151 32 q 72 164 87 110 q 56 281 56 218 q 75 411 56 354 q 130 508 94 469 q 215 569 165 548 q 326 590 265 590 q 412 577 373 590 q 479 539 451 564 q 522 477 507 515 q 537 391 537 440 q 536 357 537 377 q 532 321 534 337 l 170 321 q 170 314 170 318 q 170 306 170 310 q 183 191 170 237 q 219 116 196 144 q 273 76 242 88 q 341 64 305 64 q 433 86 390 64 q 499 146 475 108 l 536 125 q 511 77 528 99 q 470 35 494 54 q 377 -52 409 -12 q 344 -133 344 -92 q 364 -178 344 -163 q 415 -192 384 -192 q 449 -188 431 -192 q 485 -177 468 -185 l 504 -222 z "},"ĝ":{"ha":646,"x_min":46,"x_max":622,"o":"m 178 393 q 208 281 178 320 q 305 242 238 242 q 392 276 362 242 q 422 387 422 310 q 391 499 422 464 q 297 534 361 534 q 213 506 247 534 q 178 393 178 477 m 604 -62 q 581 -152 604 -111 q 515 -220 557 -192 q 415 -263 473 -248 q 287 -279 357 -279 q 107 -235 168 -279 q 46 -119 46 -191 q 74 -35 46 -68 q 144 19 102 -1 q 107 53 119 32 q 94 103 94 74 q 116 169 94 143 q 169 210 138 194 q 94 276 121 233 q 67 381 67 320 q 86 473 67 434 q 138 539 106 513 q 215 577 171 564 q 310 590 260 590 q 399 578 359 590 q 468 541 439 565 q 517 578 493 565 q 565 590 540 590 q 593 588 578 590 q 622 581 609 585 l 622 499 l 505 499 q 525 452 518 478 q 532 396 532 426 q 466 243 532 301 q 290 186 401 186 q 250 189 270 186 q 213 195 230 191 q 190 171 198 185 q 182 138 182 157 q 209 95 182 108 q 295 82 235 82 l 420 82 q 558 44 511 82 q 604 -62 604 6 m 308 -219 q 445 -185 391 -219 q 498 -82 498 -151 q 476 -23 498 -44 q 389 -2 454 -2 l 260 -2 q 224 -1 241 -2 q 193 3 208 1 q 164 -41 176 -16 q 153 -102 153 -67 q 186 -186 153 -152 q 308 -219 219 -219 m 156 636 l 117 670 l 257 865 l 341 873 l 497 673 l 456 637 l 299 777 l 156 636 z "},"ğ":{"ha":646,"x_min":46,"x_max":622,"o":"m 178 393 q 208 281 178 320 q 305 242 238 242 q 392 276 362 242 q 422 387 422 310 q 391 499 422 464 q 297 534 361 534 q 213 506 247 534 q 178 393 178 477 m 604 -62 q 581 -152 604 -111 q 515 -220 557 -192 q 415 -263 473 -248 q 287 -279 357 -279 q 107 -235 168 -279 q 46 -119 46 -191 q 74 -35 46 -68 q 144 19 102 -1 q 107 53 119 32 q 94 103 94 74 q 116 169 94 143 q 169 210 138 194 q 94 276 121 233 q 67 381 67 320 q 86 473 67 434 q 138 539 106 513 q 215 577 171 564 q 310 590 260 590 q 399 578 359 590 q 468 541 439 565 q 517 578 493 565 q 565 590 540 590 q 593 588 578 590 q 622 581 609 585 l 622 499 l 505 499 q 525 452 518 478 q 532 396 532 426 q 466 243 532 301 q 290 186 401 186 q 250 189 270 186 q 213 195 230 191 q 190 171 198 185 q 182 138 182 157 q 209 95 182 108 q 295 82 235 82 l 420 82 q 558 44 511 82 q 604 -62 604 6 m 308 -219 q 445 -185 391 -219 q 498 -82 498 -151 q 476 -23 498 -44 q 389 -2 454 -2 l 260 -2 q 224 -1 241 -2 q 193 3 208 1 q 164 -41 176 -16 q 153 -102 153 -67 q 186 -186 153 -152 q 308 -219 219 -219 m 493 809 q 469 748 486 777 q 428 699 452 720 q 371 667 403 679 q 303 655 339 655 q 233 667 265 655 q 178 701 202 680 q 138 750 154 722 q 118 809 123 778 l 169 832 q 226 764 190 787 q 307 740 261 740 q 386 762 349 740 q 449 832 423 784 l 493 809 z "},"ġ":{"ha":646,"x_min":46,"x_max":622,"o":"m 178 393 q 208 281 178 320 q 305 242 238 242 q 392 276 362 242 q 422 387 422 310 q 391 499 422 464 q 297 534 361 534 q 213 506 247 534 q 178 393 178 477 m 604 -62 q 581 -152 604 -111 q 515 -220 557 -192 q 415 -263 473 -248 q 287 -279 357 -279 q 107 -235 168 -279 q 46 -119 46 -191 q 74 -35 46 -68 q 144 19 102 -1 q 107 53 119 32 q 94 103 94 74 q 116 169 94 143 q 169 210 138 194 q 94 276 121 233 q 67 381 67 320 q 86 473 67 434 q 138 539 106 513 q 215 577 171 564 q 310 590 260 590 q 399 578 359 590 q 468 541 439 565 q 517 578 493 565 q 565 590 540 590 q 593 588 578 590 q 622 581 609 585 l 622 499 l 505 499 q 525 452 518 478 q 532 396 532 426 q 466 243 532 301 q 290 186 401 186 q 250 189 270 186 q 213 195 230 191 q 190 171 198 185 q 182 138 182 157 q 209 95 182 108 q 295 82 235 82 l 420 82 q 558 44 511 82 q 604 -62 604 6 m 308 -219 q 445 -185 391 -219 q 498 -82 498 -151 q 476 -23 498 -44 q 389 -2 454 -2 l 260 -2 q 224 -1 241 -2 q 193 3 208 1 q 164 -41 176 -16 q 153 -102 153 -67 q 186 -186 153 -152 q 308 -219 219 -219 m 391 743 q 370 691 391 711 q 316 670 349 670 q 262 691 283 670 q 241 743 241 711 q 262 795 241 775 q 316 816 283 816 q 370 795 349 816 q 391 743 391 775 z "},"ģ":{"ha":646,"x_min":46,"x_max":622,"o":"m 178 393 q 208 281 178 320 q 305 242 238 242 q 392 276 362 242 q 422 387 422 310 q 391 499 422 464 q 297 534 361 534 q 213 506 247 534 q 178 393 178 477 m 604 -62 q 581 -152 604 -111 q 515 -220 557 -192 q 415 -263 473 -248 q 287 -279 357 -279 q 107 -235 168 -279 q 46 -119 46 -191 q 74 -35 46 -68 q 144 19 102 -1 q 107 53 119 32 q 94 103 94 74 q 116 169 94 143 q 169 210 138 194 q 94 276 121 233 q 67 381 67 320 q 86 473 67 434 q 138 539 106 513 q 215 577 171 564 q 310 590 260 590 q 399 578 359 590 q 468 541 439 565 q 517 578 493 565 q 565 590 540 590 q 593 588 578 590 q 622 581 609 585 l 622 499 l 505 499 q 525 452 518 478 q 532 396 532 426 q 466 243 532 301 q 290 186 401 186 q 250 189 270 186 q 213 195 230 191 q 190 171 198 185 q 182 138 182 157 q 209 95 182 108 q 295 82 235 82 l 420 82 q 558 44 511 82 q 604 -62 604 6 m 308 -219 q 445 -185 391 -219 q 498 -82 498 -151 q 476 -23 498 -44 q 389 -2 454 -2 l 260 -2 q 224 -1 241 -2 q 193 3 208 1 q 164 -41 176 -16 q 153 -102 153 -67 q 186 -186 153 -152 q 308 -219 219 -219 m 235 758 q 268 845 236 807 q 342 905 299 883 l 370 874 q 336 839 352 859 q 320 798 320 820 q 328 775 320 782 q 342 764 336 769 q 359 748 351 759 q 367 720 367 738 q 351 681 367 696 q 311 666 335 666 q 257 692 278 666 q 235 758 235 719 z "},"ĥ":{"ha":721,"x_min":10,"x_max":693,"o":"m 315 52 l 315 0 l 35 0 l 35 52 l 97 61 q 118 71 111 63 q 125 92 125 78 l 125 793 q 117 814 125 806 q 97 823 110 821 l 23 834 l 23 880 q 69 892 44 887 q 120 900 94 897 q 170 906 145 904 q 217 908 195 908 l 233 891 l 233 511 q 326 570 274 553 q 430 588 377 588 q 567 529 530 588 q 603 366 603 471 l 603 92 q 610 71 603 79 q 631 61 618 63 l 693 52 l 693 0 l 413 0 l 413 52 l 468 61 q 487 70 480 63 q 495 92 495 78 l 495 346 q 472 471 495 430 q 384 512 449 512 q 305 500 344 512 q 233 463 266 488 l 233 92 q 240 71 233 78 q 260 61 247 64 l 315 52 m 45 943 l 10 982 l 156 1138 l 242 1143 l 402 985 l 365 944 l 198 1053 l 45 943 z "},"ħ":{"ha":721,"x_min":23,"x_max":693,"o":"m 315 52 l 315 0 l 35 0 l 35 52 l 97 61 q 118 71 111 63 q 125 92 125 78 l 125 668 l 34 668 l 34 726 l 125 726 l 125 793 q 117 814 125 806 q 97 823 110 821 l 23 834 l 23 880 q 69 892 44 887 q 120 900 94 897 q 170 906 145 904 q 217 908 195 908 l 233 891 l 233 726 l 405 726 l 405 668 l 233 668 l 233 497 q 326 557 274 539 q 430 574 377 574 q 567 515 530 574 q 603 353 603 457 l 603 92 q 610 71 603 79 q 631 61 618 63 l 693 52 l 693 0 l 413 0 l 413 52 l 468 61 q 487 70 480 63 q 495 92 495 78 l 495 333 q 472 457 495 416 q 384 498 449 498 q 305 486 344 498 q 233 449 266 474 l 233 92 q 240 71 233 78 q 260 61 247 64 l 315 52 z "},"ì":{"ha":372,"x_min":17,"x_max":337,"o":"m 247 571 l 247 93 q 255 71 247 79 q 275 61 262 63 l 337 52 l 337 0 l 49 0 l 49 52 l 112 61 q 132 71 125 63 q 139 92 139 79 l 139 469 q 133 490 139 482 q 113 501 126 498 l 42 511 l 42 560 q 137 580 86 573 q 231 587 188 586 l 247 571 m 91 889 l 270 674 l 234 636 q 171 681 204 657 q 110 730 139 705 q 57 780 81 756 q 17 825 33 805 l 91 889 z "},"í":{"ha":372,"x_min":42,"x_max":346,"o":"m 247 571 l 247 93 q 255 71 247 79 q 275 61 262 63 l 337 52 l 337 0 l 49 0 l 49 52 l 112 61 q 132 71 125 63 q 139 92 139 79 l 139 469 q 133 490 139 482 q 113 501 126 498 l 42 511 l 42 560 q 137 580 86 573 q 231 587 188 586 l 247 571 m 122 636 l 89 672 l 272 889 l 346 825 q 305 780 330 805 q 250 731 280 756 q 187 681 220 706 q 122 636 154 657 z "},"î":{"ha":372,"x_min":-2,"x_max":345,"o":"m 247 571 l 247 93 q 255 71 247 79 q 275 61 262 63 l 337 52 l 337 0 l 49 0 l 49 52 l 112 61 q 132 71 125 63 q 139 92 139 79 l 139 469 q 133 490 139 482 q 113 501 126 498 l 42 511 l 42 560 q 137 580 86 573 q 231 587 188 586 l 247 571 m 37 636 l -2 668 l 122 863 l 206 871 l 345 671 l 305 637 l 164 776 l 37 636 z "},"ĩ":{"ha":372,"x_min":-27,"x_max":368,"o":"m 247 571 l 247 93 q 255 71 247 79 q 275 61 262 63 l 337 52 l 337 0 l 49 0 l 49 52 l 112 61 q 132 71 125 63 q 139 92 139 79 l 139 469 q 133 490 139 482 q 113 501 126 498 l 42 511 l 42 560 q 137 580 86 573 q 231 587 188 586 l 247 571 m 368 780 q 349 735 361 758 q 321 694 337 712 q 282 664 304 676 q 234 653 261 653 q 191 664 211 653 q 154 689 171 675 q 121 713 137 702 q 89 724 106 724 q 44 703 64 724 q 11 661 24 682 l -27 680 q -9 726 -21 703 q 20 767 3 749 q 58 797 36 785 q 107 808 80 808 q 149 797 130 808 q 186 772 169 786 q 219 748 203 759 q 251 737 235 737 q 296 758 276 737 q 329 801 316 778 l 368 780 z "},"ī":{"ha":372,"x_min":17,"x_max":337,"o":"m 247 571 l 247 93 q 255 71 247 79 q 275 61 262 63 l 337 52 l 337 0 l 49 0 l 49 52 l 112 61 q 132 71 125 63 q 139 92 139 79 l 139 469 q 133 490 139 482 q 113 501 126 498 l 42 511 l 42 560 q 137 580 86 573 q 231 587 188 586 l 247 571 m 17 687 l 17 761 l 323 761 l 323 687 l 17 687 z "},"ĭ":{"ha":372,"x_min":-8,"x_max":348,"o":"m 247 571 l 247 93 q 255 71 247 79 q 275 61 262 63 l 337 52 l 337 0 l 49 0 l 49 52 l 112 61 q 132 71 125 63 q 139 92 139 79 l 139 469 q 133 490 139 482 q 113 501 126 498 l 42 511 l 42 560 q 137 580 86 573 q 231 587 188 586 l 247 571 m 348 809 q 324 748 340 777 q 285 699 308 720 q 232 667 262 679 q 167 655 202 655 q 102 667 132 655 q 50 701 72 680 q 13 750 27 722 q -8 809 -2 778 l 43 830 q 96 761 64 785 q 171 737 129 737 q 245 760 211 737 q 304 830 279 782 l 348 809 z "},"ı":{"ha":372,"x_min":42,"x_max":337,"o":"m 247 571 l 247 93 q 255 71 247 79 q 275 61 262 63 l 337 52 l 337 0 l 49 0 l 49 52 l 112 61 q 132 71 125 63 q 139 92 139 79 l 139 469 q 133 490 139 482 q 113 501 126 498 l 42 511 l 42 560 q 137 580 86 573 q 231 587 188 586 l 247 571 z "},"ï":{"ha":372,"x_min":-8,"x_max":347,"o":"m 247 571 l 247 93 q 255 71 247 79 q 275 61 262 63 l 337 52 l 337 0 l 49 0 l 49 52 l 112 61 q 132 71 125 63 q 139 92 139 79 l 139 469 q 133 490 139 482 q 113 501 126 498 l 42 511 l 42 560 q 137 580 86 573 q 231 587 188 586 l 247 571 m 347 739 q 329 691 347 709 q 282 672 311 672 q 235 691 253 672 q 217 739 217 709 q 235 787 217 768 q 282 806 253 806 q 329 787 311 806 q 347 739 347 768 m 122 739 q 104 691 122 709 q 57 672 86 672 q 10 691 28 672 q -8 739 -8 709 q 10 787 -8 768 q 57 806 28 806 q 104 787 86 806 q 122 739 122 768 z "},"į":{"ha":372,"x_min":42,"x_max":337,"o":"m 313 -222 q 253 -250 288 -240 q 182 -260 217 -260 q 93 -236 131 -260 q 56 -163 56 -213 q 68 -112 56 -136 q 99 -68 80 -88 q 143 -31 118 -47 q 195 -3 169 -14 l 195 0 l 49 0 l 49 52 l 112 61 q 132 71 125 63 q 139 92 139 79 l 139 469 q 133 490 139 482 q 113 501 126 498 l 42 511 l 42 560 q 137 580 86 573 q 231 587 188 586 l 247 571 l 247 93 q 255 71 247 79 q 275 61 262 63 l 337 52 l 337 0 l 281 0 q 189 -58 226 -22 q 153 -134 153 -95 q 173 -178 153 -164 q 224 -192 193 -192 q 258 -188 240 -192 q 293 -177 276 -185 l 313 -222 m 256 743 q 235 691 256 711 q 181 670 214 670 q 127 691 147 670 q 106 743 106 711 q 127 795 106 775 q 181 816 147 816 q 235 795 214 816 q 256 743 256 775 z "},"ĳ":{"ha":690,"x_min":42,"x_max":590,"o":"m 247 571 l 247 93 q 255 71 247 79 q 275 61 262 63 l 337 52 l 337 0 l 49 0 l 49 52 l 112 61 q 132 71 125 63 q 139 92 139 79 l 139 469 q 133 490 139 482 q 113 501 126 498 l 42 511 l 42 560 q 137 580 86 573 q 231 587 188 586 l 247 571 m 256 743 q 235 691 256 711 q 181 670 214 670 q 127 691 147 670 q 106 743 106 711 q 127 795 106 775 q 181 816 147 816 q 235 795 214 816 q 256 743 256 775 m 574 587 l 590 571 l 590 61 q 586 -33 590 7 q 572 -100 581 -72 q 547 -150 563 -129 q 510 -189 532 -171 q 438 -236 478 -217 q 356 -269 397 -255 l 330 -220 q 405 -164 376 -191 q 452 -106 434 -137 q 475 -34 469 -74 q 482 62 482 6 l 482 469 q 476 490 482 482 q 456 501 469 498 l 385 511 l 385 560 q 480 580 428 573 q 574 587 531 586 m 588 743 q 568 691 588 711 q 514 670 547 670 q 460 691 480 670 q 439 743 439 711 q 460 795 439 775 q 514 816 480 816 q 568 795 547 816 q 588 743 588 775 z "},"ﰀ":{"ha":336,"x_min":-24,"x_max":324,"o":"m 219 587 l 235 571 l 235 61 q 231 -33 235 7 q 217 -100 227 -72 q 193 -150 208 -129 q 156 -189 178 -171 q 83 -236 124 -217 q 1 -269 42 -255 l -24 -220 q 51 -164 21 -191 q 97 -106 80 -137 q 121 -34 114 -74 q 127 62 127 6 l 128 469 q 121 490 128 482 q 101 501 114 498 l 31 511 l 31 560 q 125 580 74 573 q 219 587 176 586 m 101 636 l 67 672 l 251 889 l 324 825 q 283 780 309 805 q 228 731 258 756 q 165 681 198 706 q 101 636 132 657 z "},"ĵ":{"ha":336,"x_min":-24,"x_max":323,"o":"m 219 587 l 235 571 l 235 61 q 231 -33 235 7 q 217 -100 227 -72 q 193 -150 208 -129 q 156 -189 178 -171 q 83 -236 124 -217 q 1 -269 42 -255 l -24 -220 q 51 -164 21 -191 q 97 -106 80 -137 q 121 -34 114 -74 q 127 62 127 6 l 128 469 q 121 490 128 482 q 101 501 114 498 l 31 511 l 31 560 q 125 580 74 573 q 219 587 176 586 m 15 636 l -23 668 l 100 863 l 184 871 l 323 671 l 283 637 l 142 776 l 15 636 z "},"ȷ":{"ha":336,"x_min":-24,"x_max":235,"o":"m 219 587 l 235 571 l 235 61 q 231 -33 235 7 q 217 -100 227 -72 q 193 -150 208 -129 q 156 -189 178 -171 q 83 -236 124 -217 q 1 -269 42 -255 l -24 -220 q 51 -164 21 -191 q 97 -106 80 -137 q 121 -34 114 -74 q 127 62 127 6 l 128 469 q 121 490 128 482 q 101 501 114 498 l 31 511 l 31 560 q 125 580 74 573 q 219 587 176 586 z "},"ķ":{"ha":678,"x_min":23,"x_max":662,"o":"m 322 52 l 322 0 l 35 0 l 35 52 l 97 61 q 118 71 111 63 q 125 92 125 79 l 125 791 q 118 813 125 805 q 97 822 111 820 l 23 833 l 23 879 q 120 899 67 892 q 217 908 173 907 l 233 892 l 233 261 l 460 509 l 359 525 l 359 574 l 635 574 l 635 525 l 574 512 q 550 505 560 509 q 531 491 540 501 l 401 357 q 428 318 416 337 q 455 273 441 298 l 560 96 q 578 75 569 82 q 598 65 587 68 l 662 52 l 662 0 l 509 0 q 471 24 488 0 q 434 87 455 48 l 377 196 q 352 242 364 220 q 329 282 340 263 l 233 181 l 233 92 q 240 71 233 79 q 260 61 247 63 l 322 52 m 444 -147 q 412 -234 444 -196 q 338 -294 380 -272 l 310 -263 q 344 -229 329 -248 q 360 -188 360 -210 q 352 -165 360 -171 q 338 -154 344 -158 q 321 -138 330 -148 q 313 -109 313 -128 q 329 -71 313 -86 q 369 -56 344 -56 q 423 -82 402 -56 q 444 -147 445 -108 z "},"ĺ":{"ha":363,"x_min":23,"x_max":356,"o":"m 236 892 l 236 92 q 243 71 236 78 q 263 61 250 63 l 336 51 l 336 0 l 27 0 l 27 52 l 100 61 q 120 71 113 63 q 128 91 128 78 l 128 791 q 120 813 128 805 q 100 822 113 820 l 23 833 l 23 879 q 70 891 45 886 q 121 899 95 896 q 173 905 147 903 q 220 908 198 908 l 236 892 m 356 1078 q 301 1045 334 1062 q 230 1012 268 1028 q 153 980 192 995 q 80 953 114 965 l 58 995 l 299 1158 l 356 1078 z "},"ļ":{"ha":363,"x_min":23,"x_max":336,"o":"m 236 892 l 236 92 q 243 71 236 78 q 263 61 250 63 l 336 51 l 336 0 l 27 0 l 27 52 l 100 61 q 120 71 113 63 q 128 91 128 78 l 128 791 q 120 813 128 805 q 100 822 113 820 l 23 833 l 23 879 q 70 891 45 886 q 121 899 95 896 q 173 905 147 903 q 220 908 198 908 l 236 892 m 252 -147 q 219 -234 251 -196 q 145 -294 187 -272 l 117 -263 q 152 -229 136 -248 q 167 -188 167 -210 q 159 -165 167 -171 q 145 -154 152 -158 q 129 -138 137 -148 q 120 -109 120 -128 q 136 -71 120 -86 q 176 -56 152 -56 q 231 -82 209 -56 q 252 -147 252 -108 z "},"ľ":{"ha":381,"x_min":23,"x_max":428,"o":"m 236 892 l 236 92 q 243 71 236 78 q 263 61 250 63 l 336 51 l 336 0 l 27 0 l 27 52 l 100 61 q 120 71 113 63 q 128 91 128 78 l 128 791 q 120 813 128 805 q 100 822 113 820 l 23 833 l 23 879 q 70 891 45 886 q 121 899 95 896 q 173 905 147 903 q 220 908 198 908 l 236 892 m 359 662 l 308 673 l 331 949 l 428 938 q 402 800 420 873 q 359 662 383 727 z "},"ŀ":{"ha":484,"x_min":23,"x_max":496,"o":"m 236 892 l 236 92 q 243 71 236 78 q 263 61 250 63 l 336 51 l 336 0 l 27 0 l 27 52 l 100 61 q 120 71 113 63 q 128 91 128 78 l 128 791 q 120 813 128 805 q 100 822 113 820 l 23 833 l 23 879 q 70 891 45 886 q 121 899 95 896 q 173 905 147 903 q 220 908 198 908 l 236 892 m 496 377 q 475 325 496 345 q 421 305 455 305 q 367 325 388 305 q 346 377 346 345 q 367 430 346 410 q 421 450 388 450 q 475 430 455 450 q 496 377 496 410 z "},"ł":{"ha":385,"x_min":27,"x_max":365,"o":"m 351 0 l 41 0 l 41 52 l 114 61 q 135 71 127 63 q 142 91 142 78 l 142 399 l 27 341 l 27 412 l 142 468 l 142 791 q 135 813 142 805 q 114 822 127 820 l 37 833 l 37 879 q 84 891 59 886 q 136 899 110 896 q 187 905 162 903 q 234 908 212 908 l 250 892 l 250 512 l 365 572 l 365 497 l 250 443 l 250 92 q 257 71 250 78 q 277 61 264 63 l 351 51 l 351 0 z "},"ń":{"ha":735,"x_min":42,"x_max":707,"o":"m 330 52 l 330 0 l 49 0 l 49 52 l 112 61 q 132 71 125 63 q 139 92 139 79 l 139 469 q 133 490 139 482 q 113 501 126 498 l 42 511 l 42 560 q 130 580 83 573 q 218 587 177 586 l 235 569 l 243 507 q 337 570 285 552 q 444 588 390 588 q 581 529 544 588 q 617 366 617 471 l 617 92 q 624 71 617 79 q 644 61 632 63 l 707 52 l 707 0 l 427 0 l 427 52 l 482 61 q 501 70 493 63 q 509 92 509 78 l 509 346 q 486 471 509 430 q 398 512 464 512 q 319 500 358 512 q 247 463 280 488 l 247 92 q 255 71 247 79 q 274 61 262 64 l 330 52 m 323 636 l 289 672 l 473 889 l 546 825 q 506 780 531 805 q 450 731 480 756 q 387 681 420 706 q 323 636 354 657 z "},"ñ":{"ha":735,"x_min":42,"x_max":707,"o":"m 330 52 l 330 0 l 49 0 l 49 52 l 112 61 q 132 71 125 63 q 139 92 139 79 l 139 469 q 133 490 139 482 q 113 501 126 498 l 42 511 l 42 560 q 130 580 83 573 q 218 587 177 586 l 235 569 l 243 507 q 337 570 285 552 q 444 588 390 588 q 581 529 544 588 q 617 366 617 471 l 617 92 q 624 71 617 79 q 644 61 632 63 l 707 52 l 707 0 l 427 0 l 427 52 l 482 61 q 501 70 493 63 q 509 92 509 78 l 509 346 q 486 471 509 430 q 398 512 464 512 q 319 500 358 512 q 247 463 280 488 l 247 92 q 255 71 247 79 q 274 61 262 64 l 330 52 m 579 780 q 560 735 572 758 q 532 694 548 712 q 493 664 515 676 q 444 653 471 653 q 395 664 418 653 q 354 689 373 675 q 316 713 334 702 q 280 724 298 724 q 234 703 254 724 q 200 659 214 681 l 163 680 q 181 726 169 703 q 209 767 192 749 q 248 797 226 785 q 297 808 270 808 q 346 797 324 808 q 388 772 368 786 q 425 748 407 759 q 462 737 443 737 q 507 758 487 737 q 541 803 527 780 l 579 780 z "},"ň":{"ha":735,"x_min":42,"x_max":707,"o":"m 330 52 l 330 0 l 49 0 l 49 52 l 112 61 q 132 71 125 63 q 139 92 139 79 l 139 469 q 133 490 139 482 q 113 501 126 498 l 42 511 l 42 560 q 130 580 83 573 q 218 587 177 586 l 235 569 l 243 507 q 337 570 285 552 q 444 588 390 588 q 581 529 544 588 q 617 366 617 471 l 617 92 q 624 71 617 79 q 644 61 632 63 l 707 52 l 707 0 l 427 0 l 427 52 l 482 61 q 501 70 493 63 q 509 92 509 78 l 509 346 q 486 471 509 430 q 398 512 464 512 q 319 500 358 512 q 247 463 280 488 l 247 92 q 255 71 247 79 q 274 61 262 64 l 330 52 m 527 893 l 566 859 l 426 664 l 341 656 l 186 856 l 227 892 l 383 753 l 527 893 z "},"ŋ":{"ha":711,"x_min":42,"x_max":618,"o":"m 427 -254 q 397 -254 413 -254 q 366 -251 381 -253 l 362 -198 q 420 -185 389 -193 q 472 -154 452 -176 q 500 -89 492 -132 q 509 28 509 -45 l 509 346 q 485 472 509 431 q 394 512 462 512 q 318 500 357 512 q 247 463 280 487 l 247 92 q 255 71 247 79 q 274 61 262 64 l 330 52 l 330 0 l 49 0 l 49 52 l 112 61 q 132 71 125 63 q 139 92 139 79 l 139 469 q 133 490 139 482 q 113 501 126 498 l 42 511 l 42 560 q 130 580 83 573 q 218 587 177 586 l 235 569 l 243 507 q 338 570 285 552 q 442 588 391 588 q 581 530 544 588 q 618 366 618 472 l 618 8 q 574 -187 618 -120 q 427 -254 530 -254 z "},"ņ":{"ha":735,"x_min":42,"x_max":707,"o":"m 330 52 l 330 0 l 49 0 l 49 52 l 112 61 q 132 71 125 63 q 139 92 139 79 l 139 469 q 133 490 139 482 q 113 501 126 498 l 42 511 l 42 560 q 130 580 83 573 q 218 587 177 586 l 235 569 l 243 507 q 337 570 285 552 q 444 588 390 588 q 581 529 544 588 q 617 366 617 471 l 617 92 q 624 71 617 79 q 644 61 632 63 l 707 52 l 707 0 l 427 0 l 427 52 l 482 61 q 501 70 493 63 q 509 92 509 78 l 509 346 q 486 471 509 430 q 398 512 464 512 q 319 500 358 512 q 247 463 280 488 l 247 92 q 255 71 247 79 q 274 61 262 64 l 330 52 m 453 -147 q 421 -234 453 -196 q 346 -294 389 -272 l 319 -263 q 353 -229 337 -248 q 369 -188 369 -210 q 361 -165 369 -171 q 346 -154 353 -158 q 330 -138 338 -148 q 322 -109 322 -128 q 337 -71 322 -86 q 378 -56 353 -56 q 432 -82 411 -56 q 453 -147 454 -108 z "},"ŉ":{"ha":743,"x_min":-36,"x_max":715,"o":"m 338 52 l 338 0 l 58 0 l 58 52 l 120 61 q 141 71 133 63 q 148 92 148 79 l 148 469 q 141 490 148 482 q 121 501 134 498 l 51 511 l 51 560 q 139 580 92 573 q 226 587 185 586 l 244 569 l 252 507 q 346 570 293 552 q 453 588 398 588 q 589 529 553 588 q 626 366 626 471 l 626 92 q 633 71 626 79 q 653 61 640 63 l 715 52 l 715 0 l 435 0 l 435 52 l 490 61 q 510 70 502 63 q 518 92 518 78 l 518 346 q 495 471 518 430 q 407 512 472 512 q 328 500 367 512 q 256 463 289 488 l 256 92 q 263 71 256 79 q 283 61 270 64 l 338 52 m 129 799 q 91 690 129 742 q -14 605 53 638 l -36 637 q 13 688 -7 659 q 33 741 33 718 q 28 760 33 754 q 16 772 22 767 q -6 797 1 783 q -14 828 -14 812 q 6 876 -14 857 q 53 895 25 895 q 106 870 82 895 q 129 799 129 845 z "},"ò":{"ha":650,"x_min":57,"x_max":593,"o":"m 57 285 q 79 423 57 365 q 138 518 101 481 q 227 572 176 555 q 334 590 277 590 q 451 568 402 590 q 532 508 500 547 q 578 414 563 470 q 593 292 593 359 q 571 155 593 213 q 512 60 549 97 q 424 6 475 23 q 316 -12 373 -12 q 199 9 248 -12 q 119 69 150 31 q 72 163 87 108 q 57 285 57 219 m 474 282 q 466 385 474 339 q 441 464 459 432 q 394 515 424 497 q 321 532 365 532 q 212 476 247 532 q 176 296 176 420 q 184 193 176 239 q 208 114 191 146 q 255 63 226 81 q 329 45 285 45 q 438 102 403 45 q 474 282 474 158 m 246 889 l 425 674 l 389 636 q 327 681 359 657 q 265 730 294 705 q 212 780 236 756 q 172 825 188 805 l 246 889 z "},"ó":{"ha":650,"x_min":57,"x_max":593,"o":"m 57 285 q 79 423 57 365 q 138 518 101 481 q 227 572 176 555 q 334 590 277 590 q 451 568 402 590 q 532 508 500 547 q 578 414 563 470 q 593 292 593 359 q 571 155 593 213 q 512 60 549 97 q 424 6 475 23 q 316 -12 373 -12 q 199 9 248 -12 q 119 69 150 31 q 72 163 87 108 q 57 285 57 219 m 474 282 q 466 385 474 339 q 441 464 459 432 q 394 515 424 497 q 321 532 365 532 q 212 476 247 532 q 176 296 176 420 q 184 193 176 239 q 208 114 191 146 q 255 63 226 81 q 329 45 285 45 q 438 102 403 45 q 474 282 474 158 m 277 636 l 244 672 l 427 889 l 501 825 q 460 780 485 805 q 405 731 435 756 q 342 681 375 706 q 277 636 309 657 z "},"ô":{"ha":650,"x_min":57,"x_max":593,"o":"m 57 285 q 79 423 57 365 q 138 518 101 481 q 227 572 176 555 q 334 590 277 590 q 451 568 402 590 q 532 508 500 547 q 578 414 563 470 q 593 292 593 359 q 571 155 593 213 q 512 60 549 97 q 424 6 475 23 q 316 -12 373 -12 q 199 9 248 -12 q 119 69 150 31 q 72 163 87 108 q 57 285 57 219 m 474 282 q 466 385 474 339 q 441 464 459 432 q 394 515 424 497 q 321 532 365 532 q 212 476 247 532 q 176 296 176 420 q 184 193 176 239 q 208 114 191 146 q 255 63 226 81 q 329 45 285 45 q 438 102 403 45 q 474 282 474 158 m 176 636 l 137 670 l 277 865 l 361 873 l 517 673 l 476 637 l 319 777 l 176 636 z "},"õ":{"ha":650,"x_min":57,"x_max":593,"o":"m 57 285 q 79 423 57 365 q 138 518 101 481 q 227 572 176 555 q 334 590 277 590 q 451 568 402 590 q 532 508 500 547 q 578 414 563 470 q 593 292 593 359 q 571 155 593 213 q 512 60 549 97 q 424 6 475 23 q 316 -12 373 -12 q 199 9 248 -12 q 119 69 150 31 q 72 163 87 108 q 57 285 57 219 m 474 282 q 466 385 474 339 q 441 464 459 432 q 394 515 424 497 q 321 532 365 532 q 212 476 247 532 q 176 296 176 420 q 184 193 176 239 q 208 114 191 146 q 255 63 226 81 q 329 45 285 45 q 438 102 403 45 q 474 282 474 158 m 533 780 q 515 735 527 758 q 486 694 503 712 q 448 664 470 676 q 399 653 426 653 q 350 664 372 653 q 308 689 328 675 q 271 713 289 702 q 234 724 253 724 q 189 703 209 724 q 155 659 169 681 l 117 680 q 135 726 124 703 q 164 767 147 749 q 203 797 181 785 q 252 808 225 808 q 301 797 278 808 q 342 772 323 786 q 380 748 362 759 q 416 737 397 737 q 462 758 442 737 q 495 803 481 780 l 533 780 z "},"ō":{"ha":650,"x_min":57,"x_max":593,"o":"m 57 285 q 79 423 57 365 q 138 518 101 481 q 227 572 176 555 q 334 590 277 590 q 451 568 402 590 q 532 508 500 547 q 578 414 563 470 q 593 292 593 359 q 571 155 593 213 q 512 60 549 97 q 424 6 475 23 q 316 -12 373 -12 q 199 9 248 -12 q 119 69 150 31 q 72 163 87 108 q 57 285 57 219 m 474 282 q 466 385 474 339 q 441 464 459 432 q 394 515 424 497 q 321 532 365 532 q 212 476 247 532 q 176 296 176 420 q 184 193 176 239 q 208 114 191 146 q 255 63 226 81 q 329 45 285 45 q 438 102 403 45 q 474 282 474 158 m 157 687 l 157 761 l 493 761 l 493 687 l 157 687 z "},"ŏ":{"ha":650,"x_min":57,"x_max":593,"o":"m 57 285 q 79 423 57 365 q 138 518 101 481 q 227 572 176 555 q 334 590 277 590 q 451 568 402 590 q 532 508 500 547 q 578 414 563 470 q 593 292 593 359 q 571 155 593 213 q 512 60 549 97 q 424 6 475 23 q 316 -12 373 -12 q 199 9 248 -12 q 119 69 150 31 q 72 163 87 108 q 57 285 57 219 m 474 282 q 466 385 474 339 q 441 464 459 432 q 394 515 424 497 q 321 532 365 532 q 212 476 247 532 q 176 296 176 420 q 184 193 176 239 q 208 114 191 146 q 255 63 226 81 q 329 45 285 45 q 438 102 403 45 q 474 282 474 158 m 513 809 q 489 748 506 777 q 447 699 472 720 q 391 667 423 679 q 322 655 359 655 q 253 667 285 655 q 197 701 221 680 q 158 750 174 722 q 137 809 142 778 l 188 832 q 245 764 210 787 q 326 740 280 740 q 406 762 369 740 q 469 832 443 784 l 513 809 z "},"ö":{"ha":650,"x_min":57,"x_max":593,"o":"m 57 285 q 79 423 57 365 q 138 518 101 481 q 227 572 176 555 q 334 590 277 590 q 451 568 402 590 q 532 508 500 547 q 578 414 563 470 q 593 292 593 359 q 571 155 593 213 q 512 60 549 97 q 424 6 475 23 q 316 -12 373 -12 q 199 9 248 -12 q 119 69 150 31 q 72 163 87 108 q 57 285 57 219 m 474 282 q 466 385 474 339 q 441 464 459 432 q 394 515 424 497 q 321 532 365 532 q 212 476 247 532 q 176 296 176 420 q 184 193 176 239 q 208 114 191 146 q 255 63 226 81 q 329 45 285 45 q 438 102 403 45 q 474 282 474 158 m 502 739 q 484 691 502 709 q 437 672 466 672 q 390 691 408 672 q 372 739 372 709 q 390 787 372 768 q 437 806 408 806 q 484 787 466 806 q 502 739 502 768 m 277 739 q 259 691 277 709 q 212 672 241 672 q 165 691 183 672 q 147 739 147 709 q 165 787 147 768 q 212 806 183 806 q 259 787 241 806 q 277 739 277 768 z "},"ő":{"ha":650,"x_min":57,"x_max":593,"o":"m 57 285 q 79 423 57 365 q 138 518 101 481 q 227 572 176 555 q 334 590 277 590 q 451 568 402 590 q 532 508 500 547 q 578 414 563 470 q 593 292 593 359 q 571 155 593 213 q 512 60 549 97 q 424 6 475 23 q 316 -12 373 -12 q 199 9 248 -12 q 119 69 150 31 q 72 163 87 108 q 57 285 57 219 m 474 282 q 466 385 474 339 q 441 464 459 432 q 394 515 424 497 q 321 532 365 532 q 212 476 247 532 q 176 296 176 420 q 184 193 176 239 q 208 114 191 146 q 255 63 226 81 q 329 45 285 45 q 438 102 403 45 q 474 282 474 158 m 218 651 l 180 679 l 307 905 l 386 859 q 354 807 374 835 q 310 749 333 778 q 262 695 286 721 q 218 651 238 669 m 409 651 l 374 682 l 515 900 l 590 849 q 555 799 577 827 q 508 744 533 772 q 456 692 482 717 q 409 651 430 668 z "},"ø":{"ha":650,"x_min":57,"x_max":593,"o":"m 172 296 q 180 187 172 236 q 210 106 189 138 l 403 511 q 366 527 387 521 q 321 532 346 532 q 209 476 246 532 q 172 296 172 420 m 329 45 q 441 102 404 45 q 478 282 478 158 q 470 389 478 341 q 442 470 462 437 l 249 66 q 285 51 265 56 q 329 45 305 45 m 316 -12 q 265 -9 289 -12 q 221 1 241 -6 l 172 -94 l 119 -66 l 165 27 q 83 131 110 64 q 57 285 57 197 q 79 423 57 365 q 138 518 101 481 q 227 572 176 555 q 334 590 277 590 q 386 586 362 590 q 432 576 411 582 l 478 665 l 531 637 l 487 549 q 567 446 541 513 q 593 292 593 379 q 571 155 593 213 q 512 60 549 97 q 424 6 475 23 q 316 -12 373 -12 z "},"œ":{"ha":1015,"x_min":57,"x_max":957,"o":"m 730 531 q 640 494 676 531 q 593 375 604 457 l 847 375 q 848 386 848 380 q 849 398 849 392 q 818 494 849 458 q 730 531 787 531 m 177 294 q 184 193 177 239 q 209 115 191 147 q 256 66 226 83 q 328 48 285 48 q 437 104 402 48 q 473 284 473 160 q 465 386 473 340 q 440 463 458 431 q 393 513 423 495 q 321 530 364 530 q 212 474 247 530 q 177 294 177 419 m 955 125 q 874 26 935 64 q 732 -12 814 -12 q 610 15 661 -12 q 529 89 559 42 q 437 12 493 36 q 314 -12 380 -12 q 199 9 247 -12 q 119 69 150 31 q 72 163 87 108 q 57 286 57 219 q 79 423 57 365 q 138 517 101 480 q 226 572 175 555 q 333 590 276 590 q 457 564 406 590 q 537 489 508 538 q 625 564 572 537 q 746 590 679 590 q 831 577 792 590 q 898 539 870 564 q 941 477 926 515 q 957 391 957 440 q 955 357 957 377 q 951 321 954 337 l 589 321 q 589 314 589 318 q 589 306 589 310 q 603 191 589 237 q 638 116 616 144 q 692 76 661 88 q 760 64 724 64 q 850 86 807 64 q 919 146 894 108 l 955 125 z "},"ŕ":{"ha":541,"x_min":42,"x_max":507,"o":"m 378 50 l 378 0 l 49 0 l 49 52 l 112 61 q 132 71 125 63 q 139 92 139 79 l 139 466 q 133 490 139 481 q 112 501 127 498 l 42 511 l 42 560 q 129 579 82 572 q 215 587 175 586 l 232 571 l 243 478 q 281 520 259 500 q 327 556 303 540 q 380 581 352 571 q 434 590 407 590 q 470 586 450 590 q 503 576 490 583 q 503 480 507 534 q 491 383 500 427 l 438 383 l 423 461 q 412 484 420 478 q 389 491 404 491 q 316 477 354 491 q 247 430 279 462 l 247 92 q 255 70 247 78 q 276 61 262 63 l 378 50 m 254 636 l 220 672 l 404 889 l 477 825 q 436 780 462 805 q 381 731 411 756 q 318 681 351 706 q 254 636 285 657 z "},"ř":{"ha":541,"x_min":42,"x_max":507,"o":"m 378 50 l 378 0 l 49 0 l 49 52 l 112 61 q 132 71 125 63 q 139 92 139 79 l 139 466 q 133 490 139 481 q 112 501 127 498 l 42 511 l 42 560 q 129 579 82 572 q 215 587 175 586 l 232 571 l 243 478 q 281 520 259 500 q 327 556 303 540 q 380 581 352 571 q 434 590 407 590 q 470 586 450 590 q 503 576 490 583 q 503 480 507 534 q 491 383 500 427 l 438 383 l 423 461 q 412 484 420 478 q 389 491 404 491 q 316 477 354 491 q 247 430 279 462 l 247 92 q 255 70 247 78 q 276 61 262 63 l 378 50 m 458 893 l 496 859 l 357 664 l 272 656 l 117 856 l 158 892 l 314 753 l 458 893 z "},"ŗ":{"ha":541,"x_min":42,"x_max":507,"o":"m 378 50 l 378 0 l 49 0 l 49 52 l 112 61 q 132 71 125 63 q 139 92 139 79 l 139 466 q 133 490 139 481 q 112 501 127 498 l 42 511 l 42 560 q 129 579 82 572 q 215 587 175 586 l 232 571 l 243 478 q 281 520 259 500 q 327 556 303 540 q 380 581 352 571 q 434 590 407 590 q 470 586 450 590 q 503 576 490 583 q 503 480 507 534 q 491 383 500 427 l 438 383 l 423 461 q 412 484 420 478 q 389 491 404 491 q 316 477 354 491 q 247 430 279 462 l 247 92 q 255 70 247 78 q 276 61 262 63 l 378 50 m 280 -147 q 247 -234 279 -196 q 173 -294 216 -272 l 145 -263 q 180 -229 164 -248 q 195 -188 195 -210 q 188 -165 195 -171 q 173 -154 180 -158 q 157 -138 165 -148 q 148 -109 148 -128 q 164 -71 148 -86 q 205 -56 180 -56 q 259 -82 237 -56 q 280 -147 280 -108 z "},"ś":{"ha":540,"x_min":61,"x_max":486,"o":"m 66 31 q 62 112 61 72 q 68 186 63 152 l 125 186 l 145 110 q 154 84 149 93 q 170 68 159 75 q 211 51 183 60 q 274 41 238 41 q 355 65 327 41 q 382 129 382 89 q 372 170 382 154 q 342 201 362 187 q 293 227 322 215 q 226 255 264 240 q 115 319 158 283 q 71 424 71 355 q 87 496 71 465 q 131 548 103 527 q 198 579 159 569 q 284 590 237 590 q 376 580 328 590 q 455 557 424 571 q 454 483 457 521 q 445 409 452 445 l 391 409 l 374 478 q 364 502 370 492 q 345 519 358 511 q 316 531 334 525 q 274 537 298 536 q 201 517 230 537 q 171 455 171 497 q 183 411 171 429 q 213 381 194 394 q 255 359 231 369 q 305 340 279 349 q 372 311 339 327 q 430 274 405 295 q 470 224 455 253 q 486 156 486 195 q 469 84 486 116 q 423 31 453 53 q 353 -2 394 10 q 262 -13 311 -13 q 150 2 202 -13 q 66 31 99 16 m 219 636 l 186 672 l 369 889 l 443 825 q 402 780 427 805 q 347 731 377 756 q 284 681 317 706 q 219 636 251 657 z "},"ŝ":{"ha":540,"x_min":61,"x_max":486,"o":"m 66 31 q 62 112 61 72 q 68 186 63 152 l 125 186 l 145 110 q 154 84 149 93 q 170 68 159 75 q 211 51 183 60 q 274 41 238 41 q 355 65 327 41 q 382 129 382 89 q 372 170 382 154 q 342 201 362 187 q 293 227 322 215 q 226 255 264 240 q 115 319 158 283 q 71 424 71 355 q 87 496 71 465 q 131 548 103 527 q 198 579 159 569 q 284 590 237 590 q 376 580 328 590 q 455 557 424 571 q 454 483 457 521 q 445 409 452 445 l 391 409 l 374 478 q 364 502 370 492 q 345 519 358 511 q 316 531 334 525 q 274 537 298 536 q 201 517 230 537 q 171 455 171 497 q 183 411 171 429 q 213 381 194 394 q 255 359 231 369 q 305 340 279 349 q 372 311 339 327 q 430 274 405 295 q 470 224 455 253 q 486 156 486 195 q 469 84 486 116 q 423 31 453 53 q 353 -2 394 10 q 262 -13 311 -13 q 150 2 202 -13 q 66 31 99 16 m 118 636 l 79 670 l 219 865 l 303 873 l 459 673 l 418 637 l 261 777 l 118 636 z "},"š":{"ha":540,"x_min":61,"x_max":486,"o":"m 66 31 q 62 112 61 72 q 68 186 63 152 l 125 186 l 145 110 q 154 84 149 93 q 170 68 159 75 q 211 51 183 60 q 274 41 238 41 q 355 65 327 41 q 382 129 382 89 q 372 170 382 154 q 342 201 362 187 q 293 227 322 215 q 226 255 264 240 q 115 319 158 283 q 71 424 71 355 q 87 496 71 465 q 131 548 103 527 q 198 579 159 569 q 284 590 237 590 q 376 580 328 590 q 455 557 424 571 q 454 483 457 521 q 445 409 452 445 l 391 409 l 374 478 q 364 502 370 492 q 345 519 358 511 q 316 531 334 525 q 274 537 298 536 q 201 517 230 537 q 171 455 171 497 q 183 411 171 429 q 213 381 194 394 q 255 359 231 369 q 305 340 279 349 q 372 311 339 327 q 430 274 405 295 q 470 224 455 253 q 486 156 486 195 q 469 84 486 116 q 423 31 453 53 q 353 -2 394 10 q 262 -13 311 -13 q 150 2 202 -13 q 66 31 99 16 m 424 893 l 462 859 l 323 664 l 238 656 l 83 856 l 123 892 l 280 753 l 424 893 z "},"ș":{"ha":540,"x_min":61,"x_max":486,"o":"m 66 31 q 62 112 61 72 q 68 186 63 152 l 125 186 l 145 110 q 154 84 149 93 q 170 68 159 75 q 211 51 183 60 q 274 41 238 41 q 355 65 327 41 q 382 129 382 89 q 372 170 382 154 q 342 201 362 187 q 293 227 322 215 q 226 255 264 240 q 115 319 158 283 q 71 424 71 355 q 87 496 71 465 q 131 548 103 527 q 198 579 159 569 q 284 590 237 590 q 376 580 328 590 q 455 557 424 571 q 454 483 457 521 q 445 409 452 445 l 391 409 l 374 478 q 364 502 370 492 q 345 519 358 511 q 316 531 334 525 q 274 537 298 536 q 201 517 230 537 q 171 455 171 497 q 183 411 171 429 q 213 381 194 394 q 255 359 231 369 q 305 340 279 349 q 372 311 339 327 q 430 274 405 295 q 470 224 455 253 q 486 156 486 195 q 469 84 486 116 q 423 31 453 53 q 353 -2 394 10 q 262 -13 311 -13 q 150 2 202 -13 q 66 31 99 16 m 331 -147 q 298 -234 330 -196 q 224 -294 267 -272 l 196 -263 q 231 -229 215 -248 q 246 -188 246 -210 q 239 -165 246 -171 q 224 -154 231 -158 q 208 -138 216 -148 q 199 -109 199 -128 q 215 -71 199 -86 q 256 -56 231 -56 q 310 -82 288 -56 q 331 -147 331 -108 z "},"ş":{"ha":540,"x_min":61,"x_max":486,"o":"m 66 31 q 62 112 61 72 q 68 186 63 152 l 125 186 l 145 110 q 154 84 149 93 q 170 68 159 75 q 211 51 183 60 q 274 41 238 41 q 355 65 327 41 q 382 129 382 89 q 372 170 382 154 q 342 201 362 187 q 293 227 322 215 q 226 255 264 240 q 115 319 158 283 q 71 424 71 355 q 87 496 71 465 q 131 548 103 527 q 198 579 159 569 q 284 590 237 590 q 376 580 328 590 q 455 557 424 571 q 454 483 457 521 q 445 409 452 445 l 391 409 l 374 478 q 364 502 370 492 q 345 519 358 511 q 316 531 334 525 q 274 537 298 536 q 201 517 230 537 q 171 455 171 497 q 183 411 171 429 q 213 381 194 394 q 255 359 231 369 q 305 340 279 349 q 372 311 339 327 q 430 274 405 295 q 470 224 455 253 q 486 156 486 195 q 469 84 486 116 q 423 31 453 53 q 353 -2 394 10 q 262 -13 311 -13 q 150 2 202 -13 q 66 31 99 16 m 234 26 l 281 26 l 259 -44 q 269 -44 263 -44 q 281 -46 275 -45 q 339 -74 316 -51 q 362 -134 362 -97 q 348 -186 362 -163 q 310 -226 334 -210 q 253 -252 286 -243 q 183 -262 221 -262 q 172 -261 176 -262 q 164 -261 169 -261 l 157 -216 q 236 -191 208 -213 q 264 -140 264 -169 q 242 -101 264 -113 q 195 -88 221 -89 l 234 26 z "},"ß":{"ha":767,"x_min":41,"x_max":730,"o":"m 512 -14 q 408 1 455 -14 q 332 31 361 16 q 329 65 330 48 q 328 98 328 82 q 329 142 328 121 q 334 183 331 163 l 392 183 l 411 110 q 420 84 416 92 q 436 68 425 76 q 471 50 448 59 q 525 40 494 40 q 598 64 569 40 q 627 129 627 88 q 591 201 627 174 q 499 258 556 227 q 449 287 474 272 q 407 321 425 302 q 377 364 388 340 q 366 421 366 388 q 377 479 366 453 q 408 526 389 506 q 451 562 427 546 q 501 587 476 577 q 512 635 509 611 q 516 676 516 659 q 482 784 516 741 q 379 827 448 827 q 283 785 318 827 q 247 641 247 743 l 247 0 l 50 0 l 50 52 l 112 61 q 132 71 125 63 q 139 91 139 78 l 139 499 l 41 512 l 41 560 l 139 574 l 139 611 q 163 729 139 675 q 225 823 186 783 q 315 885 264 862 q 421 907 366 907 q 504 892 466 907 q 569 849 542 877 q 612 783 596 822 q 628 697 628 744 q 621 629 628 665 q 604 566 614 593 q 504 521 540 551 q 467 451 467 491 q 501 388 467 411 q 586 337 535 365 q 689 266 648 305 q 730 160 730 227 q 714 86 730 118 q 668 31 697 53 q 598 -2 638 9 q 512 -14 558 -14 z "},"ť":{"ha":463,"x_min":32,"x_max":448,"o":"m 119 143 l 119 501 l 32 512 l 32 560 l 96 569 q 117 578 110 571 q 127 597 124 585 l 163 746 l 226 746 l 227 574 l 416 574 l 416 505 l 228 505 l 228 179 q 250 91 228 113 q 311 69 273 69 q 370 80 343 69 q 417 114 397 92 l 448 85 q 378 13 425 38 q 274 -11 331 -11 q 215 -4 243 -11 q 165 20 186 3 q 132 68 144 38 q 119 143 119 97 m 350 663 l 299 674 l 322 951 l 419 939 q 392 801 411 874 q 350 663 374 728 z "},"ț":{"ha":463,"x_min":32,"x_max":448,"o":"m 119 143 l 119 501 l 32 512 l 32 560 l 96 569 q 117 578 110 571 q 127 597 124 585 l 163 746 l 226 746 l 227 574 l 416 574 l 416 505 l 228 505 l 228 179 q 250 91 228 113 q 311 69 273 69 q 370 80 343 69 q 417 114 397 92 l 448 85 q 378 13 425 38 q 274 -11 331 -11 q 215 -4 243 -11 q 165 20 186 3 q 132 68 144 38 q 119 143 119 97 m 321 -147 q 288 -234 320 -196 q 214 -294 257 -272 l 186 -263 q 221 -229 205 -248 q 236 -188 236 -210 q 229 -165 236 -171 q 214 -154 221 -158 q 198 -138 206 -148 q 189 -109 189 -128 q 205 -71 189 -86 q 245 -56 221 -56 q 300 -82 278 -56 q 321 -147 321 -108 z "},"ţ":{"ha":463,"x_min":32,"x_max":448,"o":"m 119 143 l 119 501 l 32 512 l 32 560 l 96 569 q 117 578 110 571 q 127 597 124 585 l 163 746 l 226 746 l 227 574 l 416 574 l 416 505 l 228 505 l 228 179 q 250 91 228 113 q 311 69 273 69 q 370 80 343 69 q 417 114 397 92 l 448 85 q 378 13 425 38 q 274 -11 331 -11 q 215 -4 243 -11 q 165 20 186 3 q 132 68 144 38 q 119 143 119 97 m 224 26 l 271 26 l 249 -44 q 259 -44 253 -44 q 271 -46 265 -45 q 329 -74 306 -51 q 352 -134 352 -97 q 338 -186 352 -163 q 300 -226 324 -210 q 243 -252 276 -243 q 173 -262 211 -262 q 162 -261 166 -262 q 154 -261 159 -261 l 147 -216 q 226 -191 198 -213 q 254 -140 254 -169 q 232 -101 254 -113 q 185 -88 211 -89 l 224 26 z "},"ŧ":{"ha":465,"x_min":33,"x_max":449,"o":"m 449 85 q 380 13 427 38 q 275 -11 332 -11 q 216 -4 244 -11 q 167 20 188 3 q 133 68 145 38 q 121 143 121 97 l 121 309 l 38 309 l 38 373 l 121 373 l 121 499 l 33 511 l 33 560 l 97 569 q 118 578 111 571 q 128 597 125 585 l 165 746 l 227 746 l 229 574 l 418 574 l 418 504 l 229 504 l 229 373 l 413 373 l 413 309 l 229 309 l 229 179 q 252 91 229 113 q 312 69 274 69 q 371 80 344 69 q 418 114 398 92 l 449 85 z "},"ù":{"ha":705,"x_min":29,"x_max":669,"o":"m 571 -9 q 509 12 531 -9 q 478 66 487 33 q 402 10 445 31 q 298 -12 358 -12 q 161 41 204 -12 q 119 199 119 93 l 119 470 q 112 491 119 483 q 92 502 106 499 l 29 513 l 29 562 q 120 580 71 574 q 211 587 169 586 l 227 571 l 227 218 q 250 99 227 137 q 337 61 273 61 q 409 73 374 61 q 474 111 443 85 l 474 470 q 467 492 474 483 q 447 502 460 500 l 372 514 l 372 564 q 469 581 415 575 q 566 587 523 587 l 582 571 l 582 95 q 590 71 582 78 q 611 63 598 64 l 669 58 l 669 10 q 624 -2 652 4 q 571 -9 595 -9 m 251 889 l 430 674 l 394 636 q 332 681 364 657 q 270 730 299 705 q 217 780 241 756 q 177 825 193 805 l 251 889 z "},"ú":{"ha":705,"x_min":29,"x_max":669,"o":"m 571 -9 q 509 12 531 -9 q 478 66 487 33 q 402 10 445 31 q 298 -12 358 -12 q 161 41 204 -12 q 119 199 119 93 l 119 470 q 112 491 119 483 q 92 502 106 499 l 29 513 l 29 562 q 120 580 71 574 q 211 587 169 586 l 227 571 l 227 218 q 250 99 227 137 q 337 61 273 61 q 409 73 374 61 q 474 111 443 85 l 474 470 q 467 492 474 483 q 447 502 460 500 l 372 514 l 372 564 q 469 581 415 575 q 566 587 523 587 l 582 571 l 582 95 q 590 71 582 78 q 611 63 598 64 l 669 58 l 669 10 q 624 -2 652 4 q 571 -9 595 -9 m 282 636 l 249 672 l 432 889 l 506 825 q 465 780 490 805 q 410 731 440 756 q 347 681 380 706 q 282 636 314 657 z "},"û":{"ha":705,"x_min":29,"x_max":669,"o":"m 571 -9 q 509 12 531 -9 q 478 66 487 33 q 402 10 445 31 q 298 -12 358 -12 q 161 41 204 -12 q 119 199 119 93 l 119 470 q 112 491 119 483 q 92 502 106 499 l 29 513 l 29 562 q 120 580 71 574 q 211 587 169 586 l 227 571 l 227 218 q 250 99 227 137 q 337 61 273 61 q 409 73 374 61 q 474 111 443 85 l 474 470 q 467 492 474 483 q 447 502 460 500 l 372 514 l 372 564 q 469 581 415 575 q 566 587 523 587 l 582 571 l 582 95 q 590 71 582 78 q 611 63 598 64 l 669 58 l 669 10 q 624 -2 652 4 q 571 -9 595 -9 m 181 636 l 142 670 l 282 865 l 366 873 l 522 673 l 481 637 l 324 777 l 181 636 z "},"ũ":{"ha":705,"x_min":29,"x_max":669,"o":"m 571 -9 q 509 12 531 -9 q 478 66 487 33 q 402 10 445 31 q 298 -12 358 -12 q 161 41 204 -12 q 119 199 119 93 l 119 470 q 112 491 119 483 q 92 502 106 499 l 29 513 l 29 562 q 120 580 71 574 q 211 587 169 586 l 227 571 l 227 218 q 250 99 227 137 q 337 61 273 61 q 409 73 374 61 q 474 111 443 85 l 474 470 q 467 492 474 483 q 447 502 460 500 l 372 514 l 372 564 q 469 581 415 575 q 566 587 523 587 l 582 571 l 582 95 q 590 71 582 78 q 611 63 598 64 l 669 58 l 669 10 q 624 -2 652 4 q 571 -9 595 -9 m 538 780 q 520 735 532 758 q 491 694 508 712 q 453 664 475 676 q 404 653 431 653 q 355 664 377 653 q 313 689 333 675 q 276 713 294 702 q 239 724 258 724 q 194 703 214 724 q 160 659 174 681 l 122 680 q 140 726 129 703 q 169 767 152 749 q 208 797 186 785 q 257 808 230 808 q 306 797 283 808 q 347 772 328 786 q 385 748 367 759 q 421 737 403 737 q 467 758 447 737 q 501 803 486 780 l 538 780 z "},"ū":{"ha":705,"x_min":29,"x_max":669,"o":"m 571 -9 q 509 12 531 -9 q 478 66 487 33 q 402 10 445 31 q 298 -12 358 -12 q 161 41 204 -12 q 119 199 119 93 l 119 470 q 112 491 119 483 q 92 502 106 499 l 29 513 l 29 562 q 120 580 71 574 q 211 587 169 586 l 227 571 l 227 218 q 250 99 227 137 q 337 61 273 61 q 409 73 374 61 q 474 111 443 85 l 474 470 q 467 492 474 483 q 447 502 460 500 l 372 514 l 372 564 q 469 581 415 575 q 566 587 523 587 l 582 571 l 582 95 q 590 71 582 78 q 611 63 598 64 l 669 58 l 669 10 q 624 -2 652 4 q 571 -9 595 -9 m 162 687 l 162 761 l 498 761 l 498 687 l 162 687 z "},"ŭ":{"ha":705,"x_min":29,"x_max":669,"o":"m 571 -9 q 509 12 531 -9 q 478 66 487 33 q 402 10 445 31 q 298 -12 358 -12 q 161 41 204 -12 q 119 199 119 93 l 119 470 q 112 491 119 483 q 92 502 106 499 l 29 513 l 29 562 q 120 580 71 574 q 211 587 169 586 l 227 571 l 227 218 q 250 99 227 137 q 337 61 273 61 q 409 73 374 61 q 474 111 443 85 l 474 470 q 467 492 474 483 q 447 502 460 500 l 372 514 l 372 564 q 469 581 415 575 q 566 587 523 587 l 582 571 l 582 95 q 590 71 582 78 q 611 63 598 64 l 669 58 l 669 10 q 624 -2 652 4 q 571 -9 595 -9 m 518 809 q 494 748 511 777 q 452 699 477 720 q 396 667 428 679 q 327 655 364 655 q 258 667 290 655 q 203 701 226 680 q 163 750 179 722 q 142 809 147 778 l 193 832 q 250 764 215 787 q 331 740 285 740 q 411 762 374 740 q 474 832 448 784 l 518 809 z "},"ü":{"ha":705,"x_min":29,"x_max":669,"o":"m 571 -9 q 509 12 531 -9 q 478 66 487 33 q 402 10 445 31 q 298 -12 358 -12 q 161 41 204 -12 q 119 199 119 93 l 119 470 q 112 491 119 483 q 92 502 106 499 l 29 513 l 29 562 q 120 580 71 574 q 211 587 169 586 l 227 571 l 227 218 q 250 99 227 137 q 337 61 273 61 q 409 73 374 61 q 474 111 443 85 l 474 470 q 467 492 474 483 q 447 502 460 500 l 372 514 l 372 564 q 469 581 415 575 q 566 587 523 587 l 582 571 l 582 95 q 590 71 582 78 q 611 63 598 64 l 669 58 l 669 10 q 624 -2 652 4 q 571 -9 595 -9 m 507 739 q 489 691 507 709 q 442 672 471 672 q 395 691 413 672 q 377 739 377 709 q 395 787 377 768 q 442 806 413 806 q 489 787 471 806 q 507 739 507 768 m 282 739 q 264 691 282 709 q 217 672 246 672 q 170 691 188 672 q 152 739 152 709 q 170 787 152 768 q 217 806 188 806 q 264 787 246 806 q 282 739 282 768 z "},"ů":{"ha":705,"x_min":29,"x_max":669,"o":"m 571 -9 q 509 12 531 -9 q 478 66 487 33 q 402 10 445 31 q 298 -12 358 -12 q 161 41 204 -12 q 119 199 119 93 l 119 470 q 112 491 119 483 q 92 502 106 499 l 29 513 l 29 562 q 120 580 71 574 q 211 587 169 586 l 227 571 l 227 218 q 250 99 227 137 q 337 61 273 61 q 409 73 374 61 q 474 111 443 85 l 474 470 q 467 492 474 483 q 447 502 460 500 l 372 514 l 372 564 q 469 581 415 575 q 566 587 523 587 l 582 571 l 582 95 q 590 71 582 78 q 611 63 598 64 l 669 58 l 669 10 q 624 -2 652 4 q 571 -9 595 -9 m 464 765 q 453 716 464 737 q 423 679 442 694 q 380 655 405 663 q 329 647 356 647 q 230 681 265 647 q 196 767 195 714 q 208 814 196 793 q 239 850 220 835 q 284 873 259 865 q 335 881 309 881 q 431 848 397 881 q 464 765 465 815 m 269 767 q 284 720 269 741 q 331 698 299 698 q 377 715 361 698 q 392 762 392 732 q 378 808 392 788 q 332 829 363 829 q 285 811 302 829 q 269 767 269 794 z "},"ű":{"ha":705,"x_min":29,"x_max":669,"o":"m 571 -9 q 509 12 531 -9 q 478 66 487 33 q 402 10 445 31 q 298 -12 358 -12 q 161 41 204 -12 q 119 199 119 93 l 119 470 q 112 491 119 483 q 92 502 106 499 l 29 513 l 29 562 q 120 580 71 574 q 211 587 169 586 l 227 571 l 227 218 q 250 99 227 137 q 337 61 273 61 q 409 73 374 61 q 474 111 443 85 l 474 470 q 467 492 474 483 q 447 502 460 500 l 372 514 l 372 564 q 469 581 415 575 q 566 587 523 587 l 582 571 l 582 95 q 590 71 582 78 q 611 63 598 64 l 669 58 l 669 10 q 624 -2 652 4 q 571 -9 595 -9 m 223 651 l 185 679 l 312 905 l 391 859 q 359 807 379 835 q 315 749 338 778 q 267 695 291 721 q 223 651 243 669 m 414 651 l 379 682 l 520 900 l 595 849 q 560 799 582 827 q 513 744 538 772 q 461 692 487 717 q 414 651 435 668 z "},"ų":{"ha":705,"x_min":29,"x_max":669,"o":"m 527 -260 q 438 -236 476 -260 q 401 -163 401 -213 q 413 -113 401 -137 q 444 -69 425 -89 q 488 -33 463 -49 q 538 -5 513 -16 l 538 -4 q 499 22 514 4 q 478 66 485 40 q 402 10 445 31 q 298 -12 358 -12 q 161 41 204 -12 q 119 199 119 93 l 119 470 q 112 491 119 483 q 92 502 106 499 l 29 513 l 29 562 q 120 580 71 574 q 211 587 169 586 l 227 571 l 227 218 q 250 99 227 137 q 337 61 273 61 q 409 73 374 61 q 474 111 443 85 l 474 470 q 467 492 474 483 q 447 502 460 500 l 372 514 l 372 564 q 469 581 415 575 q 566 587 523 587 l 582 571 l 582 95 q 590 71 582 78 q 611 63 598 64 l 669 58 l 669 10 q 645 3 659 6 q 617 -4 632 -1 q 531 -61 565 -26 q 497 -134 497 -96 q 517 -178 497 -164 q 568 -192 538 -192 q 603 -188 584 -192 q 638 -177 621 -185 l 657 -222 q 597 -250 632 -240 q 527 -260 562 -260 z "},"ẁ":{"ha":917,"x_min":14,"x_max":902,"o":"m 234 -9 l 76 488 q 65 506 72 499 q 46 515 58 512 l 14 524 l 14 574 l 260 574 l 260 524 l 181 509 l 298 105 l 429 574 l 452 574 l 452 574 l 530 574 l 659 105 l 773 509 l 694 524 l 694 574 l 902 574 l 902 524 l 868 515 q 849 506 857 512 q 838 488 842 499 l 687 -9 l 594 -9 l 459 448 l 329 -9 l 234 -9 m 392 889 l 571 674 l 536 636 q 473 681 505 657 q 412 730 441 705 q 359 780 383 756 q 319 825 334 805 l 392 889 z "},"ẃ":{"ha":917,"x_min":14,"x_max":902,"o":"m 234 -9 l 76 488 q 65 506 72 499 q 46 515 58 512 l 14 524 l 14 574 l 260 574 l 260 524 l 181 509 l 298 105 l 429 574 l 452 574 l 452 574 l 530 574 l 659 105 l 773 509 l 694 524 l 694 574 l 902 574 l 902 524 l 868 515 q 849 506 857 512 q 838 488 842 499 l 687 -9 l 594 -9 l 459 448 l 329 -9 l 234 -9 m 424 636 l 390 672 l 574 889 l 647 825 q 607 780 632 805 q 551 731 581 756 q 488 681 521 706 q 424 636 455 657 z "},"ŵ":{"ha":917,"x_min":14,"x_max":902,"o":"m 234 -9 l 76 488 q 65 506 72 499 q 46 515 58 512 l 14 524 l 14 574 l 260 574 l 260 524 l 181 509 l 298 105 l 429 574 l 452 574 l 452 574 l 530 574 l 659 105 l 773 509 l 694 524 l 694 574 l 902 574 l 902 524 l 868 515 q 849 506 857 512 q 838 488 842 499 l 687 -9 l 594 -9 l 459 448 l 329 -9 l 234 -9 m 322 636 l 283 670 l 423 865 l 508 873 l 663 673 l 622 637 l 466 777 l 322 636 z "}}}
